{"glyphs":{"0":{"ha":833,"x_min":83,"x_max":750,"o":"m 417 -17 q 227 43 301 -17 q 118 215 153 103 q 83 485 83 326 q 118 756 83 643 q 227 927 153 868 q 417 986 301 986 q 607 927 533 986 q 715 756 681 868 q 750 485 750 643 q 715 215 750 326 q 607 43 681 103 q 417 -17 533 -17 m 417 85 q 539 126 493 85 q 606 240 585 167 q 628 406 628 313 l 628 564 q 606 731 628 658 q 539 844 585 803 q 417 885 493 885 q 295 844 342 885 q 227 731 249 803 q 206 564 206 658 l 206 406 q 227 240 206 313 q 295 126 249 167 q 417 85 342 85 z "},"1":{"ha":833,"x_min":71,"x_max":760,"o":"m 760 0 l 122 0 l 122 103 l 393 103 l 393 883 l 383 883 l 139 656 l 71 729 l 328 969 l 510 969 l 510 103 l 760 103 l 760 0 z "},"2":{"ha":833,"x_min":96,"x_max":740,"o":"m 740 103 l 740 0 l 104 0 l 104 119 l 421 411 q 535 544 489 474 q 581 685 581 615 l 581 701 q 536 832 581 782 q 401 882 492 882 q 266 835 313 882 q 200 718 219 788 l 96 758 q 152 867 115 815 q 251 953 189 919 q 407 986 314 986 q 568 950 501 986 q 669 851 635 914 q 704 704 704 788 q 677 567 704 629 q 602 449 650 504 q 492 338 554 393 l 231 103 l 740 103 z "},"3":{"ha":833,"x_min":58,"x_max":701,"o":"m 257 558 l 363 558 q 510 604 461 558 q 560 719 560 650 l 560 729 q 512 844 560 806 q 386 882 464 882 q 264 849 311 882 q 186 761 217 817 l 100 828 q 163 903 125 867 q 256 963 200 939 q 389 986 311 986 q 538 958 471 986 q 644 875 604 929 q 683 742 683 821 q 629 592 683 649 q 497 515 575 535 l 497 510 q 597 470 550 500 q 672 390 643 440 q 701 265 701 339 q 660 119 701 182 q 545 19 619 56 q 372 -17 471 -17 q 230 8 289 -17 q 130 69 171 32 q 58 149 89 107 l 146 215 q 233 123 183 158 q 371 88 282 88 q 526 135 474 88 q 579 267 579 182 l 579 278 q 526 410 579 364 q 371 457 474 457 l 257 457 l 257 558 z "},"4":{"ha":833,"x_min":53,"x_max":772,"o":"m 632 0 l 521 0 l 521 190 l 53 190 l 53 293 l 458 969 l 632 969 l 632 288 l 772 288 l 772 190 l 632 190 l 632 0 m 514 879 l 163 288 l 521 288 l 521 879 l 514 879 z "},"5":{"ha":833,"x_min":107,"x_max":736,"o":"m 692 969 l 692 867 l 267 867 l 239 497 l 249 497 q 299 554 272 531 q 361 591 325 578 q 447 604 397 604 q 596 568 531 604 q 699 465 661 532 q 736 304 736 399 q 697 138 736 210 q 585 24 658 65 q 410 -17 513 -17 q 272 8 329 -17 q 176 69 215 32 q 107 149 136 107 l 194 215 q 277 123 232 158 q 410 88 322 88 q 560 140 508 88 q 613 289 613 193 l 613 303 q 560 451 613 399 q 410 504 508 504 q 305 480 343 504 q 236 422 267 456 l 138 436 l 172 969 l 692 969 z "},"6":{"ha":833,"x_min":93,"x_max":740,"o":"m 418 -17 q 245 28 318 -17 q 133 157 172 74 q 93 356 93 240 q 124 558 93 464 q 208 732 156 653 q 320 872 260 811 q 439 969 381 932 l 589 969 q 412 822 486 894 q 289 664 338 749 q 214 467 240 579 l 221 464 q 276 535 244 504 q 351 585 307 567 q 454 603 396 603 q 602 567 538 603 q 703 463 667 531 q 740 304 740 396 q 700 137 740 210 q 588 24 660 64 q 418 -17 515 -17 m 417 85 q 526 108 481 85 q 595 178 571 132 q 619 289 619 224 l 619 300 q 595 411 619 365 q 526 481 571 457 q 417 504 481 504 q 308 481 353 504 q 238 411 263 457 q 214 300 214 365 l 214 289 q 238 178 214 224 q 308 108 263 132 q 417 85 353 85 z "},"7":{"ha":833,"x_min":96,"x_max":732,"o":"m 368 0 l 243 0 l 614 869 l 200 869 l 200 689 l 96 689 l 96 969 l 732 969 l 732 867 l 368 0 z "},"8":{"ha":833,"x_min":81,"x_max":753,"o":"m 417 -17 q 232 20 307 -17 q 119 121 157 57 q 81 264 81 185 q 135 422 81 363 q 276 504 189 481 l 276 515 q 155 601 200 542 q 110 743 110 660 q 191 920 110 854 q 417 986 272 986 q 642 920 561 986 q 724 743 724 854 q 678 601 724 660 q 557 515 633 542 l 557 504 q 699 422 644 481 q 753 264 753 363 q 715 121 753 185 q 602 20 676 57 q 417 -17 528 -17 m 417 85 q 574 131 518 85 q 629 258 629 176 l 629 288 q 574 415 629 369 q 417 461 518 461 q 260 415 315 461 q 204 288 204 369 l 204 258 q 260 131 204 176 q 417 85 315 85 m 417 558 q 555 598 507 558 q 603 711 603 638 l 603 732 q 555 845 603 806 q 417 885 507 885 q 278 845 326 885 q 231 732 231 806 l 231 711 q 278 598 231 638 q 417 558 326 558 z "},"9":{"ha":833,"x_min":93,"x_max":740,"o":"m 740 614 q 709 411 740 506 q 626 238 678 317 q 513 98 574 158 q 394 0 453 38 l 244 0 q 422 149 349 76 q 544 306 496 221 q 619 503 593 390 l 613 506 q 558 435 590 467 q 483 385 526 403 q 379 367 439 367 q 231 403 296 367 q 130 506 167 439 q 93 665 93 574 q 133 833 93 761 q 246 946 174 906 q 415 986 318 986 q 589 941 517 986 q 701 813 661 896 q 740 614 740 729 m 417 465 q 526 489 481 465 q 595 558 571 513 q 619 669 619 604 l 619 681 q 595 792 619 746 q 526 861 571 838 q 417 885 481 885 q 308 861 353 885 q 238 792 263 838 q 214 681 214 746 l 214 669 q 238 558 214 604 q 308 489 263 513 q 417 465 353 465 z "},"a":{"ha":742,"x_min":61,"x_max":701,"o":"m 701 0 l 639 0 q 567 19 594 0 q 526 71 539 38 q 514 147 514 104 l 514 157 l 557 117 l 508 117 q 431 17 486 51 q 301 -17 376 -17 q 124 42 188 -17 q 61 200 61 100 q 94 315 61 268 q 195 385 128 361 q 367 410 263 410 l 508 410 l 508 481 q 467 597 508 557 q 339 638 425 638 q 231 608 275 638 q 157 531 186 579 l 90 593 q 183 692 119 650 q 344 733 247 733 q 547 669 474 733 q 619 492 619 606 l 619 97 l 701 97 l 701 0 m 508 326 l 361 326 q 222 299 267 326 q 178 218 178 271 l 178 189 q 217 107 178 136 q 319 78 256 78 q 417 95 375 78 q 484 142 460 113 q 508 208 508 172 l 508 326 z "},"b":{"ha":806,"x_min":118,"x_max":736,"o":"m 118 0 l 118 1028 l 229 1028 l 229 600 l 235 600 q 317 701 263 668 q 444 733 371 733 q 600 688 535 733 q 701 558 665 642 q 736 358 736 474 q 701 160 736 244 q 600 29 665 75 q 444 -17 535 -17 q 319 17 371 -17 q 235 117 267 50 l 229 117 l 229 0 l 118 0 m 414 83 q 563 142 508 83 q 617 297 617 201 l 617 419 q 563 574 617 515 q 414 633 508 633 q 322 615 364 633 q 254 567 279 597 q 229 496 229 536 l 229 229 q 254 151 229 183 q 322 101 279 118 q 414 83 364 83 z "},"c":{"ha":699,"x_min":65,"x_max":660,"o":"m 385 -17 q 149 85 233 -17 q 65 358 65 186 q 149 632 65 531 q 385 733 233 733 q 557 686 492 733 q 653 565 622 639 l 560 518 q 495 604 540 574 q 385 635 450 635 q 235 574 286 635 q 185 419 185 514 l 185 297 q 235 143 185 204 q 385 82 286 82 q 501 114 453 82 q 579 207 550 146 l 660 153 q 556 30 625 76 q 385 -17 488 -17 z "},"d":{"ha":806,"x_min":69,"x_max":688,"o":"m 576 0 l 576 117 l 571 117 q 487 17 539 50 q 361 -17 435 -17 q 206 29 272 -17 q 105 160 140 75 q 69 358 69 244 q 105 558 69 474 q 206 688 140 642 q 361 733 272 733 q 489 701 435 733 q 571 600 543 668 l 576 600 l 576 1028 l 688 1028 l 688 0 l 576 0 m 392 83 q 485 101 443 83 q 551 151 526 118 q 576 229 576 183 l 576 496 q 551 567 576 536 q 485 615 526 597 q 392 633 443 633 q 244 574 299 633 q 189 419 189 515 l 189 297 q 244 142 189 201 q 392 83 299 83 z "},"e":{"ha":763,"x_min":65,"x_max":697,"o":"m 388 -17 q 218 30 290 -17 q 106 160 146 76 q 65 358 65 244 q 106 556 65 472 q 218 687 146 640 q 388 733 290 733 q 553 688 483 733 q 660 564 622 643 q 697 383 697 485 l 697 331 l 182 331 l 182 297 q 238 142 182 204 q 394 81 294 81 q 513 113 463 81 q 592 204 564 144 l 671 147 q 563 29 636 75 q 388 -17 489 -17 m 388 640 q 281 613 328 640 q 208 535 235 585 q 182 424 182 486 l 182 414 l 578 414 l 578 429 q 554 540 578 493 q 488 614 531 588 q 388 640 444 640 z "},"f":{"ha":450,"x_min":40,"x_max":422,"o":"m 157 0 l 157 619 l 40 619 l 40 717 l 157 717 l 157 861 q 196 981 157 935 q 314 1028 235 1028 l 422 1028 l 422 931 l 268 931 l 268 717 l 422 717 l 422 619 l 268 619 l 268 0 l 157 0 z "},"g":{"ha":733,"x_min":60,"x_max":722,"o":"m 722 -79 q 683 -201 722 -153 q 567 -272 644 -249 q 375 -294 490 -294 q 194 -274 264 -294 q 92 -213 124 -253 q 60 -118 60 -174 q 90 -26 60 -60 q 174 21 121 7 l 174 36 q 126 76 143 51 q 110 136 110 100 q 144 219 110 190 q 233 261 179 247 l 233 267 q 134 354 169 297 q 99 486 99 411 q 132 615 99 560 q 226 702 165 671 q 368 733 288 733 q 441 726 407 733 q 504 706 475 719 l 504 718 q 524 787 504 760 q 588 814 543 814 l 694 814 l 694 717 l 558 717 l 558 671 q 619 590 597 638 q 640 486 640 543 q 607 358 640 414 q 513 270 574 301 q 369 239 451 239 q 333 241 351 239 q 300 246 315 243 q 235 217 265 236 q 206 165 206 199 q 236 122 206 133 q 315 111 267 111 l 468 111 q 662 60 601 111 q 722 -79 722 10 m 618 -87 q 585 -19 618 -44 q 469 7 553 7 l 231 7 q 180 -33 196 -8 q 164 -90 164 -57 q 199 -171 164 -137 q 319 -204 235 -204 l 422 -204 q 567 -175 515 -204 q 618 -87 618 -146 m 369 328 q 482 362 440 328 q 524 467 524 396 l 524 506 q 482 610 524 576 q 369 644 440 644 q 257 610 299 644 q 215 506 215 576 l 215 467 q 257 362 215 396 q 369 328 299 328 z "},"h":{"ha":789,"x_min":118,"x_max":678,"o":"m 118 0 l 118 1028 l 229 1028 l 229 600 l 235 600 q 309 697 261 661 q 438 733 357 733 q 613 662 549 733 q 678 460 678 590 l 678 0 l 567 0 l 567 440 q 526 585 567 536 q 404 633 485 633 q 319 619 360 633 q 254 574 279 604 q 229 497 229 543 l 229 0 l 118 0 z "},"i":{"ha":347,"x_min":106,"x_max":242,"o":"m 174 885 q 122 902 139 885 q 106 947 106 919 l 106 965 q 122 1010 106 993 q 174 1028 139 1028 q 226 1010 210 1028 q 242 965 242 993 l 242 947 q 226 902 242 919 q 174 885 210 885 m 118 0 l 118 717 l 229 717 l 229 0 l 118 0 z "},"j":{"ha":347,"x_min":1,"x_max":242,"o":"m 118 -181 l 118 717 l 229 717 l 229 -111 q 192 -231 229 -185 q 74 -278 154 -278 l 1 -278 l 1 -181 l 118 -181 m 174 885 q 122 902 139 885 q 106 947 106 919 l 106 965 q 122 1010 106 993 q 174 1028 139 1028 q 226 1010 210 1028 q 242 965 242 993 l 242 947 q 226 902 242 919 q 174 885 210 885 z "},"k":{"ha":732,"x_min":118,"x_max":708,"o":"m 118 0 l 118 1028 l 229 1028 l 229 504 l 229 376 l 235 376 l 344 499 l 547 717 l 682 717 l 417 433 l 708 0 l 574 0 l 336 365 l 229 256 l 229 0 l 118 0 z "},"l":{"ha":378,"x_min":118,"x_max":335,"o":"m 335 0 l 236 0 q 149 33 179 0 q 118 115 118 65 l 118 1028 l 229 1028 l 229 97 l 335 97 l 335 0 z "},"m":{"ha":1213,"x_min":118,"x_max":1101,"o":"m 229 0 l 118 0 l 118 717 l 229 717 l 229 600 l 235 600 q 301 694 258 656 q 428 733 344 733 q 558 699 499 733 q 647 588 618 665 l 650 588 q 723 690 669 646 q 868 733 776 733 q 1040 662 978 733 q 1101 460 1101 590 l 1101 0 l 990 0 l 990 440 q 953 584 990 535 q 833 633 915 633 q 751 619 790 633 q 689 574 713 604 q 665 497 665 543 l 665 0 l 554 0 l 554 440 q 517 585 554 536 q 400 633 479 633 q 317 619 357 633 q 253 574 278 604 q 229 497 229 543 l 229 0 z "},"n":{"ha":789,"x_min":118,"x_max":678,"o":"m 229 0 l 118 0 l 118 717 l 229 717 l 229 600 l 235 600 q 309 697 261 661 q 438 733 357 733 q 613 662 549 733 q 678 460 678 590 l 678 0 l 567 0 l 567 440 q 526 585 567 536 q 404 633 485 633 q 319 619 360 633 q 254 574 279 604 q 229 497 229 543 l 229 0 z "},"o":{"ha":778,"x_min":65,"x_max":713,"o":"m 389 -17 q 220 30 293 -17 q 106 160 147 76 q 65 358 65 244 q 106 556 65 472 q 220 687 147 640 q 389 733 293 733 q 558 687 485 733 q 672 556 631 640 q 713 358 713 472 q 672 160 713 244 q 558 30 631 76 q 389 -17 485 -17 m 389 82 q 536 138 479 82 q 593 307 593 193 l 593 410 q 536 579 593 524 q 389 635 479 635 q 242 579 300 635 q 185 410 185 524 l 185 307 q 242 138 185 193 q 389 82 300 82 z "},"p":{"ha":806,"x_min":118,"x_max":736,"o":"m 118 -278 l 118 717 l 229 717 l 229 600 l 235 600 q 317 701 263 668 q 444 733 371 733 q 600 688 535 733 q 701 558 665 642 q 736 358 736 474 q 701 160 736 244 q 600 29 665 75 q 444 -17 535 -17 q 319 17 371 -17 q 235 117 267 50 l 229 117 l 229 -278 l 118 -278 m 414 83 q 563 142 508 83 q 617 297 617 201 l 617 419 q 563 574 617 515 q 414 633 508 633 q 322 615 364 633 q 254 567 279 597 q 229 496 229 536 l 229 229 q 254 151 229 183 q 322 101 279 118 q 414 83 364 83 z "},"q":{"ha":806,"x_min":69,"x_max":688,"o":"m 576 -278 l 576 117 l 571 117 q 487 17 539 50 q 361 -17 435 -17 q 206 29 272 -17 q 105 160 140 75 q 69 358 69 244 q 105 558 69 474 q 206 688 140 642 q 361 733 272 733 q 489 701 435 733 q 571 600 543 668 l 576 600 l 576 717 l 688 717 l 688 -278 l 576 -278 m 392 83 q 485 101 443 83 q 551 151 526 118 q 576 229 576 183 l 576 496 q 551 567 576 536 q 485 615 526 597 q 392 633 443 633 q 244 574 299 633 q 189 419 189 515 l 189 297 q 244 142 189 201 q 392 83 299 83 z "},"r":{"ha":510,"x_min":118,"x_max":486,"o":"m 229 0 l 118 0 l 118 717 l 229 717 l 229 585 l 236 585 q 275 649 249 619 q 343 698 301 679 q 443 717 385 717 l 486 717 l 486 606 l 421 606 q 318 590 361 606 q 252 547 275 574 q 229 486 229 521 l 229 0 z "},"s":{"ha":676,"x_min":50,"x_max":599,"o":"m 333 -17 q 167 22 235 -17 q 50 124 99 60 l 129 188 q 222 107 171 136 q 342 78 274 78 q 452 108 413 78 q 492 194 492 139 q 465 267 492 236 q 367 307 438 297 l 310 315 q 192 348 244 325 q 109 413 139 371 q 79 522 79 456 q 152 681 79 629 q 335 733 225 733 q 438 719 393 733 q 519 680 483 706 q 585 618 556 654 l 511 551 q 442 612 488 585 q 326 639 396 639 q 222 609 258 639 q 186 528 186 579 q 222 452 186 476 q 324 417 257 428 l 379 408 q 549 340 499 390 q 599 207 599 289 q 567 88 599 138 q 475 10 535 38 q 333 -17 415 -17 z "},"t":{"ha":488,"x_min":40,"x_max":426,"o":"m 415 0 l 276 0 q 189 33 219 0 q 158 118 158 67 l 158 619 l 40 619 l 40 717 l 107 717 q 156 731 143 717 q 169 782 169 746 l 169 915 l 269 915 l 269 717 l 426 717 l 426 619 l 269 619 l 269 97 l 415 97 l 415 0 z "},"u":{"ha":789,"x_min":111,"x_max":671,"o":"m 560 0 l 560 117 l 554 117 q 488 24 533 65 q 353 -17 443 -17 q 177 55 243 -17 q 111 257 111 126 l 111 717 l 222 717 l 222 276 q 264 132 222 181 q 386 83 306 83 q 470 98 431 83 q 535 143 510 113 q 560 221 560 174 l 560 717 l 671 717 l 671 0 l 560 0 z "},"v":{"ha":683,"x_min":25,"x_max":658,"o":"m 406 0 l 276 0 l 25 717 l 136 717 l 261 361 l 339 117 l 346 117 l 424 361 l 551 717 l 658 717 l 406 0 z "},"w":{"ha":1067,"x_min":43,"x_max":1024,"o":"m 235 0 l 43 717 l 151 717 l 228 407 l 304 93 l 307 93 l 394 407 l 485 717 l 583 717 l 676 407 l 765 93 l 768 93 l 842 407 l 919 717 l 1024 717 l 833 0 l 696 0 l 596 344 l 533 563 l 531 563 l 469 344 l 369 0 l 235 0 z "},"x":{"ha":704,"x_min":29,"x_max":675,"o":"m 29 0 l 294 361 l 40 717 l 171 717 l 353 450 l 357 450 l 546 717 l 669 717 l 417 369 l 675 0 l 544 0 l 358 281 l 354 281 l 153 0 l 29 0 z "},"y":{"ha":693,"x_min":24,"x_max":669,"o":"m 386 229 l 560 717 l 669 717 l 349 -167 q 315 -234 333 -210 q 265 -268 296 -258 q 182 -278 235 -278 l 125 -278 l 125 -181 l 238 -181 l 292 -28 l 24 717 l 135 717 l 307 229 l 340 113 l 347 113 l 386 229 z "},"z":{"ha":644,"x_min":46,"x_max":599,"o":"m 599 0 l 46 0 l 46 93 l 453 619 l 58 619 l 58 717 l 588 717 l 588 633 l 172 97 l 599 97 l 599 0 z "},"A":{"ha":890,"x_min":32,"x_max":858,"o":"m 858 0 l 736 0 l 639 286 l 247 286 l 150 0 l 32 0 l 371 969 l 519 969 l 858 0 m 610 389 l 488 740 l 446 861 l 439 861 l 397 740 l 275 389 l 610 389 z "},"B":{"ha":907,"x_min":129,"x_max":819,"o":"m 129 0 l 129 969 l 528 969 q 717 901 647 969 q 786 719 786 833 q 760 604 786 647 q 698 540 735 561 q 629 514 661 519 l 629 506 q 688 491 656 504 q 751 451 721 478 q 800 383 781 425 q 819 281 819 342 q 787 138 819 201 q 698 37 754 74 q 569 0 642 0 l 129 0 m 246 450 l 246 103 l 533 103 q 619 120 583 103 q 675 171 656 138 q 694 253 694 204 l 694 300 q 675 382 694 349 q 619 433 656 415 q 533 450 583 450 l 246 450 m 246 867 l 246 550 l 514 550 q 592 566 560 550 q 643 612 625 582 q 661 685 661 642 l 661 732 q 643 805 661 775 q 592 851 625 835 q 514 867 560 867 l 246 867 z "},"C":{"ha":863,"x_min":81,"x_max":811,"o":"m 471 -17 q 261 40 349 -17 q 127 206 174 96 q 81 479 81 317 q 127 755 81 642 q 261 927 174 868 q 471 986 349 986 q 675 931 592 986 q 804 774 758 875 l 710 717 q 621 837 681 792 q 471 882 561 882 q 276 791 346 882 q 206 551 206 700 l 206 407 q 276 173 206 258 q 471 88 346 88 q 626 135 564 88 q 718 263 689 183 l 811 204 q 678 43 765 103 q 471 -17 592 -17 z "},"D":{"ha":932,"x_min":129,"x_max":851,"o":"m 129 0 l 129 969 l 454 969 q 665 916 575 969 q 803 755 754 863 q 851 485 851 647 q 803 215 851 322 q 665 53 754 107 q 454 0 575 0 l 129 0 m 246 103 l 454 103 q 596 139 535 103 q 692 242 657 175 q 726 406 726 310 l 726 564 q 692 728 726 660 q 596 831 657 796 q 454 867 535 867 l 246 867 l 246 103 z "},"E":{"ha":810,"x_min":129,"x_max":721,"o":"m 721 0 l 129 0 l 129 969 l 721 969 l 721 867 l 246 867 l 246 542 l 693 542 l 693 439 l 246 439 l 246 103 l 721 103 l 721 0 z "},"F":{"ha":776,"x_min":129,"x_max":707,"o":"m 246 0 l 129 0 l 129 969 l 707 969 l 707 867 l 246 867 l 246 542 l 667 542 l 667 439 l 246 439 l 246 0 z "},"G":{"ha":965,"x_min":81,"x_max":865,"o":"m 757 0 l 757 142 l 753 142 q 665 28 735 74 q 483 -17 594 -17 q 274 41 365 -17 q 132 210 183 99 q 81 485 81 322 q 132 758 81 646 q 276 928 183 869 q 493 986 369 986 q 711 927 624 986 q 846 774 799 868 l 750 715 q 651 838 717 793 q 493 882 585 882 q 343 842 408 882 q 242 731 278 803 q 206 564 206 660 l 206 407 q 242 240 206 311 q 345 128 278 168 q 504 88 413 88 q 628 111 572 88 q 717 182 683 135 q 751 300 751 229 l 751 396 l 538 396 l 538 499 l 865 499 l 865 0 l 757 0 z "},"H":{"ha":982,"x_min":129,"x_max":853,"o":"m 736 0 l 736 439 l 246 439 l 246 0 l 129 0 l 129 969 l 246 969 l 246 542 l 736 542 l 736 969 l 853 969 l 853 0 l 736 0 z "},"I":{"ha":556,"x_min":83,"x_max":472,"o":"m 472 0 l 83 0 l 83 97 l 219 97 l 219 872 l 83 872 l 83 969 l 472 969 l 472 872 l 336 872 l 336 97 l 472 97 l 472 0 z "},"J":{"ha":708,"x_min":39,"x_max":586,"o":"m 136 969 l 586 969 l 586 251 q 551 109 586 169 q 453 16 515 49 q 308 -17 390 -17 q 127 44 196 -17 q 39 204 58 106 l 144 229 q 198 127 158 167 q 311 88 238 88 q 428 133 386 88 q 469 272 469 179 l 469 867 l 136 867 l 136 969 z "},"K":{"ha":881,"x_min":129,"x_max":850,"o":"m 706 0 l 383 476 l 246 324 l 246 0 l 129 0 l 129 969 l 246 969 l 246 622 l 246 454 l 250 454 l 389 622 l 682 969 l 825 969 l 464 554 l 850 0 l 706 0 z "},"L":{"ha":696,"x_min":129,"x_max":658,"o":"m 658 0 l 129 0 l 129 969 l 246 969 l 246 103 l 658 103 l 658 0 z "},"M":{"ha":1128,"x_min":129,"x_max":999,"o":"m 129 0 l 129 969 l 285 969 l 468 626 l 563 447 l 569 447 l 665 626 l 849 969 l 999 969 l 999 0 l 885 0 l 885 654 l 885 817 l 878 817 l 796 654 l 564 232 l 332 654 l 250 817 l 243 817 l 243 654 l 243 0 l 129 0 z "},"N":{"ha":982,"x_min":129,"x_max":853,"o":"m 718 0 l 364 592 l 247 807 l 243 807 l 243 592 l 243 0 l 129 0 l 129 969 l 264 969 l 618 378 l 735 163 l 739 163 l 739 378 l 739 969 l 853 969 l 853 0 l 718 0 z "},"O":{"ha":983,"x_min":81,"x_max":903,"o":"m 492 -17 q 274 41 367 -17 q 131 210 182 99 q 81 485 81 322 q 131 759 81 647 q 274 928 182 871 q 492 986 367 986 q 709 928 617 986 q 852 759 801 871 q 903 485 903 647 q 852 210 903 322 q 709 41 801 99 q 492 -17 617 -17 m 492 88 q 640 127 576 88 q 741 238 704 167 q 778 404 778 308 l 778 565 q 741 733 778 661 q 640 843 704 804 q 492 882 576 882 q 344 843 408 882 q 242 733 279 804 q 206 565 206 661 l 206 404 q 242 238 206 308 q 344 127 279 167 q 492 88 408 88 z "},"P":{"ha":842,"x_min":129,"x_max":786,"o":"m 246 0 l 129 0 l 129 969 l 515 969 q 663 935 603 969 q 755 840 724 901 q 786 692 786 778 q 755 544 786 607 q 663 448 724 482 q 515 414 603 414 l 246 414 l 246 0 m 246 867 l 246 517 l 515 517 q 594 533 561 517 q 644 580 626 549 q 661 656 661 611 l 661 728 q 644 803 661 772 q 594 851 626 835 q 515 867 561 867 l 246 867 z "},"Q":{"ha":983,"x_min":81,"x_max":903,"o":"m 706 -131 l 706 -228 l 563 -228 q 476 -195 506 -228 q 446 -114 446 -162 l 446 -15 q 251 56 333 -4 q 125 225 169 117 q 81 485 81 333 q 131 759 81 647 q 274 928 182 871 q 492 986 367 986 q 709 928 617 986 q 852 759 801 871 q 903 485 903 647 q 860 231 903 338 q 741 64 818 125 q 557 -12 664 3 l 557 -131 l 706 -131 m 492 88 q 640 127 576 88 q 741 238 704 167 q 778 404 778 308 l 778 565 q 741 733 778 661 q 640 843 704 804 q 492 882 576 882 q 344 843 408 882 q 242 733 279 804 q 206 565 206 661 l 206 404 q 242 238 206 308 q 344 127 279 167 q 492 88 408 88 z "},"R":{"ha":889,"x_min":129,"x_max":814,"o":"m 246 417 l 246 0 l 129 0 l 129 969 l 515 969 q 660 938 600 969 q 753 844 721 906 q 786 694 786 783 q 736 519 786 589 q 592 428 686 450 l 814 0 l 682 0 l 472 417 l 246 417 m 246 517 l 515 517 q 594 533 561 517 q 644 580 626 549 q 661 656 661 611 l 661 728 q 644 803 661 772 q 594 851 626 835 q 515 867 561 867 l 246 867 l 246 517 z "},"S":{"ha":807,"x_min":58,"x_max":735,"o":"m 401 -17 q 201 28 285 -17 q 58 153 117 74 l 144 225 q 258 122 196 157 q 406 86 321 86 q 565 136 510 86 q 619 269 619 186 q 601 347 619 315 q 544 401 583 379 q 440 436 504 422 l 361 454 q 213 508 274 475 q 119 594 151 542 q 88 721 88 647 q 128 866 88 807 q 241 956 168 925 q 408 986 314 986 q 597 946 518 986 q 729 828 675 906 l 642 764 q 545 851 603 819 q 403 883 488 883 q 256 843 310 883 q 203 725 203 803 q 223 649 203 679 q 283 598 243 618 q 385 564 324 578 l 464 546 q 618 489 558 525 q 706 400 678 453 q 735 275 735 347 q 694 121 735 186 q 580 19 654 56 q 401 -17 506 -17 z "},"T":{"ha":794,"x_min":31,"x_max":764,"o":"m 764 867 l 456 867 l 456 0 l 339 0 l 339 867 l 31 867 l 31 969 l 764 969 l 764 867 z "},"U":{"ha":942,"x_min":122,"x_max":819,"o":"m 122 969 l 239 969 l 239 369 q 261 215 239 278 q 334 119 283 151 q 471 88 385 88 q 608 119 557 88 q 681 215 658 151 q 703 369 703 278 l 703 969 l 819 969 l 819 397 q 785 165 819 257 q 674 28 751 72 q 467 -17 596 -17 q 263 28 338 -17 q 155 165 188 72 q 122 397 122 257 l 122 969 z "},"V":{"ha":846,"x_min":28,"x_max":818,"o":"m 492 0 l 350 0 l 28 969 l 153 969 l 313 481 l 419 117 l 426 117 l 536 481 l 697 969 l 818 969 l 492 0 z "},"W":{"ha":1238,"x_min":28,"x_max":1210,"o":"m 393 0 l 264 0 l 28 969 l 151 969 l 256 503 l 336 140 l 339 140 l 429 503 l 551 969 l 685 969 l 803 503 l 893 142 l 897 142 l 981 503 l 1090 969 l 1210 969 l 961 0 l 832 0 l 706 483 l 617 839 l 614 839 l 522 483 l 393 0 z "},"X":{"ha":851,"x_min":33,"x_max":818,"o":"m 33 0 l 350 493 l 42 969 l 182 969 l 425 583 l 428 583 l 676 969 l 810 969 l 499 497 l 818 0 l 678 0 l 424 407 l 421 407 l 167 0 l 33 0 z "},"Y":{"ha":824,"x_min":18,"x_max":806,"o":"m 468 0 l 351 0 l 351 383 l 18 969 l 151 969 l 410 503 l 414 503 l 672 969 l 806 969 l 468 388 l 468 0 z "},"Z":{"ha":806,"x_min":50,"x_max":756,"o":"m 756 103 l 756 0 l 50 0 l 50 106 l 610 867 l 79 867 l 79 969 l 736 969 l 736 864 l 175 103 l 756 103 z "},"&":{"ha":964,"x_min":100,"x_max":928,"o":"m 783 0 l 681 113 l 678 113 q 622 58 658 88 q 531 6 586 28 q 397 -17 475 -17 q 235 19 301 -17 q 134 117 168 56 q 100 251 100 178 q 129 375 100 324 q 203 463 158 426 q 299 525 249 499 q 219 633 249 578 q 189 753 189 689 q 220 871 189 818 q 308 955 251 924 q 440 986 365 986 q 562 960 510 986 q 644 887 614 933 q 674 778 674 840 q 644 667 674 714 q 563 582 614 619 q 451 510 513 544 l 669 275 q 701 388 690 328 q 715 510 713 449 l 904 510 l 904 415 l 806 415 q 779 301 796 356 q 739 201 763 247 l 928 0 l 783 0 m 435 893 q 337 856 375 893 q 299 763 299 818 l 299 746 q 310 690 299 718 q 343 633 322 663 q 392 572 364 604 q 476 624 436 596 q 541 687 515 653 q 567 758 567 721 l 567 775 q 549 839 567 813 q 501 879 531 865 q 435 893 471 893 m 407 81 q 492 93 454 81 q 562 128 531 106 q 617 181 593 150 l 357 461 q 287 417 319 442 q 235 356 254 392 q 215 267 215 321 l 215 246 q 267 125 215 169 q 407 81 319 81 z "},"@":{"ha":1238,"x_min":90,"x_max":1147,"o":"m 943 -83 l 943 -168 l 621 -168 q 342 -97 461 -168 q 156 101 222 -26 q 90 400 90 229 q 158 703 90 572 q 347 909 225 835 q 633 983 469 983 q 824 953 732 983 q 988 860 915 924 q 1104 694 1061 796 q 1147 449 1147 593 q 1124 273 1147 353 q 1047 144 1100 193 q 906 96 993 96 q 806 129 840 96 q 765 215 772 163 l 760 215 q 692 128 733 160 q 588 96 651 96 q 468 129 524 96 q 379 231 413 163 q 346 401 346 299 q 379 573 346 506 q 468 674 413 640 q 588 707 524 707 q 690 676 651 707 q 746 600 728 644 l 751 600 l 751 694 l 847 694 l 847 272 q 866 199 847 218 q 924 181 885 181 q 1022 248 989 181 q 1056 431 1056 315 l 1056 494 q 999 708 1056 617 q 847 849 943 799 q 632 900 751 900 q 450 865 532 900 q 308 769 368 831 q 216 624 249 707 q 183 446 183 542 l 183 364 q 215 183 183 265 q 304 42 246 101 q 443 -51 363 -18 q 622 -83 524 -83 l 943 -83 m 607 188 q 688 203 656 188 q 735 249 719 219 q 751 321 751 279 l 751 490 q 736 554 751 526 q 689 599 721 582 q 607 615 657 615 q 498 572 533 615 q 463 457 463 529 l 463 346 q 498 231 463 274 q 607 188 533 188 z "},"-":{"ha":554,"x_min":96,"x_max":458,"o":"m 458 363 l 96 363 l 96 482 l 458 482 l 458 363 z "},"‐":{"ha":554,"x_min":96,"x_max":458,"o":"m 458 363 l 96 363 l 96 482 l 458 482 l 458 363 z "},"‑":{"ha":554,"x_min":96,"x_max":458,"o":"m 458 363 l 96 363 l 96 482 l 458 482 l 458 363 z "},"‒":{"ha":817,"x_min":50,"x_max":767,"o":"m 767 369 l 50 369 l 50 475 l 767 475 l 767 369 z "},"–":{"ha":817,"x_min":50,"x_max":767,"o":"m 767 369 l 50 369 l 50 475 l 767 475 l 767 369 z "},"—":{"ha":1083,"x_min":50,"x_max":1033,"o":"m 1033 369 l 50 369 l 50 475 l 1033 475 l 1033 369 z "},"―":{"ha":1389,"x_min":0,"x_max":1389,"o":"m 1389 369 l 0 369 l 0 475 l 1389 475 l 1389 369 z "},"_":{"ha":785,"x_min":42,"x_max":743,"o":"m 743 -229 l 42 -229 l 42 -132 l 743 -132 l 743 -229 z "},".":{"ha":378,"x_min":104,"x_max":274,"o":"m 189 -17 q 125 6 146 -17 q 104 64 104 29 l 104 82 q 125 140 104 118 q 189 163 146 163 q 253 140 233 163 q 274 82 274 118 l 274 64 q 253 6 274 29 q 189 -17 233 -17 z "},"…":{"ha":1115,"x_min":104,"x_max":1011,"o":"m 189 -17 q 125 6 146 -17 q 104 64 104 29 l 104 82 q 125 140 104 118 q 189 163 146 163 q 253 140 233 163 q 274 82 274 118 l 274 64 q 253 6 274 29 q 189 -17 233 -17 m 557 -17 q 493 6 514 -17 q 472 64 472 29 l 472 82 q 493 140 472 118 q 557 163 514 163 q 622 140 601 163 q 642 82 642 118 l 642 64 q 622 6 642 29 q 557 -17 601 -17 m 926 -17 q 863 6 883 -17 q 842 64 842 29 l 842 82 q 863 140 842 118 q 926 163 883 163 q 991 140 971 163 q 1011 82 1011 118 l 1011 64 q 991 6 1011 29 q 926 -17 971 -17 z "},":":{"ha":406,"x_min":118,"x_max":288,"o":"m 203 -17 q 139 6 160 -17 q 118 64 118 29 l 118 82 q 139 140 118 118 q 203 163 160 163 q 267 140 247 163 q 288 82 288 118 l 288 64 q 267 6 288 29 q 203 -17 247 -17 m 203 554 q 139 577 160 554 q 118 635 118 600 l 118 653 q 139 711 118 689 q 203 733 160 733 q 267 711 247 733 q 288 653 288 689 l 288 635 q 267 577 288 600 q 203 554 247 554 z "},",":{"ha":378,"x_min":54,"x_max":274,"o":"m 189 163 q 253 140 233 163 q 274 81 274 117 l 274 61 q 240 -64 274 6 q 147 -185 207 -133 l 54 -185 q 122 -101 96 -140 q 158 -12 147 -61 q 117 14 131 -6 q 104 61 104 33 l 104 81 q 125 140 104 117 q 189 163 146 163 z "},";":{"ha":406,"x_min":68,"x_max":288,"o":"m 203 163 q 267 140 247 163 q 288 81 288 117 l 288 61 q 254 -64 288 6 q 161 -185 221 -133 l 68 -185 q 135 -101 110 -140 q 172 -12 161 -61 q 131 14 144 -6 q 118 61 118 33 l 118 81 q 139 140 118 117 q 203 163 160 163 m 203 554 q 139 577 160 554 q 118 635 118 600 l 118 653 q 139 711 118 689 q 203 733 160 733 q 267 711 247 733 q 288 653 288 689 l 288 635 q 267 577 288 600 q 203 554 247 554 z "},";":{"ha":406,"x_min":68,"x_max":288,"o":"m 203 163 q 267 140 247 163 q 288 81 288 117 l 288 61 q 254 -64 288 6 q 161 -185 221 -133 l 68 -185 q 135 -101 110 -140 q 172 -12 161 -61 q 131 14 144 -6 q 118 61 118 33 l 118 81 q 139 140 118 117 q 203 163 160 163 m 203 554 q 139 577 160 554 q 118 635 118 600 l 118 653 q 139 711 118 689 q 203 733 160 733 q 267 711 247 733 q 288 653 288 689 l 288 635 q 267 577 288 600 q 203 554 247 554 z "},"'":{"ha":336,"x_min":118,"x_max":218,"o":"m 218 639 l 118 639 l 118 1028 l 218 1028 l 218 639 z "},"\"":{"ha":582,"x_min":118,"x_max":464,"o":"m 218 639 l 118 639 l 118 1028 l 218 1028 l 218 639 m 464 639 l 364 639 l 364 1028 l 464 1028 l 464 639 z "},"‘":{"ha":379,"x_min":99,"x_max":318,"o":"m 183 681 q 119 703 140 681 q 99 763 99 726 l 99 782 q 132 908 99 839 q 225 1028 165 976 l 318 1028 q 251 944 276 985 q 214 856 225 904 q 255 830 242 850 q 268 782 268 810 l 268 763 q 248 703 268 726 q 183 681 228 681 z "},"’":{"ha":379,"x_min":61,"x_max":281,"o":"m 196 1042 q 260 1019 240 1042 q 281 960 281 996 l 281 940 q 247 815 281 885 q 154 694 214 746 l 61 694 q 128 778 103 739 q 165 867 154 818 q 124 893 138 874 q 111 940 111 913 l 111 960 q 132 1019 111 996 q 196 1042 153 1042 z "},"“":{"ha":660,"x_min":99,"x_max":599,"o":"m 183 681 q 119 703 140 681 q 99 763 99 726 l 99 782 q 132 908 99 839 q 225 1028 165 976 l 318 1028 q 251 944 276 985 q 214 856 225 904 q 255 830 242 850 q 268 782 268 810 l 268 763 q 248 703 268 726 q 183 681 228 681 m 464 681 q 400 703 421 681 q 379 763 379 726 l 379 782 q 413 908 379 839 q 506 1028 446 976 l 599 1028 q 531 944 557 985 q 494 856 506 904 q 535 830 522 850 q 549 782 549 810 l 549 763 q 528 703 549 726 q 464 681 508 681 z "},"”":{"ha":658,"x_min":61,"x_max":560,"o":"m 196 1042 q 260 1019 240 1042 q 281 960 281 996 l 281 940 q 247 815 281 885 q 154 694 214 746 l 61 694 q 128 778 103 739 q 165 867 154 818 q 124 893 138 874 q 111 940 111 913 l 111 960 q 132 1019 111 996 q 196 1042 153 1042 m 475 1042 q 540 1019 519 1042 q 560 960 560 996 l 560 940 q 526 815 560 885 q 433 694 493 746 l 340 694 q 408 778 382 739 q 444 867 433 818 q 403 893 417 874 q 390 940 390 913 l 390 960 q 411 1019 390 996 q 475 1042 432 1042 z "},"‚":{"ha":381,"x_min":49,"x_max":268,"o":"m 183 186 q 248 163 228 186 q 268 104 268 140 l 268 85 q 235 -40 268 29 q 142 -161 201 -110 l 49 -161 q 116 -77 90 -117 q 153 11 142 -37 q 112 38 125 18 q 99 85 99 57 l 99 104 q 119 163 99 140 q 183 186 140 186 z "},"„":{"ha":660,"x_min":49,"x_max":547,"o":"m 183 186 q 248 163 228 186 q 268 104 268 140 l 268 85 q 235 -40 268 29 q 142 -161 201 -110 l 49 -161 q 116 -77 90 -117 q 153 11 142 -37 q 112 38 125 18 q 99 85 99 57 l 99 104 q 119 163 99 140 q 183 186 140 186 m 463 186 q 527 163 507 186 q 547 104 547 140 l 547 85 q 514 -40 547 29 q 421 -161 481 -110 l 328 -161 q 395 -77 369 -117 q 432 11 421 -37 q 391 38 404 18 q 378 85 378 57 l 378 104 q 399 163 378 140 q 463 186 419 186 z "},"‹":{"ha":422,"x_min":50,"x_max":350,"o":"m 350 186 l 317 111 l 50 342 l 50 447 l 317 678 l 350 603 l 161 396 l 161 393 l 350 186 z "},"›":{"ha":422,"x_min":72,"x_max":372,"o":"m 72 186 l 261 393 l 261 396 l 72 603 l 106 678 l 372 447 l 372 342 l 106 111 l 72 186 z "},"«":{"ha":713,"x_min":50,"x_max":640,"o":"m 350 186 l 317 111 l 50 342 l 50 447 l 317 678 l 350 603 l 161 396 l 161 393 l 350 186 m 640 186 l 607 111 l 340 342 l 340 447 l 607 678 l 640 603 l 451 396 l 451 393 l 640 186 z "},"»":{"ha":713,"x_min":72,"x_max":663,"o":"m 72 186 l 261 393 l 261 396 l 72 603 l 106 678 l 372 447 l 372 342 l 106 111 l 72 186 m 363 186 l 551 393 l 551 396 l 363 603 l 396 678 l 663 447 l 663 342 l 396 111 l 363 186 z "},"¡":{"ha":394,"x_min":113,"x_max":282,"o":"m 257 -253 l 135 -253 l 135 29 l 168 460 l 224 460 l 257 29 l 257 -253 m 197 554 q 133 576 154 554 q 113 635 113 599 l 113 653 q 133 711 113 689 q 197 733 154 733 q 262 711 242 733 q 282 653 282 689 l 282 635 q 262 576 282 599 q 197 554 242 554 z "},"!":{"ha":394,"x_min":113,"x_max":282,"o":"m 225 257 l 169 257 l 136 688 l 136 969 l 258 969 l 258 688 l 225 257 m 197 -17 q 133 6 154 -17 q 113 64 113 28 l 113 82 q 133 140 113 118 q 197 163 154 163 q 262 140 242 163 q 282 82 282 118 l 282 64 q 262 6 282 28 q 197 -17 242 -17 z "},"¿":{"ha":649,"x_min":51,"x_max":631,"o":"m 331 -269 q 183 -237 246 -269 q 85 -145 119 -204 q 51 -7 51 -86 q 90 141 51 82 q 187 233 128 200 q 307 278 246 267 l 307 428 l 414 428 l 414 200 q 235 144 300 194 q 171 7 171 94 l 171 -12 q 216 -126 171 -83 q 335 -168 261 -168 q 463 -122 415 -168 q 528 -6 511 -75 l 631 -44 q 576 -156 614 -104 q 478 -238 539 -207 q 331 -269 418 -269 m 364 554 q 300 576 321 554 q 279 635 279 599 l 279 653 q 300 711 279 689 q 364 733 321 733 q 428 711 408 733 q 449 653 449 689 l 449 635 q 428 576 449 599 q 364 554 408 554 z "},"?":{"ha":663,"x_min":32,"x_max":611,"o":"m 356 289 l 249 289 l 249 517 q 427 572 363 522 q 492 710 492 622 l 492 729 q 447 842 492 800 q 328 885 401 885 q 199 838 247 885 q 135 722 151 792 l 32 761 q 87 872 50 821 q 185 955 124 924 q 332 986 246 986 q 481 953 418 986 q 577 863 543 921 q 611 724 611 804 q 573 576 611 635 q 476 484 535 517 q 356 439 417 451 l 356 289 m 303 -17 q 239 6 260 -17 q 218 64 218 28 l 218 82 q 239 140 218 118 q 303 163 260 163 q 367 140 347 163 q 388 82 388 118 l 388 64 q 367 6 388 28 q 303 -17 347 -17 z "},"(":{"ha":465,"x_min":115,"x_max":472,"o":"m 115 433 q 149 687 115 568 q 239 901 182 806 q 367 1056 296 996 l 472 1056 q 339 892 396 986 q 251 693 282 797 q 219 492 219 589 l 219 372 q 251 170 219 275 q 340 -29 283 65 q 472 -190 397 -124 l 367 -190 q 241 -37 299 -132 q 149 178 183 57 q 115 433 115 299 z "},")":{"ha":465,"x_min":-7,"x_max":350,"o":"m 350 433 q 316 178 350 299 q 225 -37 282 57 q 99 -190 168 -132 l -7 -190 q 125 -29 68 -124 q 214 170 182 65 q 246 372 246 275 l 246 492 q 215 693 246 589 q 127 892 183 797 q -7 1056 71 986 l 99 1056 q 226 901 169 996 q 317 687 283 806 q 350 433 350 568 z "},"[":{"ha":440,"x_min":129,"x_max":357,"o":"m 357 -192 l 129 -192 l 129 1056 l 357 1056 l 357 968 l 225 968 l 225 -104 l 357 -104 l 357 -192 z "},"]":{"ha":440,"x_min":83,"x_max":311,"o":"m 83 1056 l 311 1056 l 311 -192 l 83 -192 l 83 -104 l 215 -104 l 215 968 l 83 968 l 83 1056 z "},"{":{"ha":476,"x_min":31,"x_max":393,"o":"m 393 -192 l 276 -192 q 193 -158 221 -192 q 165 -78 165 -125 l 165 256 q 127 347 165 315 q 31 378 89 378 l 31 486 q 127 517 89 486 q 165 608 165 549 l 165 942 q 193 1023 165 990 q 276 1056 221 1056 l 393 1056 l 393 968 l 261 968 l 261 621 q 244 540 261 578 q 198 476 228 501 q 129 443 168 451 l 129 421 q 198 388 168 414 q 244 325 228 363 q 261 243 261 288 l 261 -104 l 393 -104 l 393 -192 z "},"}":{"ha":476,"x_min":83,"x_max":446,"o":"m 83 1056 l 200 1056 q 283 1023 256 1056 q 311 942 311 990 l 311 608 q 349 517 311 549 q 446 486 388 486 l 446 378 q 349 347 388 378 q 311 256 311 315 l 311 -78 q 283 -158 311 -125 q 200 -192 256 -192 l 83 -192 l 83 -104 l 215 -104 l 215 243 q 232 325 215 288 q 278 388 249 363 q 347 421 308 414 l 347 443 q 278 476 308 451 q 232 540 249 501 q 215 621 215 578 l 215 968 l 83 968 l 83 1056 z "},"/":{"ha":532,"x_min":13,"x_max":475,"o":"m 113 -210 l 13 -210 l 375 1028 l 475 1028 l 113 -210 z "},"\\":{"ha":532,"x_min":56,"x_max":515,"o":"m 515 -210 l 415 -210 l 56 1028 l 156 1028 l 515 -210 z "},"⁄":{"ha":204,"x_min":-282,"x_max":486,"o":"m -189 0 l -282 0 l 393 969 l 486 969 l -189 0 z "},"∕":{"ha":204,"x_min":-282,"x_max":486,"o":"m -189 0 l -282 0 l 393 969 l 486 969 l -189 0 z "},"%":{"ha":1288,"x_min":90,"x_max":1197,"o":"m 361 0 l 254 0 l 926 969 l 1033 969 l 361 0 m 310 436 q 191 468 240 436 q 116 561 142 500 q 90 711 90 622 q 116 861 90 800 q 191 954 142 922 q 310 986 240 986 q 429 954 381 986 q 503 861 478 922 q 529 711 529 800 q 503 561 529 622 q 429 468 478 500 q 310 436 381 436 m 310 508 q 376 526 350 508 q 416 581 403 544 q 429 669 429 617 l 429 753 q 416 842 429 806 q 376 896 403 878 q 310 914 350 914 q 243 896 269 914 q 203 842 217 878 q 190 753 190 806 l 190 669 q 203 581 190 617 q 243 526 217 544 q 310 508 269 508 m 978 -17 q 859 15 908 -17 q 784 108 810 47 q 758 258 758 169 q 784 408 758 347 q 859 501 810 469 q 978 533 908 533 q 1097 501 1049 533 q 1172 408 1146 469 q 1197 258 1197 347 q 1172 108 1197 169 q 1097 15 1146 47 q 978 -17 1049 -17 m 978 56 q 1044 74 1018 56 q 1084 128 1071 92 q 1097 217 1097 164 l 1097 300 q 1084 389 1097 353 q 1044 443 1071 425 q 978 461 1018 461 q 911 443 938 461 q 872 389 885 425 q 858 300 858 353 l 858 217 q 872 128 858 164 q 911 74 885 92 q 978 56 938 56 z "},"‰":{"ha":1814,"x_min":90,"x_max":1724,"o":"m 361 0 l 254 0 l 926 969 l 1033 969 l 361 0 m 310 436 q 191 468 240 436 q 116 561 142 500 q 90 711 90 622 q 116 861 90 800 q 191 954 142 922 q 310 986 240 986 q 429 954 381 986 q 503 861 478 922 q 529 711 529 800 q 503 561 529 622 q 429 468 478 500 q 310 436 381 436 m 310 508 q 376 526 350 508 q 416 581 403 544 q 429 669 429 617 l 429 753 q 416 842 429 806 q 376 896 403 878 q 310 914 350 914 q 243 896 269 914 q 203 842 217 878 q 190 753 190 806 l 190 669 q 203 581 190 617 q 243 526 217 544 q 310 508 269 508 m 978 -17 q 859 15 908 -17 q 784 108 810 47 q 758 258 758 169 q 784 408 758 347 q 859 501 810 469 q 978 533 908 533 q 1097 501 1049 533 q 1172 408 1146 469 q 1197 258 1197 347 q 1172 108 1197 169 q 1097 15 1146 47 q 978 -17 1049 -17 m 978 56 q 1044 74 1018 56 q 1084 128 1071 92 q 1097 217 1097 164 l 1097 300 q 1084 389 1097 353 q 1044 443 1071 425 q 978 461 1018 461 q 911 443 938 461 q 872 389 885 425 q 858 300 858 353 l 858 217 q 872 128 858 164 q 911 74 885 92 q 978 56 938 56 m 1504 -17 q 1385 15 1435 -17 q 1310 108 1336 47 q 1285 258 1285 169 q 1310 408 1285 347 q 1385 501 1336 469 q 1504 533 1435 533 q 1624 501 1575 533 q 1698 408 1672 469 q 1724 258 1724 347 q 1698 108 1724 169 q 1624 15 1672 47 q 1504 -17 1575 -17 m 1504 56 q 1571 74 1544 56 q 1610 128 1597 92 q 1624 217 1624 164 l 1624 300 q 1610 389 1624 353 q 1571 443 1597 425 q 1504 461 1544 461 q 1438 443 1464 461 q 1398 389 1411 425 q 1385 300 1385 353 l 1385 217 q 1398 128 1385 164 q 1438 74 1411 92 q 1504 56 1464 56 z "},"|":{"ha":436,"x_min":171,"x_max":265,"o":"m 265 -192 l 171 -192 l 171 1056 l 265 1056 l 265 -192 z "},"¦":{"ha":436,"x_min":171,"x_max":265,"o":"m 265 564 l 171 564 l 171 1056 l 265 1056 l 265 564 m 265 -192 l 171 -192 l 171 300 l 265 300 l 265 -192 z "},"§":{"ha":814,"x_min":106,"x_max":708,"o":"m 660 6 q 625 -112 660 -62 q 528 -188 590 -161 q 385 -215 467 -215 q 262 -197 322 -215 q 153 -137 201 -179 l 217 -60 q 292 -103 250 -87 q 386 -119 335 -119 q 507 -86 464 -119 q 550 3 550 -53 q 533 63 550 38 q 483 106 515 88 q 406 138 451 124 l 318 164 q 197 218 244 186 q 128 290 150 250 q 106 376 106 331 q 145 494 106 443 q 257 575 185 546 l 257 585 q 183 660 211 615 q 154 767 154 706 q 188 883 154 833 q 284 959 222 932 q 428 986 346 986 q 551 968 490 986 q 661 908 613 950 l 596 831 q 521 874 563 858 q 426 890 479 890 q 306 858 350 890 q 263 768 263 825 q 280 708 263 733 q 330 665 297 683 q 407 633 363 647 l 494 607 q 617 553 569 585 q 686 481 664 521 q 708 394 708 442 q 669 276 708 328 q 556 196 629 225 l 556 188 q 633 111 606 157 q 660 6 660 65 m 599 365 q 581 433 599 404 q 528 484 564 463 q 436 521 492 506 l 350 544 q 328 551 339 547 q 306 560 317 556 q 240 492 264 531 q 215 406 215 454 q 254 310 215 347 q 376 250 293 274 l 463 226 q 485 219 474 224 q 507 211 497 215 q 574 279 549 242 q 599 365 599 317 z "},"¶":{"ha":906,"x_min":72,"x_max":792,"o":"m 342 -207 l 342 417 q 206 455 267 417 q 108 556 144 493 q 72 693 72 618 q 108 831 72 768 q 206 932 144 894 q 342 969 267 969 l 792 969 l 792 875 l 699 875 l 699 -207 l 597 -207 l 597 875 l 443 875 l 443 -207 l 342 -207 z "},"©":{"ha":1078,"x_min":75,"x_max":1003,"o":"m 539 -15 q 304 46 410 -15 q 137 219 199 107 q 75 485 75 331 q 137 751 75 639 q 304 924 199 864 q 539 985 410 985 q 774 924 669 985 q 941 751 879 864 q 1003 485 1003 639 q 941 219 1003 331 q 774 46 879 107 q 539 -15 669 -15 m 539 68 q 731 117 647 68 q 861 250 814 165 q 908 443 908 335 l 908 526 q 861 719 908 635 q 731 853 814 804 q 539 901 647 901 q 347 853 431 901 q 217 719 264 804 q 169 526 169 635 l 169 443 q 217 250 169 335 q 347 117 264 165 q 539 68 431 68 m 550 215 q 381 289 442 215 q 321 485 321 363 q 381 681 321 608 q 550 754 442 754 q 665 721 619 754 q 735 633 711 688 l 656 589 q 615 646 640 625 q 550 667 590 667 q 458 628 490 667 q 426 529 426 590 l 426 439 q 458 340 426 379 q 550 301 490 301 q 621 324 594 301 q 668 385 647 347 l 743 338 q 672 250 719 285 q 550 215 624 215 z "},"®":{"ha":661,"x_min":56,"x_max":606,"o":"m 331 414 q 193 451 256 414 q 93 554 131 489 q 56 700 56 619 q 93 847 56 782 q 193 949 131 911 q 331 986 256 986 q 468 949 406 986 q 568 847 531 911 q 606 700 606 782 q 568 554 606 619 q 468 451 531 489 q 331 414 406 414 m 331 469 q 442 500 394 469 q 518 580 490 531 q 546 685 546 629 l 546 715 q 518 820 546 771 q 442 900 490 869 q 331 931 394 931 q 219 900 268 931 q 143 820 171 869 q 115 715 115 771 l 115 685 q 143 580 115 629 q 219 500 171 531 q 331 469 268 469 m 282 661 l 282 550 l 226 550 l 226 840 l 351 840 q 417 816 393 840 q 440 753 440 792 q 425 699 440 719 q 386 668 410 678 l 454 550 l 392 550 l 331 661 l 282 661 m 282 706 l 349 706 q 372 713 364 706 q 381 735 381 721 l 381 765 q 372 787 381 779 q 349 794 364 794 l 282 794 l 282 706 z "},"™":{"ha":914,"x_min":44,"x_max":800,"o":"m 239 582 l 169 582 l 169 907 l 44 907 l 44 969 l 363 969 l 363 907 l 239 907 l 239 582 m 500 582 l 435 582 l 435 969 l 522 969 l 618 785 l 622 785 l 717 969 l 800 969 l 800 582 l 736 582 l 736 757 l 739 872 l 733 872 l 618 657 l 503 872 l 497 872 l 500 757 l 500 582 z "},"ª":{"ha":554,"x_min":56,"x_max":500,"o":"m 500 564 l 500 486 l 453 486 q 390 505 413 486 q 367 565 367 524 l 367 586 l 394 560 l 361 560 q 308 503 346 528 q 207 478 271 478 q 95 516 135 478 q 56 614 56 554 q 110 723 56 688 q 263 758 164 758 l 361 758 l 361 797 q 335 879 361 853 q 257 906 308 906 q 178 885 210 906 q 131 833 146 865 l 72 881 q 139 947 93 917 q 261 978 185 978 q 398 932 347 978 q 449 801 449 886 l 449 564 l 500 564 m 361 694 l 260 694 q 174 678 204 694 q 143 629 143 661 l 143 615 q 165 565 143 581 q 226 549 186 549 q 320 573 279 549 q 361 638 361 597 l 361 694 z "},"º":{"ha":553,"x_min":61,"x_max":492,"o":"m 276 478 q 118 544 175 478 q 61 728 61 611 q 118 911 61 844 q 276 978 175 978 q 435 911 378 978 q 492 728 492 844 q 435 544 492 611 q 276 478 378 478 m 276 550 q 367 588 338 550 q 397 685 397 625 l 397 771 q 367 868 397 831 q 276 906 338 906 q 186 868 217 906 q 156 771 156 831 l 156 685 q 186 588 156 625 q 276 550 217 550 z "},"°":{"ha":650,"x_min":92,"x_max":558,"o":"m 325 508 q 206 540 260 508 q 122 625 153 571 q 92 747 92 679 q 122 869 92 815 q 206 955 153 924 q 325 986 260 986 q 444 955 392 986 q 528 869 497 924 q 558 747 558 815 q 528 625 558 679 q 444 540 497 571 q 325 508 392 508 m 325 597 q 397 617 367 597 q 444 672 428 638 q 461 747 461 706 q 444 823 461 789 q 397 877 428 857 q 325 897 367 897 q 253 877 283 897 q 206 823 222 857 q 189 747 189 789 q 206 672 189 706 q 253 617 222 638 q 325 597 283 597 z "},"′":{"ha":336,"x_min":78,"x_max":258,"o":"m 181 525 l 78 525 l 156 969 l 258 969 l 181 525 z "},"″":{"ha":582,"x_min":78,"x_max":504,"o":"m 181 525 l 78 525 l 156 969 l 258 969 l 181 525 m 426 525 l 324 525 l 401 969 l 504 969 l 426 525 z "},"*":{"ha":625,"x_min":50,"x_max":575,"o":"m 264 1038 l 361 1038 l 353 838 l 356 835 l 544 904 l 575 811 l 381 758 l 379 754 l 504 596 l 426 539 l 314 708 l 311 708 l 199 539 l 121 596 l 246 754 l 244 758 l 50 811 l 81 904 l 269 835 l 272 838 l 264 1038 z "},"†":{"ha":767,"x_min":69,"x_max":697,"o":"m 432 -278 l 335 -278 l 335 628 l 69 628 l 69 717 l 335 717 l 335 1028 l 432 1028 l 432 717 l 697 717 l 697 628 l 432 628 l 432 -278 z "},"‡":{"ha":767,"x_min":69,"x_max":697,"o":"m 432 -278 l 335 -278 l 335 33 l 69 33 l 69 122 l 335 122 l 335 628 l 69 628 l 69 717 l 335 717 l 335 1028 l 432 1028 l 432 717 l 697 717 l 697 628 l 432 628 l 432 122 l 697 122 l 697 33 l 432 33 l 432 -278 z "},"#":{"ha":990,"x_min":83,"x_max":899,"o":"m 514 0 l 564 285 l 350 285 l 300 0 l 211 0 l 261 285 l 83 285 l 83 368 l 275 368 l 314 601 l 138 601 l 138 685 l 329 685 l 378 969 l 467 969 l 418 685 l 632 685 l 681 969 l 769 969 l 721 685 l 899 685 l 899 601 l 706 601 l 667 368 l 844 368 l 844 285 l 653 285 l 603 0 l 514 0 m 364 368 l 578 368 l 617 601 l 403 601 l 364 368 z "},"^":{"ha":833,"x_min":69,"x_max":764,"o":"m 764 456 l 679 411 l 419 867 l 414 867 l 154 411 l 69 456 l 357 969 l 476 969 l 764 456 z "},"~":{"ha":833,"x_min":85,"x_max":749,"o":"m 582 328 q 491 342 531 328 q 403 379 451 357 q 326 413 364 399 q 246 426 289 426 q 187 416 211 426 q 131 382 163 406 l 85 443 q 151 499 113 478 q 251 519 189 519 q 343 506 303 519 q 431 468 383 492 q 507 435 469 450 q 588 421 544 421 q 647 432 622 421 q 703 465 672 443 l 749 404 q 683 349 721 369 q 582 328 644 328 z "},"+":{"ha":833,"x_min":93,"x_max":740,"o":"m 469 86 l 364 86 l 364 376 l 93 376 l 93 471 l 364 471 l 364 761 l 469 761 l 469 471 l 740 471 l 740 376 l 469 376 l 469 86 z "},"−":{"ha":833,"x_min":93,"x_max":740,"o":"m 740 376 l 93 376 l 93 471 l 740 471 l 740 376 z "},"±":{"ha":833,"x_min":93,"x_max":740,"o":"m 469 211 l 364 211 l 364 488 l 93 488 l 93 582 l 364 582 l 364 858 l 469 858 l 469 582 l 740 582 l 740 488 l 469 488 l 469 211 m 740 0 l 93 0 l 93 94 l 740 94 l 740 0 z "},"×":{"ha":833,"x_min":128,"x_max":706,"o":"m 638 129 l 417 356 l 196 129 l 128 197 l 349 424 l 128 650 l 196 718 l 417 492 l 638 718 l 706 650 l 485 424 l 706 197 l 638 129 z "},"÷":{"ha":833,"x_min":93,"x_max":740,"o":"m 740 376 l 93 376 l 93 471 l 740 471 l 740 376 m 417 72 q 350 92 369 72 q 331 139 331 111 l 331 169 q 350 217 331 197 q 417 236 369 236 q 484 217 465 236 q 503 169 503 197 l 503 139 q 484 92 503 111 q 417 72 465 72 m 417 611 q 350 631 369 611 q 331 678 331 650 l 331 708 q 350 756 331 736 q 417 775 369 775 q 484 756 465 775 q 503 708 503 736 l 503 678 q 484 631 503 650 q 417 611 465 611 z "},"=":{"ha":833,"x_min":93,"x_max":740,"o":"m 740 517 l 93 517 l 93 611 l 740 611 l 740 517 m 740 239 l 93 239 l 93 333 l 740 333 l 740 239 z "},"≈":{"ha":833,"x_min":85,"x_max":749,"o":"m 582 467 q 491 481 531 467 q 403 518 451 496 q 326 551 364 538 q 246 565 289 565 q 187 555 211 565 q 131 521 163 544 l 85 582 q 151 638 113 617 q 251 658 189 658 q 343 644 303 658 q 431 607 383 631 q 507 574 469 589 q 588 560 544 560 q 647 571 622 560 q 703 604 672 582 l 749 543 q 683 488 721 508 q 582 467 644 467 m 582 190 q 491 205 531 190 q 403 242 451 219 q 326 275 364 261 q 246 289 289 289 q 187 278 211 289 q 131 244 163 268 l 85 306 q 151 361 113 340 q 251 382 189 382 q 343 368 303 382 q 431 331 383 354 q 507 298 469 313 q 588 283 544 283 q 647 294 622 283 q 703 328 672 306 l 749 267 q 683 211 721 232 q 582 190 644 190 z "},"≠":{"ha":833,"x_min":93,"x_max":740,"o":"m 293 100 l 193 100 l 268 239 l 93 239 l 93 333 l 319 333 l 415 517 l 93 517 l 93 611 l 467 611 l 540 750 l 640 750 l 565 611 l 740 611 l 740 517 l 514 517 l 418 333 l 740 333 l 740 239 l 367 239 l 293 100 z "},"<":{"ha":833,"x_min":125,"x_max":708,"o":"m 708 -17 l 125 329 l 125 440 l 708 786 l 708 669 l 229 390 l 229 379 l 708 100 l 708 -17 z "},">":{"ha":833,"x_min":125,"x_max":708,"o":"m 125 -17 l 125 100 l 604 379 l 604 390 l 125 669 l 125 786 l 708 440 l 708 329 l 125 -17 z "},"≤":{"ha":833,"x_min":125,"x_max":708,"o":"m 708 0 l 125 0 l 125 94 l 708 94 l 708 0 m 708 821 l 708 710 l 231 500 l 231 490 l 708 281 l 708 168 l 125 433 l 125 557 l 708 821 z "},"≥":{"ha":833,"x_min":125,"x_max":708,"o":"m 125 168 l 125 281 l 603 490 l 603 500 l 125 710 l 125 821 l 708 557 l 708 433 l 125 168 m 125 0 l 125 94 l 708 94 l 708 0 l 125 0 z "},"∙":{"ha":453,"x_min":142,"x_max":311,"o":"m 226 333 q 163 356 183 333 q 142 414 142 379 l 142 432 q 163 490 142 468 q 226 513 183 513 q 291 490 271 513 q 311 432 311 468 l 311 414 q 291 356 311 379 q 226 333 271 333 z "},"·":{"ha":453,"x_min":142,"x_max":311,"o":"m 226 333 q 163 356 183 333 q 142 414 142 379 l 142 432 q 163 490 142 468 q 226 513 183 513 q 291 490 271 513 q 311 432 311 468 l 311 414 q 291 356 311 379 q 226 333 271 333 z "},"·":{"ha":406,"x_min":118,"x_max":288,"o":"m 203 554 q 139 577 160 554 q 118 635 118 600 l 118 653 q 139 711 118 689 q 203 733 160 733 q 267 711 247 733 q 288 653 288 689 l 288 635 q 267 577 288 600 q 203 554 247 554 z "},"•":{"ha":550,"x_min":106,"x_max":444,"o":"m 275 258 q 144 300 182 258 q 106 403 106 342 l 106 442 q 144 544 106 503 q 275 586 182 586 q 406 544 368 586 q 444 442 444 503 l 444 403 q 406 300 444 342 q 275 258 368 258 z "},"∶":{"ha":406,"x_min":118,"x_max":288,"o":"m 203 164 q 139 187 160 164 q 118 244 118 210 l 118 263 q 139 321 118 299 q 203 343 160 343 q 267 321 247 343 q 288 263 288 299 l 288 244 q 267 187 288 210 q 203 164 247 164 m 203 626 q 139 649 160 626 q 118 707 118 672 l 118 725 q 139 783 118 761 q 203 806 160 806 q 267 783 247 806 q 288 725 288 761 l 288 707 q 267 649 288 672 q 203 626 247 626 z "},"◊":{"ha":833,"x_min":65,"x_max":769,"o":"m 472 0 l 363 0 l 65 485 l 363 969 l 472 969 l 769 485 l 472 0 m 413 104 l 422 104 l 653 485 l 422 865 l 413 865 l 182 485 l 413 104 z "},"¬":{"ha":833,"x_min":93,"x_max":740,"o":"m 740 108 l 644 108 l 644 376 l 93 376 l 93 471 l 740 471 l 740 108 z "},"√":{"ha":833,"x_min":40,"x_max":788,"o":"m 508 0 l 351 0 l 178 628 l 40 628 l 40 717 l 263 717 l 325 486 l 429 93 l 436 93 l 544 486 l 679 969 l 788 969 l 508 0 z "},"∫":{"ha":592,"x_min":69,"x_max":522,"o":"m 69 -278 l 69 -181 l 240 -181 l 240 864 q 278 983 240 938 q 397 1028 317 1028 l 522 1028 l 522 931 l 351 931 l 351 -114 q 313 -232 351 -186 q 194 -278 275 -278 l 69 -278 z "},"∞":{"ha":1028,"x_min":22,"x_max":1006,"o":"m 269 160 q 138 194 193 160 q 52 288 82 228 q 22 424 22 347 q 52 560 22 500 q 138 653 82 619 q 269 688 193 688 q 442 640 379 688 q 538 493 504 592 l 544 493 q 589 604 558 561 q 663 667 619 647 q 758 688 707 688 q 890 653 835 688 q 976 560 946 619 q 1006 424 1006 500 q 976 288 1006 347 q 890 194 946 228 q 758 160 835 160 q 586 208 649 160 q 490 354 524 257 l 483 354 q 439 243 469 286 q 365 180 408 200 q 269 160 322 160 m 269 254 q 385 294 338 254 q 457 424 433 333 q 385 553 433 514 q 269 593 338 593 q 173 556 210 593 q 136 458 136 519 l 136 389 q 173 292 136 329 q 269 254 210 254 m 758 254 q 856 292 819 254 q 892 389 892 329 l 892 458 q 856 556 892 519 q 758 593 819 593 q 642 553 690 593 q 571 424 594 514 q 642 294 594 333 q 758 254 690 254 z "},"℮":{"ha":1008,"x_min":50,"x_max":958,"o":"m 250 485 l 250 151 q 317 101 279 124 q 402 67 356 79 q 504 54 449 54 q 651 80 588 54 q 763 153 715 106 q 843 261 810 200 l 907 226 q 814 101 871 157 q 680 15 757 46 q 504 -17 603 -17 q 271 45 374 -17 q 109 219 168 107 q 50 485 50 332 q 109 750 50 638 q 271 924 168 863 q 504 986 374 986 q 738 924 635 986 q 899 750 840 863 q 958 485 958 638 l 250 485 m 250 551 l 758 551 l 758 822 q 691 872 729 850 q 606 907 653 894 q 504 919 560 919 q 402 907 449 919 q 317 872 356 894 q 250 822 279 850 l 250 551 z "},"ℓ":{"ha":678,"x_min":47,"x_max":638,"o":"m 378 -17 q 263 13 310 -17 q 193 97 217 43 q 169 221 169 151 l 169 235 q 132 208 151 221 q 93 182 113 194 l 47 257 q 108 297 76 276 q 167 339 139 317 l 167 779 q 192 937 167 879 q 261 1019 217 994 q 361 1044 306 1044 q 506 985 457 1044 q 556 811 556 925 q 523 636 556 719 q 428 472 490 553 q 274 308 365 392 l 274 247 q 303 119 274 157 q 388 81 333 81 q 460 99 429 81 q 515 151 492 118 q 558 226 539 185 l 638 178 q 578 79 614 124 q 493 9 543 35 q 378 -17 443 -17 m 365 951 q 300 917 326 951 q 274 789 274 883 l 274 428 q 372 551 332 489 q 432 674 411 613 q 453 797 453 736 l 453 821 q 429 922 453 892 q 365 951 406 951 z "},"№":{"ha":1426,"x_min":129,"x_max":1365,"o":"m 1143 506 q 985 569 1050 506 q 921 746 921 632 q 985 924 921 861 q 1143 986 1050 986 q 1301 924 1238 986 q 1365 746 1365 861 q 1301 569 1365 632 q 1143 506 1238 506 m 238 0 l 129 0 l 129 969 l 257 969 l 568 407 l 703 161 l 707 161 l 707 407 l 707 969 l 815 969 l 815 0 l 685 0 l 357 582 l 242 797 l 238 797 l 238 582 l 238 0 m 1143 579 q 1234 617 1200 579 q 1268 707 1268 654 l 1268 785 q 1253 849 1268 821 q 1210 895 1238 878 q 1143 913 1182 913 q 1077 895 1106 913 q 1033 849 1049 878 q 1018 785 1018 821 l 1018 707 q 1052 617 1018 654 q 1143 579 1086 579 m 1333 338 l 953 338 l 953 429 l 1333 429 l 1333 338 z "},"∂":{"ha":821,"x_min":88,"x_max":726,"o":"m 726 374 q 688 155 726 242 q 578 26 649 68 q 411 -17 508 -17 q 174 81 260 -17 q 88 342 88 178 q 126 531 88 451 q 233 656 164 611 q 393 700 301 700 q 496 680 454 700 q 568 624 538 660 l 572 626 q 492 755 550 693 q 358 872 435 817 q 196 969 281 926 l 371 969 q 480 894 419 940 q 597 777 540 847 q 690 608 653 707 q 726 374 726 508 m 407 79 q 513 103 468 79 q 583 174 558 126 q 608 293 608 222 l 608 390 q 583 510 608 463 q 513 581 558 557 q 407 604 468 604 q 301 581 347 604 q 231 510 256 557 q 206 390 206 463 l 206 293 q 231 174 206 222 q 301 103 256 126 q 407 79 347 79 z "},"¤":{"ha":850,"x_min":25,"x_max":825,"o":"m 425 165 q 318 181 367 165 q 233 228 269 197 l 92 86 l 25 151 l 172 299 q 139 384 150 338 q 128 485 128 431 q 139 585 128 539 q 172 671 150 632 l 25 818 l 92 883 l 233 742 q 318 788 269 772 q 425 804 367 804 q 532 788 483 804 q 617 742 581 772 l 758 883 l 825 818 l 678 671 q 711 585 700 632 q 722 485 722 539 q 711 384 722 431 q 678 299 700 338 l 825 151 l 758 86 l 617 228 q 532 181 581 197 q 425 165 483 165 m 425 258 q 555 303 506 258 q 604 440 604 349 l 604 529 q 555 666 604 621 q 425 711 506 711 q 295 666 344 711 q 246 529 246 621 l 246 440 q 295 303 246 349 q 425 258 344 258 z "},"¢":{"ha":714,"x_min":65,"x_max":661,"o":"m 424 -158 l 326 -158 l 326 -12 q 133 104 201 6 q 65 358 65 203 q 134 613 65 515 q 326 729 203 711 l 326 875 l 424 875 l 424 732 q 566 680 510 725 q 651 568 622 635 l 563 519 q 509 597 544 568 q 422 633 474 626 l 422 83 q 516 121 476 90 q 581 206 556 151 l 661 151 q 571 37 631 82 q 424 -15 511 -8 l 424 -158 m 185 297 q 221 160 185 218 q 328 88 257 103 l 328 629 q 221 558 257 615 q 185 419 185 500 l 185 297 z "},"€":{"ha":868,"x_min":81,"x_max":807,"o":"m 469 -17 q 260 41 347 -17 q 127 210 174 99 q 81 485 81 322 q 127 759 81 647 q 260 928 174 871 q 469 986 347 986 q 613 961 550 986 q 723 888 676 936 q 800 774 769 840 l 710 718 q 619 838 681 792 q 469 883 558 883 q 291 817 358 883 q 207 644 224 751 l 564 644 l 564 551 l 201 551 q 201 485 201 518 q 201 418 201 451 l 564 418 l 564 325 l 207 325 q 292 152 225 218 q 469 86 360 86 q 624 135 561 86 q 717 263 686 185 l 807 203 q 733 90 778 140 q 623 12 688 40 q 469 -17 558 -17 z "},"ƒ":{"ha":674,"x_min":-4,"x_max":640,"o":"m -4 -186 l 6 -89 l 207 -89 l 258 418 l 60 418 l 71 519 l 268 519 l 297 806 q 348 924 304 879 q 472 969 392 969 l 640 969 l 629 872 l 417 872 l 381 519 l 615 519 l 606 418 l 371 418 l 326 -22 q 276 -140 319 -94 q 151 -186 233 -186 l -4 -186 z "},"£":{"ha":826,"x_min":83,"x_max":756,"o":"m 729 0 l 114 0 l 114 139 q 193 217 172 164 q 214 329 214 271 q 213 365 214 347 q 208 397 211 382 l 83 397 l 83 494 l 182 494 q 153 589 167 542 q 139 693 139 636 q 177 845 139 779 q 287 949 215 911 q 458 986 358 986 q 637 944 565 986 q 756 828 708 901 l 668 764 q 582 851 633 819 q 454 883 531 883 q 313 833 365 883 q 260 682 260 783 q 272 584 260 629 q 299 494 285 539 l 599 494 l 599 397 l 324 397 q 327 370 326 383 q 328 342 328 357 q 297 201 328 264 q 224 111 265 139 l 224 104 l 729 104 l 729 0 z "},"$":{"ha":831,"x_min":72,"x_max":749,"o":"m 461 -114 l 375 -114 l 375 47 l 376 61 l 376 908 l 375 922 l 375 1083 l 461 1083 l 461 922 l 460 908 l 460 61 l 461 47 l 461 -114 m 418 -3 q 273 19 339 -3 q 157 80 207 42 q 72 165 107 118 l 154 239 q 224 165 185 197 q 313 114 264 132 q 418 96 363 96 q 532 117 482 96 q 610 178 582 139 q 639 271 639 217 q 620 351 639 318 q 561 406 601 383 q 456 440 521 428 l 381 456 q 224 510 286 475 q 131 597 161 544 q 101 719 101 649 q 140 852 101 796 q 252 940 179 908 q 426 972 325 972 q 615 928 536 972 q 743 814 693 883 l 658 750 q 565 836 624 799 q 422 874 506 874 q 265 832 319 874 q 211 728 211 790 q 232 645 211 678 q 294 593 253 613 q 392 561 335 574 l 467 544 q 629 488 567 522 q 720 402 692 453 q 749 278 749 351 q 706 128 749 192 q 590 31 664 65 q 418 -3 515 -3 z "},"¥":{"ha":840,"x_min":47,"x_max":793,"o":"m 722 201 l 478 201 l 478 0 l 363 0 l 363 201 l 118 201 l 118 294 l 363 294 l 363 428 l 118 428 l 118 521 l 307 521 l 47 969 l 178 969 l 421 532 l 428 532 l 664 969 l 793 969 l 533 521 l 722 521 l 722 428 l 478 428 l 478 294 l 722 294 l 722 201 z "},"฿":{"ha":894,"x_min":129,"x_max":807,"o":"m 482 29 l 482 -114 l 396 -114 l 396 29 l 129 29 l 129 940 l 396 940 l 396 1083 l 482 1083 l 482 940 l 515 940 q 703 876 635 940 q 772 706 772 813 q 724 567 772 613 q 610 511 675 522 l 610 503 q 701 476 656 496 q 776 413 746 456 q 807 293 807 369 q 774 158 807 218 q 684 64 740 99 q 556 29 628 29 l 482 29 m 244 546 l 397 546 l 397 838 l 244 838 l 244 546 m 481 838 l 481 546 l 518 546 q 619 577 588 546 q 651 671 651 608 l 651 713 q 619 806 651 775 q 518 838 588 838 l 481 838 m 244 132 l 397 132 l 397 450 l 244 450 l 244 132 m 481 450 l 481 132 l 524 132 q 610 147 574 132 q 666 192 646 161 q 686 267 686 222 l 686 315 q 666 391 686 361 q 610 435 646 421 q 524 450 574 450 l 481 450 z "},"₡":{"ha":872,"x_min":81,"x_max":811,"o":"m 354 -114 l 260 -114 l 278 56 l 282 69 l 368 900 l 367 914 l 385 1083 l 479 1083 l 461 914 l 457 900 l 371 69 l 372 56 l 354 -114 m 521 -114 l 426 -114 l 444 56 l 449 69 l 535 900 l 533 914 l 551 1083 l 646 1083 l 628 914 l 624 900 l 538 69 l 539 56 l 521 -114 m 81 485 q 126 756 81 647 q 258 918 171 864 q 468 972 344 972 q 622 946 557 972 q 731 873 686 919 q 804 763 776 826 l 710 706 q 663 788 693 751 q 584 847 632 825 q 468 869 536 869 q 324 831 383 869 q 235 724 265 793 q 206 564 206 656 l 206 407 q 222 284 206 340 q 270 187 238 228 q 352 124 303 146 q 468 101 401 101 q 628 150 568 101 q 718 276 689 199 l 811 218 q 738 106 782 156 q 628 26 693 56 q 468 -3 563 -3 q 316 23 386 -3 q 193 106 246 49 q 110 256 140 163 q 81 485 81 349 z "},"₤":{"ha":826,"x_min":83,"x_max":756,"o":"m 729 104 l 729 0 l 114 0 l 114 139 q 177 188 156 157 q 206 258 199 219 q 214 338 214 297 q 203 426 214 383 q 176 513 192 469 q 150 600 161 556 q 139 693 139 644 q 177 845 139 779 q 287 949 215 911 q 458 986 358 986 q 637 944 565 986 q 756 828 708 901 l 668 764 q 582 851 633 819 q 454 883 531 883 q 313 833 365 883 q 260 682 260 783 q 270 592 260 635 q 294 510 281 550 q 317 430 307 469 q 328 349 328 390 q 299 206 328 268 q 224 111 269 144 l 224 104 l 729 104 m 83 546 l 83 639 l 599 639 l 599 546 l 83 546 m 83 331 l 83 424 l 599 424 l 599 331 l 83 331 z "},"₦":{"ha":967,"x_min":21,"x_max":946,"o":"m 697 0 l 503 329 l 246 329 l 246 0 l 132 0 l 132 325 l 21 325 l 21 418 l 132 418 l 132 551 l 21 551 l 21 644 l 132 644 l 132 969 l 264 969 l 457 640 l 721 640 l 721 969 l 835 969 l 835 644 l 946 644 l 946 551 l 835 551 l 835 418 l 946 418 l 946 325 l 835 325 l 835 0 l 697 0 m 246 414 l 461 414 l 363 588 l 250 788 l 246 788 l 246 588 l 246 414 m 499 556 l 604 367 l 717 167 l 721 167 l 721 367 l 721 556 l 499 556 z "},"₨":{"ha":990,"x_min":129,"x_max":949,"o":"m 240 0 l 129 0 l 129 969 l 369 969 q 556 901 493 969 q 618 710 618 833 q 581 553 618 615 q 468 467 544 490 l 603 183 q 658 103 629 129 q 739 76 688 76 q 817 99 789 76 q 844 167 844 122 q 839 202 844 188 q 817 235 833 217 q 769 285 801 253 l 743 311 q 663 412 685 369 q 642 501 642 454 q 685 617 642 571 q 810 663 729 663 q 881 654 846 663 q 949 622 917 646 l 904 543 q 864 566 886 558 q 815 574 842 574 q 764 555 782 574 q 746 503 746 536 q 762 446 746 471 q 819 379 778 421 l 840 358 q 906 288 883 317 q 939 231 929 258 q 949 167 949 204 q 925 71 949 113 q 853 6 901 29 q 729 -17 804 -17 q 634 -2 676 -17 q 560 44 592 13 q 503 131 528 76 l 361 447 l 240 447 l 240 0 m 240 544 l 358 544 q 466 578 428 544 q 504 675 504 611 l 504 739 q 466 836 504 803 q 358 869 428 869 l 240 869 l 240 544 z "},"₩":{"ha":1322,"x_min":51,"x_max":1271,"o":"m 874 0 l 788 331 l 522 331 l 435 0 l 308 0 l 231 326 l 51 326 l 51 419 l 208 419 l 178 551 l 51 551 l 51 644 l 156 644 l 78 969 l 193 969 l 267 640 l 507 640 l 593 969 l 726 969 l 810 640 l 1056 640 l 1132 969 l 1249 969 l 1165 644 l 1271 644 l 1271 551 l 1142 551 l 1108 419 l 1271 419 l 1271 326 l 1085 326 l 1000 0 l 874 0 m 381 140 l 471 503 l 483 556 l 286 556 l 297 503 l 378 140 l 381 140 m 935 142 l 939 142 l 1022 503 l 1035 556 l 832 556 l 844 503 l 935 142 m 564 483 l 546 415 l 765 415 l 747 483 l 658 849 l 656 849 l 564 483 z "},"₪":{"ha":1069,"x_min":129,"x_max":940,"o":"m 363 0 l 363 750 l 474 750 l 474 97 l 682 97 q 753 111 719 97 q 808 159 788 125 q 829 253 829 193 l 829 969 l 940 969 l 940 275 q 867 68 940 136 q 682 0 794 0 l 363 0 m 240 0 l 129 0 l 129 969 l 451 969 q 635 901 564 969 q 707 694 707 833 l 707 219 l 596 219 l 596 717 q 575 811 596 778 q 522 858 554 844 q 450 872 489 872 l 240 872 l 240 0 z "},"₫":{"ha":806,"x_min":99,"x_max":744,"o":"m 544 194 l 544 290 l 539 290 q 461 210 510 239 q 343 182 413 182 q 165 260 231 182 q 99 481 99 338 q 165 702 99 625 q 343 779 231 779 q 461 751 413 779 q 539 669 510 722 l 544 669 l 544 860 l 338 860 l 338 944 l 544 944 l 544 1028 l 650 1028 l 650 944 l 744 944 l 744 860 l 650 860 l 650 194 l 544 194 m 382 271 q 465 287 429 271 q 523 332 501 303 q 544 400 544 361 l 544 561 q 523 629 544 600 q 465 674 501 658 q 382 690 429 690 q 258 646 306 690 q 211 528 211 601 l 211 433 q 258 316 211 361 q 382 271 306 271 m 692 0 l 99 0 l 99 93 l 692 93 l 692 0 z "},"₭":{"ha":857,"x_min":14,"x_max":819,"o":"m 246 454 l 246 0 l 132 0 l 132 454 l 14 454 l 14 550 l 132 550 l 132 969 l 246 969 l 246 550 l 357 550 l 668 969 l 797 969 l 549 643 l 478 550 l 775 550 l 775 454 l 486 454 l 554 361 l 819 0 l 681 0 l 360 454 l 246 454 z "},"₮":{"ha":844,"x_min":56,"x_max":789,"o":"m 667 392 l 481 301 l 481 0 l 364 0 l 364 244 l 179 156 l 179 251 l 364 340 l 364 467 l 179 378 l 179 474 l 364 563 l 364 867 l 56 867 l 56 969 l 789 969 l 789 867 l 481 867 l 481 619 l 667 710 l 667 614 l 481 524 l 481 397 l 667 488 l 667 392 z "},"₱":{"ha":872,"x_min":42,"x_max":847,"o":"m 268 269 l 268 0 l 153 0 l 153 461 l 42 461 l 42 554 l 153 554 l 153 688 l 42 688 l 42 781 l 153 781 l 153 969 l 474 969 q 634 919 574 969 q 721 781 694 869 l 847 781 l 847 688 l 738 688 l 738 554 l 847 554 l 847 461 l 721 461 q 635 321 696 372 q 474 269 575 269 l 268 269 m 268 869 l 268 776 l 614 776 q 563 844 599 818 q 474 869 526 869 l 268 869 m 268 550 l 625 550 l 625 692 l 268 692 l 268 550 m 268 369 l 474 369 q 565 396 526 369 q 617 465 603 422 l 268 465 l 268 369 z "},"₲":{"ha":939,"x_min":81,"x_max":839,"o":"m 81 485 q 127 756 81 647 q 262 918 174 864 q 475 972 350 972 q 594 957 540 972 q 690 914 647 942 q 765 847 733 886 q 818 760 797 808 l 724 703 q 676 787 707 749 q 595 847 644 825 q 475 869 546 869 q 328 831 388 869 q 237 724 268 793 q 206 564 206 656 l 206 407 q 223 283 206 339 q 275 185 240 226 q 362 122 310 144 q 483 100 414 100 q 614 128 560 100 q 697 210 668 157 q 725 333 725 263 l 725 393 l 468 393 l 468 499 l 839 499 l 839 361 q 803 183 839 253 q 711 72 768 113 q 590 14 654 31 q 465 -3 525 -3 q 345 14 403 -3 q 240 67 288 31 q 156 160 192 103 q 100 299 119 218 q 81 485 81 379 m 400 -114 l 310 -114 l 339 56 l 342 69 l 489 900 l 489 914 l 518 1083 l 608 1083 l 579 914 l 576 900 l 429 69 l 429 56 l 400 -114 z "},"₴":{"ha":872,"x_min":64,"x_max":808,"o":"m 439 -17 q 286 17 351 -17 q 185 109 221 50 q 149 244 149 168 q 154 299 149 275 q 167 344 160 324 l 64 344 l 64 438 l 238 438 l 389 525 l 464 568 l 464 571 l 343 571 l 64 571 l 64 664 l 585 664 q 594 697 592 679 q 597 735 597 715 q 552 847 597 810 q 426 883 507 883 q 324 863 372 883 q 233 793 275 842 l 160 867 q 288 958 217 931 q 436 986 360 986 q 580 957 518 986 q 677 874 642 928 q 713 744 713 819 q 710 701 713 722 q 700 664 707 681 l 808 664 l 808 571 l 633 571 l 482 483 l 407 440 l 407 438 l 528 438 l 808 438 l 808 344 l 286 344 q 270 303 276 325 q 264 253 264 281 q 313 128 264 171 q 446 86 363 86 q 556 110 503 86 q 665 194 610 135 l 736 118 q 604 18 681 53 q 439 -17 528 -17 z "},"₵":{"ha":872,"x_min":81,"x_max":811,"o":"m 400 -114 l 310 -114 l 339 56 l 342 69 l 489 900 l 489 914 l 518 1083 l 608 1083 l 579 914 l 576 900 l 429 69 l 429 56 l 400 -114 m 81 485 q 128 756 81 647 q 262 918 175 864 q 468 972 349 972 q 618 946 553 972 q 730 873 683 919 q 804 763 776 826 l 710 706 q 661 788 693 751 q 581 847 629 825 q 468 869 533 869 q 326 831 385 869 q 237 724 268 793 q 206 564 206 656 l 206 407 q 222 287 206 343 q 270 190 238 231 q 352 125 303 149 q 468 101 401 101 q 626 150 563 101 q 718 276 689 199 l 811 218 q 736 106 782 156 q 625 26 690 56 q 468 -3 560 -3 q 319 24 389 -3 q 195 108 249 50 q 111 258 142 165 q 81 485 81 351 z "},"₸":{"ha":844,"x_min":56,"x_max":789,"o":"m 789 872 l 56 872 l 56 969 l 789 969 l 789 872 m 789 650 l 481 650 l 481 0 l 364 0 l 364 650 l 56 650 l 56 747 l 789 747 l 789 650 z "},"₹":{"ha":840,"x_min":74,"x_max":793,"o":"m 689 0 l 547 0 l 243 414 l 74 414 l 74 511 l 382 511 q 497 544 451 511 q 543 642 543 578 l 543 644 l 74 644 l 74 742 l 543 742 l 543 744 q 497 839 543 806 q 382 872 450 872 l 74 872 l 74 969 l 793 969 l 793 872 l 563 872 l 563 867 q 594 856 575 865 q 632 822 614 847 q 656 742 650 796 l 793 742 l 793 644 l 656 644 q 613 522 647 574 q 519 442 578 469 q 382 414 461 414 l 338 414 l 354 447 l 689 0 z "},"₺":{"ha":842,"x_min":18,"x_max":779,"o":"m 153 0 l 153 344 l 18 279 l 18 375 l 153 440 l 153 567 l 18 501 l 18 597 l 153 663 l 153 969 l 269 969 l 269 718 l 569 863 l 569 767 l 269 622 l 269 496 l 569 640 l 569 544 l 269 400 l 269 101 l 419 101 q 551 141 496 101 q 635 253 606 181 q 665 424 665 325 l 779 424 q 740 210 779 306 q 622 57 700 114 q 426 0 543 0 l 153 0 z "},"₽":{"ha":865,"x_min":42,"x_max":810,"o":"m 651 183 l 269 183 l 269 0 l 153 0 l 153 183 l 42 183 l 42 281 l 153 281 l 153 415 l 42 415 l 42 513 l 153 513 l 153 969 l 539 969 q 740 894 669 969 q 810 692 810 819 q 740 490 810 565 q 539 415 669 415 l 269 415 l 269 281 l 651 281 l 651 183 m 269 867 l 269 513 l 539 513 q 617 528 585 513 q 667 576 650 544 q 685 651 685 607 l 685 728 q 667 803 685 772 q 617 851 650 835 q 539 867 585 867 l 269 867 z "},"₿":{"ha":893,"x_min":128,"x_max":806,"o":"m 461 -114 l 461 29 l 378 29 l 378 -114 l 281 -114 l 281 29 l 128 29 l 128 940 l 281 940 l 281 1083 l 378 1083 l 378 940 l 461 940 l 461 1083 l 558 1083 l 558 939 q 715 865 658 928 q 771 706 771 803 q 722 567 771 613 q 608 511 674 522 l 608 503 q 699 476 654 496 q 775 413 744 456 q 806 293 806 369 q 774 158 806 218 q 685 64 742 99 q 558 29 629 29 l 558 -114 l 461 -114 m 243 838 l 243 549 l 517 549 q 618 580 586 549 q 650 674 650 611 l 650 713 q 618 806 650 775 q 517 838 586 838 l 243 838 m 243 449 l 243 132 l 522 132 q 608 147 572 132 q 665 193 644 163 q 685 268 685 224 l 685 313 q 665 388 685 357 q 608 433 644 418 q 522 449 572 449 l 243 449 z "},"ﬁ":{"ha":788,"x_min":40,"x_max":682,"o":"m 157 0 l 157 619 l 40 619 l 40 717 l 157 717 l 157 861 q 196 981 157 935 q 314 1028 235 1028 l 422 1028 l 422 931 l 268 931 l 268 717 l 669 717 l 669 0 l 558 0 l 558 619 l 268 619 l 268 0 l 157 0 m 614 885 q 563 902 579 885 q 546 947 546 919 l 546 965 q 563 1010 546 993 q 614 1028 579 1028 q 666 1010 650 1028 q 682 965 682 993 l 682 947 q 666 902 682 919 q 614 885 650 885 z "},"ﬂ":{"ha":828,"x_min":40,"x_max":785,"o":"m 157 0 l 157 619 l 40 619 l 40 717 l 157 717 l 157 861 q 196 981 157 935 q 314 1028 235 1028 l 422 1028 l 422 931 l 268 931 l 268 717 l 422 717 l 422 619 l 268 619 l 268 0 l 157 0 m 785 0 l 686 0 q 599 33 629 0 q 568 115 568 65 l 568 1028 l 679 1028 l 679 97 l 785 97 l 785 0 z "},"á":{"ha":742,"x_min":61,"x_max":701,"o":"m 701 0 l 639 0 q 567 19 594 0 q 526 71 539 38 q 514 147 514 104 l 514 157 l 557 117 l 508 117 q 431 17 486 51 q 301 -17 376 -17 q 124 42 188 -17 q 61 200 61 100 q 94 315 61 268 q 195 385 128 361 q 367 410 263 410 l 508 410 l 508 481 q 467 597 508 557 q 339 638 425 638 q 231 608 275 638 q 157 531 186 579 l 90 593 q 183 692 119 650 q 344 733 247 733 q 547 669 474 733 q 619 492 619 606 l 619 97 l 701 97 l 701 0 m 508 326 l 361 326 q 222 299 267 326 q 178 218 178 271 l 178 189 q 217 107 178 136 q 319 78 256 78 q 417 95 375 78 q 484 142 460 113 q 508 208 508 172 l 508 326 m 507 1033 l 360 813 l 288 846 l 406 1082 l 507 1033 z "},"ă":{"ha":742,"x_min":61,"x_max":701,"o":"m 701 0 l 639 0 q 567 19 594 0 q 526 71 539 38 q 514 147 514 104 l 514 157 l 557 117 l 508 117 q 431 17 486 51 q 301 -17 376 -17 q 124 42 188 -17 q 61 200 61 100 q 94 315 61 268 q 195 385 128 361 q 367 410 263 410 l 508 410 l 508 481 q 467 597 508 557 q 339 638 425 638 q 231 608 275 638 q 157 531 186 579 l 90 593 q 183 692 119 650 q 344 733 247 733 q 547 669 474 733 q 619 492 619 606 l 619 97 l 701 97 l 701 0 m 508 326 l 361 326 q 222 299 267 326 q 178 218 178 271 l 178 189 q 217 107 178 136 q 319 78 256 78 q 417 95 375 78 q 484 142 460 113 q 508 208 508 172 l 508 326 m 350 828 q 258 844 294 828 q 198 886 221 860 q 162 942 175 913 q 139 1001 149 972 l 201 1032 l 231 986 q 274 935 250 956 q 350 915 297 915 q 427 935 403 915 q 469 986 451 956 l 499 1032 l 561 1001 q 538 942 551 972 q 502 886 525 913 q 442 844 479 860 q 350 828 406 828 z "},"ǎ":{"ha":742,"x_min":61,"x_max":701,"o":"m 701 0 l 639 0 q 567 19 594 0 q 526 71 539 38 q 514 147 514 104 l 514 157 l 557 117 l 508 117 q 431 17 486 51 q 301 -17 376 -17 q 124 42 188 -17 q 61 200 61 100 q 94 315 61 268 q 195 385 128 361 q 367 410 263 410 l 508 410 l 508 481 q 467 597 508 557 q 339 638 425 638 q 231 608 275 638 q 157 531 186 579 l 90 593 q 183 692 119 650 q 344 733 247 733 q 547 669 474 733 q 619 492 619 606 l 619 97 l 701 97 l 701 0 m 508 326 l 361 326 q 222 299 267 326 q 178 218 178 271 l 178 189 q 217 107 178 136 q 319 78 256 78 q 417 95 375 78 q 484 142 460 113 q 508 208 508 172 l 508 326 m 419 832 l 281 832 l 126 1031 l 188 1074 l 350 911 l 513 1074 l 574 1031 l 419 832 z "},"â":{"ha":742,"x_min":61,"x_max":701,"o":"m 701 0 l 639 0 q 567 19 594 0 q 526 71 539 38 q 514 147 514 104 l 514 157 l 557 117 l 508 117 q 431 17 486 51 q 301 -17 376 -17 q 124 42 188 -17 q 61 200 61 100 q 94 315 61 268 q 195 385 128 361 q 367 410 263 410 l 508 410 l 508 481 q 467 597 508 557 q 339 638 425 638 q 231 608 275 638 q 157 531 186 579 l 90 593 q 183 692 119 650 q 344 733 247 733 q 547 669 474 733 q 619 492 619 606 l 619 97 l 701 97 l 701 0 m 508 326 l 361 326 q 222 299 267 326 q 178 218 178 271 l 178 189 q 217 107 178 136 q 319 78 256 78 q 417 95 375 78 q 484 142 460 113 q 508 208 508 172 l 508 326 m 281 1063 l 419 1063 l 574 864 l 513 821 l 350 983 l 188 821 l 126 864 l 281 1063 z "},"ä":{"ha":742,"x_min":61,"x_max":701,"o":"m 701 0 l 639 0 q 567 19 594 0 q 526 71 539 38 q 514 147 514 104 l 514 157 l 557 117 l 508 117 q 431 17 486 51 q 301 -17 376 -17 q 124 42 188 -17 q 61 200 61 100 q 94 315 61 268 q 195 385 128 361 q 367 410 263 410 l 508 410 l 508 481 q 467 597 508 557 q 339 638 425 638 q 231 608 275 638 q 157 531 186 579 l 90 593 q 183 692 119 650 q 344 733 247 733 q 547 669 474 733 q 619 492 619 606 l 619 97 l 701 97 l 701 0 m 508 326 l 361 326 q 222 299 267 326 q 178 218 178 271 l 178 189 q 217 107 178 136 q 319 78 256 78 q 417 95 375 78 q 484 142 460 113 q 508 208 508 172 l 508 326 m 221 858 q 169 876 186 858 q 153 922 153 893 l 153 938 q 169 984 153 967 q 221 1001 186 1001 q 273 984 257 1001 q 289 938 289 967 l 289 922 q 273 876 289 893 q 221 858 257 858 m 479 858 q 428 876 444 858 q 411 922 411 893 l 411 938 q 428 984 411 967 q 479 1001 444 1001 q 531 984 515 1001 q 547 938 547 967 l 547 922 q 531 876 547 893 q 479 858 515 858 z "},"ạ":{"ha":742,"x_min":61,"x_max":701,"o":"m 701 0 l 639 0 q 567 19 594 0 q 526 71 539 38 q 514 147 514 104 l 514 157 l 557 117 l 508 117 q 431 17 486 51 q 301 -17 376 -17 q 124 42 188 -17 q 61 200 61 100 q 94 315 61 268 q 195 385 128 361 q 367 410 263 410 l 508 410 l 508 481 q 467 597 508 557 q 339 638 425 638 q 231 608 275 638 q 157 531 186 579 l 90 593 q 183 692 119 650 q 344 733 247 733 q 547 669 474 733 q 619 492 619 606 l 619 97 l 701 97 l 701 0 m 508 326 l 361 326 q 222 299 267 326 q 178 218 178 271 l 178 189 q 217 107 178 136 q 319 78 256 78 q 417 95 375 78 q 484 142 460 113 q 508 208 508 172 l 508 326 m 340 -235 q 288 -217 306 -235 q 269 -171 269 -200 l 269 -156 q 288 -109 269 -126 q 340 -92 306 -92 q 394 -109 376 -92 q 411 -156 411 -126 l 411 -171 q 394 -217 411 -200 q 340 -235 376 -235 z "},"à":{"ha":742,"x_min":61,"x_max":701,"o":"m 701 0 l 639 0 q 567 19 594 0 q 526 71 539 38 q 514 147 514 104 l 514 157 l 557 117 l 508 117 q 431 17 486 51 q 301 -17 376 -17 q 124 42 188 -17 q 61 200 61 100 q 94 315 61 268 q 195 385 128 361 q 367 410 263 410 l 508 410 l 508 481 q 467 597 508 557 q 339 638 425 638 q 231 608 275 638 q 157 531 186 579 l 90 593 q 183 692 119 650 q 344 733 247 733 q 547 669 474 733 q 619 492 619 606 l 619 97 l 701 97 l 701 0 m 508 326 l 361 326 q 222 299 267 326 q 178 218 178 271 l 178 189 q 217 107 178 136 q 319 78 256 78 q 417 95 375 78 q 484 142 460 113 q 508 208 508 172 l 508 326 m 340 813 l 193 1033 l 294 1082 l 413 846 l 340 813 z "},"ả":{"ha":742,"x_min":61,"x_max":701,"o":"m 701 0 l 639 0 q 567 19 594 0 q 526 71 539 38 q 514 147 514 104 l 514 157 l 557 117 l 508 117 q 431 17 486 51 q 301 -17 376 -17 q 124 42 188 -17 q 61 200 61 100 q 94 315 61 268 q 195 385 128 361 q 367 410 263 410 l 508 410 l 508 481 q 467 597 508 557 q 339 638 425 638 q 231 608 275 638 q 157 531 186 579 l 90 593 q 183 692 119 650 q 344 733 247 733 q 547 669 474 733 q 619 492 619 606 l 619 97 l 701 97 l 701 0 m 508 326 l 361 326 q 222 299 267 326 q 178 218 178 271 l 178 189 q 217 107 178 136 q 319 78 256 78 q 417 95 375 78 q 484 142 460 113 q 508 208 508 172 l 508 326 m 233 978 l 233 1063 l 385 1063 q 460 1040 438 1063 q 482 986 482 1018 q 464 919 482 956 q 414 843 446 883 l 381 801 l 317 833 l 397 978 l 233 978 z "},"ā":{"ha":742,"x_min":61,"x_max":701,"o":"m 701 0 l 639 0 q 567 19 594 0 q 526 71 539 38 q 514 147 514 104 l 514 157 l 557 117 l 508 117 q 431 17 486 51 q 301 -17 376 -17 q 124 42 188 -17 q 61 200 61 100 q 94 315 61 268 q 195 385 128 361 q 367 410 263 410 l 508 410 l 508 481 q 467 597 508 557 q 339 638 425 638 q 231 608 275 638 q 157 531 186 579 l 90 593 q 183 692 119 650 q 344 733 247 733 q 547 669 474 733 q 619 492 619 606 l 619 97 l 701 97 l 701 0 m 508 326 l 361 326 q 222 299 267 326 q 178 218 178 271 l 178 189 q 217 107 178 136 q 319 78 256 78 q 417 95 375 78 q 484 142 460 113 q 508 208 508 172 l 508 326 m 156 885 l 156 979 l 544 979 l 544 885 l 156 885 z "},"ą":{"ha":742,"x_min":61,"x_max":731,"o":"m 701 97 l 701 0 q 614 -86 643 -54 q 575 -137 585 -118 q 565 -171 565 -156 q 578 -203 565 -193 q 608 -212 590 -212 q 645 -203 628 -212 q 675 -179 663 -194 l 731 -233 q 688 -272 718 -256 q 608 -287 657 -287 q 542 -276 572 -287 q 494 -242 513 -265 q 476 -182 476 -218 q 519 -87 476 -129 q 618 -3 561 -44 l 604 40 l 658 0 l 639 0 q 565 19 593 0 q 526 73 538 39 q 514 147 514 107 l 514 157 l 557 117 l 508 117 q 431 17 486 51 q 301 -17 376 -17 q 124 42 188 -17 q 61 200 61 100 q 94 315 61 268 q 195 385 128 361 q 367 410 263 410 l 508 410 l 508 481 q 467 597 508 557 q 339 638 425 638 q 231 608 275 638 q 157 531 186 579 l 90 593 q 183 692 119 650 q 344 733 247 733 q 547 669 474 733 q 619 492 619 606 l 619 97 l 701 97 m 508 326 l 361 326 q 222 299 267 326 q 178 218 178 271 l 178 189 q 217 107 178 136 q 319 78 256 78 q 417 95 375 78 q 484 142 460 113 q 508 208 508 172 l 508 326 z "},"å":{"ha":742,"x_min":61,"x_max":701,"o":"m 701 0 l 639 0 q 567 19 594 0 q 526 71 539 38 q 514 147 514 104 l 514 157 l 557 117 l 508 117 q 431 17 486 51 q 301 -17 376 -17 q 124 42 188 -17 q 61 200 61 100 q 94 315 61 268 q 195 385 128 361 q 367 410 263 410 l 508 410 l 508 481 q 467 597 508 557 q 339 638 425 638 q 231 608 275 638 q 157 531 186 579 l 90 593 q 183 692 119 650 q 344 733 247 733 q 547 669 474 733 q 619 492 619 606 l 619 97 l 701 97 l 701 0 m 508 326 l 361 326 q 222 299 267 326 q 178 218 178 271 l 178 189 q 217 107 178 136 q 319 78 256 78 q 417 95 375 78 q 484 142 460 113 q 508 208 508 172 l 508 326 m 350 800 q 269 821 306 800 q 210 878 232 842 q 189 960 189 914 q 210 1042 189 1006 q 269 1099 232 1078 q 350 1119 306 1119 q 432 1099 396 1119 q 490 1042 468 1078 q 511 960 511 1006 q 490 878 511 914 q 432 821 468 842 q 350 800 396 800 m 350 868 q 409 888 388 868 q 431 944 431 908 l 431 975 q 409 1031 431 1011 q 350 1051 388 1051 q 291 1031 313 1051 q 269 975 269 1011 l 269 944 q 291 888 269 908 q 350 868 313 868 z "},"ǻ":{"ha":742,"x_min":61,"x_max":701,"o":"m 701 0 l 639 0 q 567 19 594 0 q 526 71 539 38 q 514 147 514 104 l 514 157 l 557 117 l 508 117 q 431 17 486 51 q 301 -17 376 -17 q 124 42 188 -17 q 61 200 61 100 q 94 315 61 268 q 195 385 128 361 q 367 410 263 410 l 508 410 l 508 481 q 467 597 508 557 q 339 638 425 638 q 231 608 275 638 q 157 531 186 579 l 90 593 q 183 692 119 650 q 344 733 247 733 q 547 669 474 733 q 619 492 619 606 l 619 97 l 701 97 l 701 0 m 508 326 l 361 326 q 222 299 267 326 q 178 218 178 271 l 178 189 q 217 107 178 136 q 319 78 256 78 q 417 95 375 78 q 484 142 460 113 q 508 208 508 172 l 508 326 m 496 1276 l 365 1131 l 308 1167 l 413 1328 l 496 1276 m 350 786 q 235 832 282 786 q 189 946 189 878 q 235 1060 189 1015 q 350 1106 282 1106 q 465 1060 418 1106 q 511 946 511 1015 q 465 832 511 878 q 350 786 418 786 m 350 854 q 409 874 388 854 q 431 931 431 894 l 431 961 q 409 1017 431 997 q 350 1038 388 1038 q 291 1017 313 1038 q 269 961 269 997 l 269 931 q 291 874 269 894 q 350 854 313 854 z "},"ã":{"ha":742,"x_min":61,"x_max":701,"o":"m 701 0 l 639 0 q 567 19 594 0 q 526 71 539 38 q 514 147 514 104 l 514 157 l 557 117 l 508 117 q 431 17 486 51 q 301 -17 376 -17 q 124 42 188 -17 q 61 200 61 100 q 94 315 61 268 q 195 385 128 361 q 367 410 263 410 l 508 410 l 508 481 q 467 597 508 557 q 339 638 425 638 q 231 608 275 638 q 157 531 186 579 l 90 593 q 183 692 119 650 q 344 733 247 733 q 547 669 474 733 q 619 492 619 606 l 619 97 l 701 97 l 701 0 m 508 326 l 361 326 q 222 299 267 326 q 178 218 178 271 l 178 189 q 217 107 178 136 q 319 78 256 78 q 417 95 375 78 q 484 142 460 113 q 508 208 508 172 l 508 326 m 451 850 q 389 863 415 850 q 340 886 363 875 q 284 912 307 904 q 243 919 261 919 q 202 910 221 919 q 163 882 183 900 l 117 938 q 169 988 136 965 q 249 1011 201 1011 q 311 999 285 1011 q 360 975 338 986 q 416 949 393 957 q 457 942 439 942 q 499 951 481 942 q 538 979 517 961 l 583 924 q 533 873 565 896 q 451 850 500 850 z "},"ắ":{"ha":742,"x_min":61,"x_max":701,"o":"m 701 0 l 639 0 q 567 19 594 0 q 526 71 539 38 q 514 147 514 104 l 514 157 l 557 117 l 508 117 q 431 17 486 51 q 301 -17 376 -17 q 124 42 188 -17 q 61 200 61 100 q 94 315 61 268 q 195 385 128 361 q 367 410 263 410 l 508 410 l 508 481 q 467 597 508 557 q 339 638 425 638 q 231 608 275 638 q 157 531 186 579 l 90 593 q 183 692 119 650 q 344 733 247 733 q 547 669 474 733 q 619 492 619 606 l 619 97 l 701 97 l 701 0 m 508 326 l 361 326 q 222 299 267 326 q 178 218 178 271 l 178 189 q 217 107 178 136 q 319 78 256 78 q 417 95 375 78 q 484 142 460 113 q 508 208 508 172 l 508 326 m 350 813 q 234 840 276 813 q 170 909 192 868 q 136 988 149 950 l 199 1018 l 228 972 q 272 918 247 942 q 350 894 297 894 q 428 918 403 894 q 472 972 454 942 l 501 1018 l 564 988 q 530 909 551 950 q 467 840 508 868 q 350 813 425 813 m 503 1190 l 356 969 l 288 1001 l 406 1238 l 503 1190 z "},"ặ":{"ha":742,"x_min":61,"x_max":701,"o":"m 701 0 l 639 0 q 567 19 594 0 q 526 71 539 38 q 514 147 514 104 l 514 157 l 557 117 l 508 117 q 431 17 486 51 q 301 -17 376 -17 q 124 42 188 -17 q 61 200 61 100 q 94 315 61 268 q 195 385 128 361 q 367 410 263 410 l 508 410 l 508 481 q 467 597 508 557 q 339 638 425 638 q 231 608 275 638 q 157 531 186 579 l 90 593 q 183 692 119 650 q 344 733 247 733 q 547 669 474 733 q 619 492 619 606 l 619 97 l 701 97 l 701 0 m 508 326 l 361 326 q 222 299 267 326 q 178 218 178 271 l 178 189 q 217 107 178 136 q 319 78 256 78 q 417 95 375 78 q 484 142 460 113 q 508 208 508 172 l 508 326 m 350 828 q 258 844 294 828 q 198 886 221 860 q 162 942 175 913 q 139 1001 149 972 l 201 1032 l 231 986 q 274 935 250 956 q 350 915 297 915 q 427 935 403 915 q 469 986 451 956 l 499 1032 l 561 1001 q 538 942 551 972 q 502 886 525 913 q 442 844 479 860 q 350 828 406 828 m 340 -235 q 288 -217 306 -235 q 269 -171 269 -200 l 269 -156 q 288 -109 269 -126 q 340 -92 306 -92 q 394 -109 376 -92 q 411 -156 411 -126 l 411 -171 q 394 -217 411 -200 q 340 -235 376 -235 z "},"ằ":{"ha":742,"x_min":61,"x_max":701,"o":"m 701 0 l 639 0 q 567 19 594 0 q 526 71 539 38 q 514 147 514 104 l 514 157 l 557 117 l 508 117 q 431 17 486 51 q 301 -17 376 -17 q 124 42 188 -17 q 61 200 61 100 q 94 315 61 268 q 195 385 128 361 q 367 410 263 410 l 508 410 l 508 481 q 467 597 508 557 q 339 638 425 638 q 231 608 275 638 q 157 531 186 579 l 90 593 q 183 692 119 650 q 344 733 247 733 q 547 669 474 733 q 619 492 619 606 l 619 97 l 701 97 l 701 0 m 508 326 l 361 326 q 222 299 267 326 q 178 218 178 271 l 178 189 q 217 107 178 136 q 319 78 256 78 q 417 95 375 78 q 484 142 460 113 q 508 208 508 172 l 508 326 m 350 813 q 234 840 276 813 q 170 909 192 868 q 136 988 149 950 l 199 1018 l 228 972 q 272 918 247 942 q 350 894 297 894 q 428 918 403 894 q 472 972 454 942 l 501 1018 l 564 988 q 530 909 551 950 q 467 840 508 868 q 350 813 425 813 m 344 969 l 197 1190 l 294 1238 l 413 1001 l 344 969 z "},"ẳ":{"ha":742,"x_min":61,"x_max":701,"o":"m 701 0 l 639 0 q 567 19 594 0 q 526 71 539 38 q 514 147 514 104 l 514 157 l 557 117 l 508 117 q 431 17 486 51 q 301 -17 376 -17 q 124 42 188 -17 q 61 200 61 100 q 94 315 61 268 q 195 385 128 361 q 367 410 263 410 l 508 410 l 508 481 q 467 597 508 557 q 339 638 425 638 q 231 608 275 638 q 157 531 186 579 l 90 593 q 183 692 119 650 q 344 733 247 733 q 547 669 474 733 q 619 492 619 606 l 619 97 l 701 97 l 701 0 m 508 326 l 361 326 q 222 299 267 326 q 178 218 178 271 l 178 189 q 217 107 178 136 q 319 78 256 78 q 417 95 375 78 q 484 142 460 113 q 508 208 508 172 l 508 326 m 350 813 q 234 840 276 813 q 170 909 192 868 q 136 988 149 950 l 199 1018 l 228 972 q 272 918 247 942 q 350 894 297 894 q 428 918 403 894 q 472 972 454 942 l 501 1018 l 564 988 q 530 909 551 950 q 467 840 508 868 q 350 813 425 813 m 226 1142 l 226 1222 l 357 1222 q 432 1200 410 1222 q 454 1146 454 1178 q 436 1079 454 1115 q 386 1003 418 1043 l 353 961 l 292 993 l 375 1142 l 226 1142 z "},"ẵ":{"ha":742,"x_min":61,"x_max":701,"o":"m 701 0 l 639 0 q 567 19 594 0 q 526 71 539 38 q 514 147 514 104 l 514 157 l 557 117 l 508 117 q 431 17 486 51 q 301 -17 376 -17 q 124 42 188 -17 q 61 200 61 100 q 94 315 61 268 q 195 385 128 361 q 367 410 263 410 l 508 410 l 508 481 q 467 597 508 557 q 339 638 425 638 q 231 608 275 638 q 157 531 186 579 l 90 593 q 183 692 119 650 q 344 733 247 733 q 547 669 474 733 q 619 492 619 606 l 619 97 l 701 97 l 701 0 m 508 326 l 361 326 q 222 299 267 326 q 178 218 178 271 l 178 189 q 217 107 178 136 q 319 78 256 78 q 417 95 375 78 q 484 142 460 113 q 508 208 508 172 l 508 326 m 350 813 q 234 840 276 813 q 170 909 192 868 q 136 988 149 950 l 199 1018 l 228 972 q 272 918 247 942 q 350 894 297 894 q 428 918 403 894 q 472 972 454 942 l 501 1018 l 564 988 q 530 909 551 950 q 467 840 508 868 q 350 813 425 813 m 450 1072 q 388 1085 414 1072 q 339 1108 361 1097 q 283 1134 306 1126 q 242 1142 260 1142 q 201 1132 219 1142 q 161 1104 182 1122 l 118 1154 q 170 1205 138 1182 q 250 1228 203 1228 q 313 1215 286 1228 q 361 1192 339 1203 q 417 1166 394 1174 q 458 1158 440 1158 q 500 1168 482 1158 q 539 1196 518 1178 l 582 1146 q 531 1095 564 1118 q 450 1072 499 1072 z "},"ấ":{"ha":742,"x_min":61,"x_max":711,"o":"m 701 0 l 639 0 q 567 19 594 0 q 526 71 539 38 q 514 147 514 104 l 514 157 l 557 117 l 508 117 q 431 17 486 51 q 301 -17 376 -17 q 124 42 188 -17 q 61 200 61 100 q 94 315 61 268 q 195 385 128 361 q 367 410 263 410 l 508 410 l 508 481 q 467 597 508 557 q 339 638 425 638 q 231 608 275 638 q 157 531 186 579 l 90 593 q 183 692 119 650 q 344 733 247 733 q 547 669 474 733 q 619 492 619 606 l 619 97 l 701 97 l 701 0 m 508 326 l 361 326 q 222 299 267 326 q 178 218 178 271 l 178 189 q 217 107 178 136 q 319 78 256 78 q 417 95 375 78 q 484 142 460 113 q 508 208 508 172 l 508 326 m 711 1190 l 564 969 l 496 1001 l 614 1238 l 711 1190 m 281 1035 l 419 1035 l 572 849 l 515 807 l 350 963 l 185 807 l 128 849 l 281 1035 z "},"ậ":{"ha":742,"x_min":61,"x_max":701,"o":"m 701 0 l 639 0 q 567 19 594 0 q 526 71 539 38 q 514 147 514 104 l 514 157 l 557 117 l 508 117 q 431 17 486 51 q 301 -17 376 -17 q 124 42 188 -17 q 61 200 61 100 q 94 315 61 268 q 195 385 128 361 q 367 410 263 410 l 508 410 l 508 481 q 467 597 508 557 q 339 638 425 638 q 231 608 275 638 q 157 531 186 579 l 90 593 q 183 692 119 650 q 344 733 247 733 q 547 669 474 733 q 619 492 619 606 l 619 97 l 701 97 l 701 0 m 508 326 l 361 326 q 222 299 267 326 q 178 218 178 271 l 178 189 q 217 107 178 136 q 319 78 256 78 q 417 95 375 78 q 484 142 460 113 q 508 208 508 172 l 508 326 m 281 1063 l 419 1063 l 574 864 l 513 821 l 350 983 l 188 821 l 126 864 l 281 1063 m 340 -235 q 288 -217 306 -235 q 269 -171 269 -200 l 269 -156 q 288 -109 269 -126 q 340 -92 306 -92 q 394 -109 376 -92 q 411 -156 411 -126 l 411 -171 q 394 -217 411 -200 q 340 -235 376 -235 z "},"ầ":{"ha":742,"x_min":-11,"x_max":701,"o":"m 701 0 l 639 0 q 567 19 594 0 q 526 71 539 38 q 514 147 514 104 l 514 157 l 557 117 l 508 117 q 431 17 486 51 q 301 -17 376 -17 q 124 42 188 -17 q 61 200 61 100 q 94 315 61 268 q 195 385 128 361 q 367 410 263 410 l 508 410 l 508 481 q 467 597 508 557 q 339 638 425 638 q 231 608 275 638 q 157 531 186 579 l 90 593 q 183 692 119 650 q 344 733 247 733 q 547 669 474 733 q 619 492 619 606 l 619 97 l 701 97 l 701 0 m 508 326 l 361 326 q 222 299 267 326 q 178 218 178 271 l 178 189 q 217 107 178 136 q 319 78 256 78 q 417 95 375 78 q 484 142 460 113 q 508 208 508 172 l 508 326 m 136 969 l -11 1190 l 86 1238 l 204 1001 l 136 969 m 281 1035 l 419 1035 l 572 849 l 515 807 l 350 963 l 185 807 l 128 849 l 281 1035 z "},"ẩ":{"ha":742,"x_min":61,"x_max":701,"o":"m 701 0 l 639 0 q 567 19 594 0 q 526 71 539 38 q 514 147 514 104 l 514 157 l 557 117 l 508 117 q 431 17 486 51 q 301 -17 376 -17 q 124 42 188 -17 q 61 200 61 100 q 94 315 61 268 q 195 385 128 361 q 367 410 263 410 l 508 410 l 508 481 q 467 597 508 557 q 339 638 425 638 q 231 608 275 638 q 157 531 186 579 l 90 593 q 183 692 119 650 q 344 733 247 733 q 547 669 474 733 q 619 492 619 606 l 619 97 l 701 97 l 701 0 m 508 326 l 361 326 q 222 299 267 326 q 178 218 178 271 l 178 189 q 217 107 178 136 q 319 78 256 78 q 417 95 375 78 q 484 142 460 113 q 508 208 508 172 l 508 326 m 419 1142 l 419 1222 l 571 1222 q 646 1200 624 1222 q 668 1146 668 1178 q 650 1079 668 1115 q 600 1003 632 1043 l 567 961 l 506 993 l 589 1142 l 419 1142 m 281 1035 l 419 1035 l 572 849 l 515 807 l 350 963 l 185 807 l 128 849 l 281 1035 z "},"ẫ":{"ha":742,"x_min":61,"x_max":701,"o":"m 701 0 l 639 0 q 567 19 594 0 q 526 71 539 38 q 514 147 514 104 l 514 157 l 557 117 l 508 117 q 431 17 486 51 q 301 -17 376 -17 q 124 42 188 -17 q 61 200 61 100 q 94 315 61 268 q 195 385 128 361 q 367 410 263 410 l 508 410 l 508 481 q 467 597 508 557 q 339 638 425 638 q 231 608 275 638 q 157 531 186 579 l 90 593 q 183 692 119 650 q 344 733 247 733 q 547 669 474 733 q 619 492 619 606 l 619 97 l 701 97 l 701 0 m 508 326 l 361 326 q 222 299 267 326 q 178 218 178 271 l 178 189 q 217 107 178 136 q 319 78 256 78 q 417 95 375 78 q 484 142 460 113 q 508 208 508 172 l 508 326 m 250 1228 q 313 1215 286 1228 q 361 1192 339 1203 q 417 1166 394 1174 q 458 1158 440 1158 q 500 1168 482 1158 q 539 1196 518 1178 l 582 1146 q 531 1095 564 1118 q 450 1072 499 1072 q 388 1085 414 1072 q 339 1108 361 1097 q 283 1134 306 1126 q 242 1142 260 1142 q 201 1132 219 1142 q 161 1104 182 1122 l 118 1154 q 170 1205 138 1182 q 250 1228 203 1228 m 281 1035 l 419 1035 l 572 849 l 515 807 l 350 963 l 185 807 l 128 849 l 281 1035 z "},"æ":{"ha":1200,"x_min":61,"x_max":1135,"o":"m 508 331 l 361 331 q 222 299 267 328 q 178 218 178 271 l 178 189 q 216 107 178 136 q 321 78 254 78 q 417 95 375 78 q 484 142 460 113 q 508 208 508 172 l 508 331 m 619 414 l 1015 414 l 1015 429 q 992 540 1015 493 q 925 614 968 588 q 825 640 882 640 q 719 613 765 640 q 646 535 672 585 q 619 424 619 486 l 619 414 m 832 81 q 951 112 901 81 q 1029 203 1000 143 l 1108 147 q 1002 28 1074 74 q 838 -17 931 -17 q 706 10 763 -17 q 615 75 649 38 q 572 144 581 113 l 564 144 q 526 76 558 114 q 436 11 493 39 q 299 -17 379 -17 q 126 42 190 -17 q 61 197 61 100 q 95 315 61 267 q 197 388 129 363 q 367 414 265 414 l 508 414 l 508 481 q 467 597 508 557 q 343 638 425 638 q 231 610 275 638 q 157 532 188 582 l 90 593 q 183 692 118 650 q 346 733 249 733 q 474 705 428 733 q 542 639 521 676 q 571 574 564 601 l 579 574 q 621 643 588 606 q 710 707 654 681 q 838 733 765 733 q 996 688 929 733 q 1099 564 1063 643 q 1135 383 1135 485 l 1135 331 l 619 331 l 619 297 q 676 142 619 204 q 832 81 732 81 z "},"ǽ":{"ha":1200,"x_min":61,"x_max":1135,"o":"m 508 331 l 361 331 q 222 299 267 328 q 178 218 178 271 l 178 189 q 216 107 178 136 q 321 78 254 78 q 417 95 375 78 q 484 142 460 113 q 508 208 508 172 l 508 331 m 619 414 l 1015 414 l 1015 429 q 992 540 1015 493 q 925 614 968 588 q 825 640 882 640 q 719 613 765 640 q 646 535 672 585 q 619 424 619 486 l 619 414 m 832 81 q 951 112 901 81 q 1029 203 1000 143 l 1108 147 q 1002 28 1074 74 q 838 -17 931 -17 q 706 10 763 -17 q 615 75 649 38 q 572 144 581 113 l 564 144 q 526 76 558 114 q 436 11 493 39 q 299 -17 379 -17 q 126 42 190 -17 q 61 197 61 100 q 95 315 61 267 q 197 388 129 363 q 367 414 265 414 l 508 414 l 508 481 q 467 597 508 557 q 343 638 425 638 q 231 610 275 638 q 157 532 188 582 l 90 593 q 183 692 118 650 q 346 733 249 733 q 474 705 428 733 q 542 639 521 676 q 571 574 564 601 l 579 574 q 621 643 588 606 q 710 707 654 681 q 838 733 765 733 q 996 688 929 733 q 1099 564 1063 643 q 1135 383 1135 485 l 1135 331 l 619 331 l 619 297 q 676 142 619 204 q 832 81 732 81 m 732 1033 l 585 813 l 513 846 l 631 1082 l 732 1033 z "},"ć":{"ha":699,"x_min":65,"x_max":660,"o":"m 385 -17 q 149 85 233 -17 q 65 358 65 186 q 149 632 65 531 q 385 733 233 733 q 557 686 492 733 q 653 565 622 639 l 560 518 q 495 604 540 574 q 385 635 450 635 q 235 574 286 635 q 185 419 185 514 l 185 297 q 235 143 185 204 q 385 82 286 82 q 501 114 453 82 q 579 207 550 146 l 660 153 q 556 30 625 76 q 385 -17 488 -17 m 540 1033 l 393 813 l 321 846 l 439 1082 l 540 1033 z "},"č":{"ha":699,"x_min":65,"x_max":660,"o":"m 385 -17 q 149 85 233 -17 q 65 358 65 186 q 149 632 65 531 q 385 733 233 733 q 557 686 492 733 q 653 565 622 639 l 560 518 q 495 604 540 574 q 385 635 450 635 q 235 574 286 635 q 185 419 185 514 l 185 297 q 235 143 185 204 q 385 82 286 82 q 501 114 453 82 q 579 207 550 146 l 660 153 q 556 30 625 76 q 385 -17 488 -17 m 453 832 l 314 832 l 160 1031 l 221 1074 l 383 911 l 546 1074 l 607 1031 l 453 832 z "},"ç":{"ha":699,"x_min":65,"x_max":660,"o":"m 385 733 q 557 687 492 733 q 653 567 622 640 l 560 518 q 495 604 540 574 q 385 635 450 635 q 235 574 286 635 q 185 419 185 514 l 185 297 q 235 143 185 204 q 385 82 286 82 q 501 114 453 82 q 579 207 550 146 l 660 153 q 567 37 629 82 q 415 -15 506 -8 l 401 -85 l 406 -89 q 433 -83 419 -85 q 460 -81 447 -81 q 527 -104 500 -81 q 554 -172 554 -128 q 533 -237 554 -211 q 476 -275 511 -262 q 400 -287 442 -287 q 311 -269 344 -287 q 263 -231 278 -250 l 315 -174 q 349 -201 328 -189 q 400 -212 369 -212 q 444 -202 426 -212 q 461 -169 461 -192 q 443 -135 461 -150 q 367 -112 425 -121 l 328 -107 l 346 -15 q 138 99 211 -1 q 65 358 65 199 q 149 632 65 531 q 385 733 233 733 z "},"ĉ":{"ha":699,"x_min":65,"x_max":660,"o":"m 385 -17 q 149 85 233 -17 q 65 358 65 186 q 149 632 65 531 q 385 733 233 733 q 557 686 492 733 q 653 565 622 639 l 560 518 q 495 604 540 574 q 385 635 450 635 q 235 574 286 635 q 185 419 185 514 l 185 297 q 235 143 185 204 q 385 82 286 82 q 501 114 453 82 q 579 207 550 146 l 660 153 q 556 30 625 76 q 385 -17 488 -17 m 314 1063 l 453 1063 l 607 864 l 546 821 l 383 983 l 221 821 l 160 864 l 314 1063 z "},"ċ":{"ha":699,"x_min":65,"x_max":660,"o":"m 385 -17 q 149 85 233 -17 q 65 358 65 186 q 149 632 65 531 q 385 733 233 733 q 557 686 492 733 q 653 565 622 639 l 560 518 q 495 604 540 574 q 385 635 450 635 q 235 574 286 635 q 185 419 185 514 l 185 297 q 235 143 185 204 q 385 82 286 82 q 501 114 453 82 q 579 207 550 146 l 660 153 q 556 30 625 76 q 385 -17 488 -17 m 383 856 q 331 873 349 856 q 313 919 313 890 l 313 935 q 331 981 313 964 q 383 999 349 999 q 437 981 419 999 q 454 935 454 964 l 454 919 q 437 873 454 890 q 383 856 419 856 z "},"ď":{"ha":838,"x_min":69,"x_max":911,"o":"m 576 0 l 576 117 l 571 117 q 487 17 539 50 q 361 -17 435 -17 q 206 29 272 -17 q 105 160 140 75 q 69 358 69 244 q 105 558 69 474 q 206 688 140 642 q 361 733 272 733 q 489 701 435 733 q 571 600 543 668 l 576 600 l 576 1028 l 688 1028 l 688 0 l 576 0 m 392 83 q 485 101 443 83 q 551 151 526 118 q 576 229 576 183 l 576 496 q 551 567 576 536 q 485 615 526 597 q 392 633 443 633 q 244 574 299 633 q 189 419 189 515 l 189 297 q 244 142 189 201 q 392 83 299 83 m 911 1028 l 839 771 l 765 771 l 782 1028 l 911 1028 z "},"đ":{"ha":810,"x_min":69,"x_max":776,"o":"m 576 0 l 576 117 l 571 117 q 487 17 539 50 q 361 -17 435 -17 q 206 29 272 -17 q 105 160 140 75 q 69 358 69 244 q 105 558 69 474 q 206 688 140 642 q 361 733 272 733 q 489 701 435 733 q 571 600 543 668 l 576 600 l 576 844 l 368 844 l 368 931 l 576 931 l 576 1028 l 688 1028 l 688 931 l 776 931 l 776 844 l 688 844 l 688 0 l 576 0 m 392 83 q 485 101 443 83 q 551 151 526 118 q 576 229 576 183 l 576 496 q 551 567 576 536 q 485 615 526 597 q 392 633 443 633 q 244 574 299 633 q 189 419 189 515 l 189 297 q 244 142 189 201 q 392 83 299 83 z "},"ð":{"ha":771,"x_min":65,"x_max":701,"o":"m 535 1046 l 581 989 l 472 911 q 583 776 531 854 q 669 599 636 699 q 701 376 701 499 q 660 160 701 247 q 548 28 619 72 q 383 -17 476 -17 q 215 29 286 -17 q 104 156 143 75 q 65 342 65 236 q 104 528 65 447 q 215 654 143 608 q 383 700 286 700 q 497 664 451 700 q 564 564 543 628 l 569 567 q 507 719 556 646 q 392 854 458 792 l 282 776 l 239 833 l 336 903 q 247 970 293 939 q 154 1028 200 1001 l 325 1028 q 369 999 346 1015 q 417 961 393 982 l 535 1046 m 383 79 q 488 106 443 79 q 557 181 532 132 q 582 296 582 231 l 582 388 q 557 503 582 454 q 488 578 532 551 q 383 604 443 604 q 279 578 324 604 q 210 503 235 551 q 185 388 185 454 l 185 296 q 210 181 185 231 q 279 106 235 132 q 383 79 324 79 z "},"é":{"ha":763,"x_min":65,"x_max":697,"o":"m 388 -17 q 218 30 290 -17 q 106 160 146 76 q 65 358 65 244 q 106 556 65 472 q 218 687 146 640 q 388 733 290 733 q 553 688 483 733 q 660 564 622 643 q 697 383 697 485 l 697 331 l 182 331 l 182 297 q 238 142 182 204 q 394 81 294 81 q 513 113 463 81 q 592 204 564 144 l 671 147 q 563 29 636 75 q 388 -17 489 -17 m 388 640 q 281 613 328 640 q 208 535 235 585 q 182 424 182 486 l 182 414 l 578 414 l 578 429 q 554 540 578 493 q 488 614 531 588 q 388 640 444 640 m 544 1033 l 397 813 l 325 846 l 443 1082 l 544 1033 z "},"ĕ":{"ha":763,"x_min":65,"x_max":697,"o":"m 388 -17 q 218 30 290 -17 q 106 160 146 76 q 65 358 65 244 q 106 556 65 472 q 218 687 146 640 q 388 733 290 733 q 553 688 483 733 q 660 564 622 643 q 697 383 697 485 l 697 331 l 182 331 l 182 297 q 238 142 182 204 q 394 81 294 81 q 513 113 463 81 q 592 204 564 144 l 671 147 q 563 29 636 75 q 388 -17 489 -17 m 388 640 q 281 613 328 640 q 208 535 235 585 q 182 424 182 486 l 182 414 l 578 414 l 578 429 q 554 540 578 493 q 488 614 531 588 q 388 640 444 640 m 388 828 q 295 844 332 828 q 235 886 258 860 q 199 942 213 913 q 176 1001 186 972 l 239 1032 l 268 986 q 311 935 288 956 q 388 915 335 915 q 465 935 440 915 q 507 986 489 956 l 536 1032 l 599 1001 q 576 942 589 972 q 540 886 563 913 q 480 844 517 860 q 388 828 443 828 z "},"ě":{"ha":763,"x_min":65,"x_max":697,"o":"m 388 -17 q 218 30 290 -17 q 106 160 146 76 q 65 358 65 244 q 106 556 65 472 q 218 687 146 640 q 388 733 290 733 q 553 688 483 733 q 660 564 622 643 q 697 383 697 485 l 697 331 l 182 331 l 182 297 q 238 142 182 204 q 394 81 294 81 q 513 113 463 81 q 592 204 564 144 l 671 147 q 563 29 636 75 q 388 -17 489 -17 m 388 640 q 281 613 328 640 q 208 535 235 585 q 182 424 182 486 l 182 414 l 578 414 l 578 429 q 554 540 578 493 q 488 614 531 588 q 388 640 444 640 m 457 832 l 318 832 l 164 1031 l 225 1074 l 388 911 l 550 1074 l 611 1031 l 457 832 z "},"ê":{"ha":763,"x_min":65,"x_max":697,"o":"m 388 -17 q 218 30 290 -17 q 106 160 146 76 q 65 358 65 244 q 106 556 65 472 q 218 687 146 640 q 388 733 290 733 q 553 688 483 733 q 660 564 622 643 q 697 383 697 485 l 697 331 l 182 331 l 182 297 q 238 142 182 204 q 394 81 294 81 q 513 113 463 81 q 592 204 564 144 l 671 147 q 563 29 636 75 q 388 -17 489 -17 m 388 640 q 281 613 328 640 q 208 535 235 585 q 182 424 182 486 l 182 414 l 578 414 l 578 429 q 554 540 578 493 q 488 614 531 588 q 388 640 444 640 m 318 1063 l 457 1063 l 611 864 l 550 821 l 388 983 l 225 821 l 164 864 l 318 1063 z "},"ë":{"ha":763,"x_min":65,"x_max":697,"o":"m 388 -17 q 218 30 290 -17 q 106 160 146 76 q 65 358 65 244 q 106 556 65 472 q 218 687 146 640 q 388 733 290 733 q 553 688 483 733 q 660 564 622 643 q 697 383 697 485 l 697 331 l 182 331 l 182 297 q 238 142 182 204 q 394 81 294 81 q 513 113 463 81 q 592 204 564 144 l 671 147 q 563 29 636 75 q 388 -17 489 -17 m 388 640 q 281 613 328 640 q 208 535 235 585 q 182 424 182 486 l 182 414 l 578 414 l 578 429 q 554 540 578 493 q 488 614 531 588 q 388 640 444 640 m 258 858 q 207 876 224 858 q 190 922 190 893 l 190 938 q 207 984 190 967 q 258 1001 224 1001 q 310 984 294 1001 q 326 938 326 967 l 326 922 q 310 876 326 893 q 258 858 294 858 m 517 858 q 465 876 482 858 q 449 922 449 893 l 449 938 q 465 984 449 967 q 517 1001 482 1001 q 569 984 553 1001 q 585 938 585 967 l 585 922 q 569 876 585 893 q 517 858 553 858 z "},"ė":{"ha":763,"x_min":65,"x_max":697,"o":"m 388 -17 q 218 30 290 -17 q 106 160 146 76 q 65 358 65 244 q 106 556 65 472 q 218 687 146 640 q 388 733 290 733 q 553 688 483 733 q 660 564 622 643 q 697 383 697 485 l 697 331 l 182 331 l 182 297 q 238 142 182 204 q 394 81 294 81 q 513 113 463 81 q 592 204 564 144 l 671 147 q 563 29 636 75 q 388 -17 489 -17 m 388 640 q 281 613 328 640 q 208 535 235 585 q 182 424 182 486 l 182 414 l 578 414 l 578 429 q 554 540 578 493 q 488 614 531 588 q 388 640 444 640 m 388 856 q 335 873 353 856 q 317 919 317 890 l 317 935 q 335 981 317 964 q 388 999 353 999 q 441 981 424 999 q 458 935 458 964 l 458 919 q 441 873 458 890 q 388 856 424 856 z "},"ẹ":{"ha":763,"x_min":65,"x_max":697,"o":"m 388 -17 q 218 30 290 -17 q 106 160 146 76 q 65 358 65 244 q 106 556 65 472 q 218 687 146 640 q 388 733 290 733 q 553 688 483 733 q 660 564 622 643 q 697 383 697 485 l 697 331 l 182 331 l 182 297 q 238 142 182 204 q 394 81 294 81 q 513 113 463 81 q 592 204 564 144 l 671 147 q 563 29 636 75 q 388 -17 489 -17 m 388 640 q 281 613 328 640 q 208 535 235 585 q 182 424 182 486 l 182 414 l 578 414 l 578 429 q 554 540 578 493 q 488 614 531 588 q 388 640 444 640 m 393 -235 q 340 -217 358 -235 q 322 -171 322 -200 l 322 -156 q 340 -109 322 -126 q 393 -92 358 -92 q 447 -109 429 -92 q 464 -156 464 -126 l 464 -171 q 447 -217 464 -200 q 393 -235 429 -235 z "},"è":{"ha":763,"x_min":65,"x_max":697,"o":"m 388 -17 q 218 30 290 -17 q 106 160 146 76 q 65 358 65 244 q 106 556 65 472 q 218 687 146 640 q 388 733 290 733 q 553 688 483 733 q 660 564 622 643 q 697 383 697 485 l 697 331 l 182 331 l 182 297 q 238 142 182 204 q 394 81 294 81 q 513 113 463 81 q 592 204 564 144 l 671 147 q 563 29 636 75 q 388 -17 489 -17 m 388 640 q 281 613 328 640 q 208 535 235 585 q 182 424 182 486 l 182 414 l 578 414 l 578 429 q 554 540 578 493 q 488 614 531 588 q 388 640 444 640 m 378 813 l 231 1033 l 332 1082 l 450 846 l 378 813 z "},"ẻ":{"ha":763,"x_min":65,"x_max":697,"o":"m 388 -17 q 218 30 290 -17 q 106 160 146 76 q 65 358 65 244 q 106 556 65 472 q 218 687 146 640 q 388 733 290 733 q 553 688 483 733 q 660 564 622 643 q 697 383 697 485 l 697 331 l 182 331 l 182 297 q 238 142 182 204 q 394 81 294 81 q 513 113 463 81 q 592 204 564 144 l 671 147 q 563 29 636 75 q 388 -17 489 -17 m 388 640 q 281 613 328 640 q 208 535 235 585 q 182 424 182 486 l 182 414 l 578 414 l 578 429 q 554 540 578 493 q 488 614 531 588 q 388 640 444 640 m 271 978 l 271 1063 l 422 1063 q 497 1040 475 1063 q 519 986 519 1018 q 501 919 519 956 q 451 843 483 883 l 418 801 l 354 833 l 435 978 l 271 978 z "},"ē":{"ha":763,"x_min":65,"x_max":697,"o":"m 388 -17 q 218 30 290 -17 q 106 160 146 76 q 65 358 65 244 q 106 556 65 472 q 218 687 146 640 q 388 733 290 733 q 553 688 483 733 q 660 564 622 643 q 697 383 697 485 l 697 331 l 182 331 l 182 297 q 238 142 182 204 q 394 81 294 81 q 513 113 463 81 q 592 204 564 144 l 671 147 q 563 29 636 75 q 388 -17 489 -17 m 388 640 q 281 613 328 640 q 208 535 235 585 q 182 424 182 486 l 182 414 l 578 414 l 578 429 q 554 540 578 493 q 488 614 531 588 q 388 640 444 640 m 193 885 l 193 979 l 582 979 l 582 885 l 193 885 z "},"ę":{"ha":763,"x_min":65,"x_max":697,"o":"m 494 -287 q 428 -276 458 -287 q 381 -242 399 -265 q 364 -181 364 -218 q 385 -106 364 -139 q 440 -47 407 -74 q 506 0 472 -21 l 500 7 q 455 -10 482 -3 q 388 -17 428 -17 q 218 30 290 -17 q 106 160 146 76 q 65 358 65 244 q 106 556 65 472 q 218 687 146 640 q 388 733 290 733 q 553 688 483 733 q 660 564 622 643 q 697 383 697 485 l 697 331 l 182 331 l 182 297 q 238 142 182 204 q 394 81 294 81 q 513 113 463 81 q 592 204 564 144 l 671 147 q 649 108 660 125 q 624 74 639 92 q 574 18 603 47 q 518 -42 546 -11 q 472 -106 490 -74 q 453 -169 453 -137 q 465 -203 453 -193 q 496 -212 478 -212 q 533 -203 515 -212 q 563 -179 550 -194 l 617 -233 q 574 -272 604 -256 q 494 -287 543 -287 m 182 414 l 578 414 l 578 429 q 554 540 578 493 q 488 614 531 588 q 388 640 444 640 q 281 613 328 640 q 208 535 235 585 q 182 424 182 486 l 182 414 z "},"ẽ":{"ha":763,"x_min":65,"x_max":697,"o":"m 388 -17 q 218 30 290 -17 q 106 160 146 76 q 65 358 65 244 q 106 556 65 472 q 218 687 146 640 q 388 733 290 733 q 553 688 483 733 q 660 564 622 643 q 697 383 697 485 l 697 331 l 182 331 l 182 297 q 238 142 182 204 q 394 81 294 81 q 513 113 463 81 q 592 204 564 144 l 671 147 q 563 29 636 75 q 388 -17 489 -17 m 388 640 q 281 613 328 640 q 208 535 235 585 q 182 424 182 486 l 182 414 l 578 414 l 578 429 q 554 540 578 493 q 488 614 531 588 q 388 640 444 640 m 489 850 q 426 863 453 850 q 378 886 400 875 q 322 912 344 904 q 281 919 299 919 q 240 910 258 919 q 200 882 221 900 l 154 938 q 206 988 174 965 q 286 1011 239 1011 q 349 999 322 1011 q 397 975 375 986 q 453 949 431 957 q 494 942 476 942 q 536 951 518 942 q 575 979 554 961 l 621 924 q 570 873 603 896 q 489 850 538 850 z "},"ế":{"ha":763,"x_min":65,"x_max":749,"o":"m 388 -17 q 218 30 290 -17 q 106 160 146 76 q 65 358 65 244 q 106 556 65 472 q 218 687 146 640 q 388 733 290 733 q 553 688 483 733 q 660 564 622 643 q 697 383 697 485 l 697 331 l 182 331 l 182 297 q 238 142 182 204 q 394 81 294 81 q 513 113 463 81 q 592 204 564 144 l 671 147 q 563 29 636 75 q 388 -17 489 -17 m 388 640 q 281 613 328 640 q 208 535 235 585 q 182 424 182 486 l 182 414 l 578 414 l 578 429 q 554 540 578 493 q 488 614 531 588 q 388 640 444 640 m 749 1190 l 601 969 l 533 1001 l 651 1238 l 749 1190 m 318 1035 l 457 1035 l 610 849 l 553 807 l 388 963 l 222 807 l 165 849 l 318 1035 z "},"ệ":{"ha":763,"x_min":65,"x_max":697,"o":"m 388 -17 q 218 30 290 -17 q 106 160 146 76 q 65 358 65 244 q 106 556 65 472 q 218 687 146 640 q 388 733 290 733 q 553 688 483 733 q 660 564 622 643 q 697 383 697 485 l 697 331 l 182 331 l 182 297 q 238 142 182 204 q 394 81 294 81 q 513 113 463 81 q 592 204 564 144 l 671 147 q 563 29 636 75 q 388 -17 489 -17 m 388 640 q 281 613 328 640 q 208 535 235 585 q 182 424 182 486 l 182 414 l 578 414 l 578 429 q 554 540 578 493 q 488 614 531 588 q 388 640 444 640 m 318 1063 l 457 1063 l 611 864 l 550 821 l 388 983 l 225 821 l 164 864 l 318 1063 m 393 -235 q 340 -217 358 -235 q 322 -171 322 -200 l 322 -156 q 340 -109 322 -126 q 393 -92 358 -92 q 447 -109 429 -92 q 464 -156 464 -126 l 464 -171 q 447 -217 464 -200 q 393 -235 429 -235 z "},"ề":{"ha":763,"x_min":26,"x_max":697,"o":"m 388 -17 q 218 30 290 -17 q 106 160 146 76 q 65 358 65 244 q 106 556 65 472 q 218 687 146 640 q 388 733 290 733 q 553 688 483 733 q 660 564 622 643 q 697 383 697 485 l 697 331 l 182 331 l 182 297 q 238 142 182 204 q 394 81 294 81 q 513 113 463 81 q 592 204 564 144 l 671 147 q 563 29 636 75 q 388 -17 489 -17 m 388 640 q 281 613 328 640 q 208 535 235 585 q 182 424 182 486 l 182 414 l 578 414 l 578 429 q 554 540 578 493 q 488 614 531 588 q 388 640 444 640 m 174 969 l 26 1190 l 124 1238 l 242 1001 l 174 969 m 318 1035 l 457 1035 l 610 849 l 553 807 l 388 963 l 222 807 l 165 849 l 318 1035 z "},"ể":{"ha":763,"x_min":65,"x_max":706,"o":"m 388 -17 q 218 30 290 -17 q 106 160 146 76 q 65 358 65 244 q 106 556 65 472 q 218 687 146 640 q 388 733 290 733 q 553 688 483 733 q 660 564 622 643 q 697 383 697 485 l 697 331 l 182 331 l 182 297 q 238 142 182 204 q 394 81 294 81 q 513 113 463 81 q 592 204 564 144 l 671 147 q 563 29 636 75 q 388 -17 489 -17 m 388 640 q 281 613 328 640 q 208 535 235 585 q 182 424 182 486 l 182 414 l 578 414 l 578 429 q 554 540 578 493 q 488 614 531 588 q 388 640 444 640 m 457 1142 l 457 1222 l 608 1222 q 683 1200 661 1222 q 706 1146 706 1178 q 688 1079 706 1115 q 638 1003 669 1043 l 604 961 l 543 993 l 626 1142 l 457 1142 m 318 1035 l 457 1035 l 610 849 l 553 807 l 388 963 l 222 807 l 165 849 l 318 1035 z "},"ễ":{"ha":763,"x_min":65,"x_max":697,"o":"m 388 -17 q 218 30 290 -17 q 106 160 146 76 q 65 358 65 244 q 106 556 65 472 q 218 687 146 640 q 388 733 290 733 q 553 688 483 733 q 660 564 622 643 q 697 383 697 485 l 697 331 l 182 331 l 182 297 q 238 142 182 204 q 394 81 294 81 q 513 113 463 81 q 592 204 564 144 l 671 147 q 563 29 636 75 q 388 -17 489 -17 m 388 640 q 281 613 328 640 q 208 535 235 585 q 182 424 182 486 l 182 414 l 578 414 l 578 429 q 554 540 578 493 q 488 614 531 588 q 388 640 444 640 m 288 1228 q 350 1215 324 1228 q 399 1192 376 1203 q 455 1166 432 1174 q 496 1158 478 1158 q 538 1168 519 1158 q 576 1196 556 1178 l 619 1146 q 569 1095 601 1118 q 488 1072 536 1072 q 425 1085 451 1072 q 376 1108 399 1097 q 320 1134 343 1126 q 279 1142 297 1142 q 238 1132 257 1142 q 199 1104 219 1122 l 156 1154 q 208 1205 175 1182 q 288 1228 240 1228 m 318 1035 l 457 1035 l 610 849 l 553 807 l 388 963 l 222 807 l 165 849 l 318 1035 z "},"ə":{"ha":763,"x_min":65,"x_max":697,"o":"m 65 386 l 581 386 l 581 419 q 524 574 581 513 q 368 636 468 636 q 249 604 300 636 q 171 513 199 572 l 92 569 q 200 688 126 643 q 375 733 274 733 q 544 687 472 733 q 657 556 617 640 q 697 358 697 472 q 657 160 697 244 q 544 30 617 76 q 375 -17 472 -17 q 210 28 279 -17 q 103 153 140 74 q 65 333 65 232 l 65 386 m 185 303 l 185 288 q 208 177 185 225 q 275 103 232 129 q 375 76 318 76 q 482 105 436 76 q 554 182 528 133 q 581 293 581 231 l 581 303 l 185 303 z "},"ğ":{"ha":738,"x_min":60,"x_max":722,"o":"m 722 -79 q 683 -201 722 -153 q 567 -272 644 -249 q 375 -294 490 -294 q 194 -274 264 -294 q 92 -213 124 -253 q 60 -118 60 -174 q 90 -26 60 -60 q 174 21 121 7 l 174 36 q 126 76 143 51 q 110 136 110 100 q 144 219 110 190 q 233 261 179 247 l 233 267 q 134 354 169 297 q 99 486 99 411 q 132 615 99 560 q 226 702 165 671 q 368 733 288 733 q 425 729 397 733 q 476 717 453 725 l 700 717 l 700 628 l 589 628 l 589 625 q 624 570 608 607 q 640 486 640 533 q 607 358 640 414 q 513 270 574 301 q 369 239 451 239 q 333 241 351 239 q 300 246 315 243 q 235 217 265 236 q 206 165 206 199 q 236 122 206 133 q 315 111 267 111 l 468 111 q 662 60 601 111 q 722 -79 722 10 m 369 328 q 482 362 440 328 q 524 467 524 396 l 524 506 q 482 610 524 576 q 369 644 440 644 q 257 610 299 644 q 215 506 215 576 l 215 467 q 257 362 215 396 q 369 328 299 328 m 618 -87 q 585 -19 618 -44 q 469 7 553 7 l 231 7 q 180 -33 196 -8 q 164 -90 164 -57 q 199 -171 164 -137 q 319 -204 235 -204 l 422 -204 q 567 -175 515 -204 q 618 -87 618 -146 m 367 828 q 274 844 311 828 q 215 886 238 860 q 178 942 192 913 q 156 1001 165 972 l 218 1032 l 247 986 q 290 935 267 956 q 367 915 314 915 q 444 935 419 915 q 486 986 468 956 l 515 1032 l 578 1001 q 555 942 568 972 q 519 886 542 913 q 459 844 496 860 q 367 828 422 828 z "},"ĝ":{"ha":738,"x_min":60,"x_max":722,"o":"m 722 -79 q 683 -201 722 -153 q 567 -272 644 -249 q 375 -294 490 -294 q 194 -274 264 -294 q 92 -213 124 -253 q 60 -118 60 -174 q 90 -26 60 -60 q 174 21 121 7 l 174 36 q 126 76 143 51 q 110 136 110 100 q 144 219 110 190 q 233 261 179 247 l 233 267 q 134 354 169 297 q 99 486 99 411 q 132 615 99 560 q 226 702 165 671 q 368 733 288 733 q 425 729 397 733 q 476 717 453 725 l 700 717 l 700 628 l 589 628 l 589 625 q 624 570 608 607 q 640 486 640 533 q 607 358 640 414 q 513 270 574 301 q 369 239 451 239 q 333 241 351 239 q 300 246 315 243 q 235 217 265 236 q 206 165 206 199 q 236 122 206 133 q 315 111 267 111 l 468 111 q 662 60 601 111 q 722 -79 722 10 m 369 328 q 482 362 440 328 q 524 467 524 396 l 524 506 q 482 610 524 576 q 369 644 440 644 q 257 610 299 644 q 215 506 215 576 l 215 467 q 257 362 215 396 q 369 328 299 328 m 618 -87 q 585 -19 618 -44 q 469 7 553 7 l 231 7 q 180 -33 196 -8 q 164 -90 164 -57 q 199 -171 164 -137 q 319 -204 235 -204 l 422 -204 q 567 -175 515 -204 q 618 -87 618 -146 m 300 1063 l 439 1063 l 593 864 l 532 821 l 369 983 l 207 821 l 146 864 l 300 1063 z "},"ģ":{"ha":738,"x_min":60,"x_max":722,"o":"m 722 -79 q 683 -201 722 -153 q 567 -272 644 -249 q 375 -294 490 -294 q 194 -274 264 -294 q 92 -213 124 -253 q 60 -118 60 -174 q 90 -26 60 -60 q 174 21 121 7 l 174 36 q 126 76 143 51 q 110 136 110 100 q 144 219 110 190 q 233 261 179 247 l 233 267 q 134 354 169 297 q 99 486 99 411 q 132 615 99 560 q 226 702 165 671 q 368 733 288 733 q 425 729 397 733 q 476 717 453 725 l 700 717 l 700 628 l 589 628 l 589 625 q 624 570 608 607 q 640 486 640 533 q 607 358 640 414 q 513 270 574 301 q 369 239 451 239 q 333 241 351 239 q 300 246 315 243 q 235 217 265 236 q 206 165 206 199 q 236 122 206 133 q 315 111 267 111 l 468 111 q 662 60 601 111 q 722 -79 722 10 m 369 328 q 482 362 440 328 q 524 467 524 396 l 524 506 q 482 610 524 576 q 369 644 440 644 q 257 610 299 644 q 215 506 215 576 l 215 467 q 257 362 215 396 q 369 328 299 328 m 618 -87 q 585 -19 618 -44 q 469 7 553 7 l 231 7 q 180 -33 196 -8 q 164 -90 164 -57 q 199 -171 164 -137 q 319 -204 235 -204 l 422 -204 q 567 -175 515 -204 q 618 -87 618 -146 m 371 826 q 318 844 336 826 q 300 892 300 861 l 300 907 q 325 1000 300 956 q 383 1075 350 1044 l 464 1075 q 419 1022 436 1046 q 393 967 403 999 q 429 945 417 961 q 442 906 442 929 l 442 892 q 424 844 442 861 q 371 826 406 826 z "},"ġ":{"ha":738,"x_min":60,"x_max":722,"o":"m 722 -79 q 683 -201 722 -153 q 567 -272 644 -249 q 375 -294 490 -294 q 194 -274 264 -294 q 92 -213 124 -253 q 60 -118 60 -174 q 90 -26 60 -60 q 174 21 121 7 l 174 36 q 126 76 143 51 q 110 136 110 100 q 144 219 110 190 q 233 261 179 247 l 233 267 q 134 354 169 297 q 99 486 99 411 q 132 615 99 560 q 226 702 165 671 q 368 733 288 733 q 425 729 397 733 q 476 717 453 725 l 700 717 l 700 628 l 589 628 l 589 625 q 624 570 608 607 q 640 486 640 533 q 607 358 640 414 q 513 270 574 301 q 369 239 451 239 q 333 241 351 239 q 300 246 315 243 q 235 217 265 236 q 206 165 206 199 q 236 122 206 133 q 315 111 267 111 l 468 111 q 662 60 601 111 q 722 -79 722 10 m 369 328 q 482 362 440 328 q 524 467 524 396 l 524 506 q 482 610 524 576 q 369 644 440 644 q 257 610 299 644 q 215 506 215 576 l 215 467 q 257 362 215 396 q 369 328 299 328 m 618 -87 q 585 -19 618 -44 q 469 7 553 7 l 231 7 q 180 -33 196 -8 q 164 -90 164 -57 q 199 -171 164 -137 q 319 -204 235 -204 l 422 -204 q 567 -175 515 -204 q 618 -87 618 -146 m 369 856 q 317 873 335 856 q 299 919 299 890 l 299 935 q 317 981 299 964 q 369 999 335 999 q 423 981 406 999 q 440 935 440 964 l 440 919 q 423 873 440 890 q 369 856 406 856 z "},"ħ":{"ha":789,"x_min":29,"x_max":678,"o":"m 229 0 l 118 0 l 118 844 l 29 844 l 29 931 l 118 931 l 118 1028 l 229 1028 l 229 931 l 438 931 l 438 844 l 229 844 l 229 600 l 235 600 q 309 697 261 661 q 438 733 357 733 q 613 662 549 733 q 678 460 678 590 l 678 0 l 567 0 l 567 440 q 526 585 567 536 q 404 633 485 633 q 319 619 360 633 q 254 574 279 604 q 229 497 229 543 l 229 0 z "},"ĥ":{"ha":789,"x_min":-47,"x_max":678,"o":"m 118 0 l 118 1028 l 229 1028 l 229 600 l 235 600 q 309 697 261 661 q 438 733 357 733 q 613 662 549 733 q 678 460 678 590 l 678 0 l 567 0 l 567 440 q 526 585 567 536 q 404 633 485 633 q 319 619 360 633 q 254 574 279 604 q 229 497 229 543 l 229 0 l 118 0 m 107 1282 l 246 1282 l 400 1083 l 339 1040 l 176 1203 l 14 1040 l -47 1083 l 107 1282 z "},"ı":{"ha":347,"x_min":118,"x_max":229,"o":"m 229 0 l 118 0 l 118 717 l 229 717 l 229 0 z "},"í":{"ha":347,"x_min":111,"x_max":331,"o":"m 229 0 l 118 0 l 118 717 l 229 717 l 229 0 m 331 1033 l 183 813 l 111 846 l 229 1082 l 331 1033 z "},"ĭ":{"ha":347,"x_min":-37,"x_max":385,"o":"m 229 0 l 118 0 l 118 717 l 229 717 l 229 0 m 174 828 q 81 844 118 828 q 22 886 44 860 q -15 942 -1 913 q -37 1001 -28 972 l 25 1032 l 54 986 q 97 935 74 956 q 174 915 121 915 q 251 935 226 915 q 293 986 275 956 l 322 1032 l 385 1001 q 362 942 375 972 q 326 886 349 913 q 266 844 303 860 q 174 828 229 828 z "},"ǐ":{"ha":347,"x_min":-50,"x_max":397,"o":"m 229 0 l 118 0 l 118 717 l 229 717 l 229 0 m 243 832 l 104 832 l -50 1031 l 11 1074 l 174 911 l 336 1074 l 397 1031 l 243 832 z "},"î":{"ha":347,"x_min":-50,"x_max":397,"o":"m 229 0 l 118 0 l 118 717 l 229 717 l 229 0 m 104 1063 l 243 1063 l 397 864 l 336 821 l 174 983 l 11 821 l -50 864 l 104 1063 z "},"ï":{"ha":347,"x_min":-24,"x_max":371,"o":"m 229 0 l 118 0 l 118 717 l 229 717 l 229 0 m 44 858 q -7 876 10 858 q -24 922 -24 893 l -24 938 q -7 984 -24 967 q 44 1001 10 1001 q 97 984 81 1001 q 113 938 113 967 l 113 922 q 97 876 113 893 q 44 858 81 858 m 303 858 q 251 876 268 858 q 235 922 235 893 l 235 938 q 251 984 235 967 q 303 1001 268 1001 q 355 984 339 1001 q 371 938 371 967 l 371 922 q 355 876 371 893 q 303 858 339 858 z "},"ị":{"ha":347,"x_min":103,"x_max":244,"o":"m 174 885 q 122 902 139 885 q 106 947 106 919 l 106 965 q 122 1010 106 993 q 174 1028 139 1028 q 226 1010 210 1028 q 242 965 242 993 l 242 947 q 226 902 242 919 q 174 885 210 885 m 118 0 l 118 717 l 229 717 l 229 0 l 118 0 m 174 -235 q 121 -217 139 -235 q 103 -171 103 -200 l 103 -156 q 121 -109 103 -126 q 174 -92 139 -92 q 227 -109 210 -92 q 244 -156 244 -126 l 244 -171 q 227 -217 244 -200 q 174 -235 210 -235 z "},"ì":{"ha":347,"x_min":17,"x_max":236,"o":"m 229 0 l 118 0 l 118 717 l 229 717 l 229 0 m 164 813 l 17 1033 l 118 1082 l 236 846 l 164 813 z "},"ỉ":{"ha":347,"x_min":57,"x_max":306,"o":"m 229 0 l 118 0 l 118 717 l 229 717 l 229 0 m 57 978 l 57 1063 l 208 1063 q 283 1040 261 1063 q 306 986 306 1018 q 288 919 306 956 q 238 843 269 883 l 204 801 l 140 833 l 221 978 l 57 978 z "},"ī":{"ha":347,"x_min":-21,"x_max":368,"o":"m 229 0 l 118 0 l 118 717 l 229 717 l 229 0 m -21 885 l -21 979 l 368 979 l 368 885 l -21 885 z "},"į":{"ha":347,"x_min":4,"x_max":258,"o":"m 118 717 l 229 717 l 229 0 q 141 -86 169 -54 q 103 -137 113 -118 q 93 -171 93 -156 q 106 -203 93 -193 q 136 -212 118 -212 q 173 -203 156 -212 q 203 -179 190 -194 l 258 -233 q 215 -272 246 -256 q 136 -287 185 -287 q 70 -276 100 -287 q 22 -242 40 -265 q 4 -182 4 -218 q 24 -116 4 -146 q 76 -59 44 -86 q 146 -6 108 -32 l 146 0 l 118 0 l 118 717 m 174 885 q 122 902 139 885 q 106 947 106 919 l 106 965 q 122 1010 106 993 q 174 1028 139 1028 q 226 1010 210 1028 q 242 965 242 993 l 242 947 q 226 902 242 919 q 174 885 210 885 z "},"ĩ":{"ha":347,"x_min":-40,"x_max":388,"o":"m 229 0 l 118 0 l 118 717 l 229 717 l 229 0 m 261 856 q 206 866 229 856 q 164 886 183 876 q 121 907 138 900 q 85 914 104 914 q 44 904 63 914 q 6 876 25 894 l -40 932 q 10 983 -21 960 q 86 1006 42 1006 q 142 995 118 1006 q 183 975 165 985 q 227 954 210 961 q 263 947 244 947 q 303 957 285 947 q 342 985 322 967 l 388 929 q 338 878 369 901 q 261 856 306 856 z "},"ĳ":{"ha":689,"x_min":106,"x_max":583,"o":"m 174 885 q 122 902 139 885 q 106 947 106 919 l 106 965 q 122 1010 106 993 q 174 1028 139 1028 q 226 1010 210 1028 q 242 965 242 993 l 242 947 q 226 902 242 919 q 174 885 210 885 m 118 0 l 118 717 l 229 717 l 229 0 l 118 0 m 460 -181 l 460 717 l 571 717 l 571 -111 q 533 -231 571 -185 q 415 -278 496 -278 l 343 -278 l 343 -181 l 460 -181 m 515 885 q 464 902 481 885 q 447 947 447 919 l 447 965 q 464 1010 447 993 q 515 1028 481 1028 q 567 1010 551 1028 q 583 965 583 993 l 583 947 q 567 902 583 919 q 515 885 551 885 z "},"ȷ":{"ha":347,"x_min":1,"x_max":229,"o":"m 1 -278 l 1 -181 l 118 -181 l 118 717 l 229 717 l 229 -111 q 192 -231 229 -185 q 74 -278 154 -278 l 1 -278 z "},"ĵ":{"ha":347,"x_min":-50,"x_max":397,"o":"m 1 -278 l 1 -181 l 118 -181 l 118 717 l 229 717 l 229 -111 q 192 -231 229 -185 q 74 -278 154 -278 l 1 -278 m 104 1063 l 243 1063 l 397 864 l 336 821 l 174 983 l 11 821 l -50 864 l 104 1063 z "},"ķ":{"ha":732,"x_min":118,"x_max":708,"o":"m 118 0 l 118 1028 l 229 1028 l 229 504 l 229 376 l 235 376 l 344 499 l 547 717 l 682 717 l 417 433 l 708 0 l 574 0 l 336 365 l 229 256 l 229 0 l 118 0 m 406 -92 q 458 -109 440 -92 q 476 -157 476 -126 l 476 -172 q 451 -265 476 -221 q 393 -340 426 -308 l 313 -340 q 357 -287 340 -311 q 383 -232 374 -264 q 347 -210 360 -226 q 335 -171 335 -193 l 335 -157 q 353 -109 335 -126 q 406 -92 371 -92 z "},"ĸ":{"ha":732,"x_min":118,"x_max":708,"o":"m 574 0 l 336 365 l 229 256 l 229 0 l 118 0 l 118 717 l 229 717 l 229 504 l 229 379 l 235 379 l 346 501 l 550 717 l 686 717 l 417 436 l 708 0 l 574 0 z "},"ĺ":{"ha":378,"x_min":111,"x_max":335,"o":"m 335 0 l 236 0 q 149 33 179 0 q 118 115 118 65 l 118 1028 l 229 1028 l 229 97 l 335 97 l 335 0 m 331 1311 l 183 1090 l 111 1124 l 229 1360 l 331 1311 z "},"ľ":{"ha":381,"x_min":118,"x_max":451,"o":"m 335 0 l 236 0 q 149 33 179 0 q 118 115 118 65 l 118 1028 l 229 1028 l 229 97 l 335 97 l 335 0 m 451 1028 l 379 771 l 306 771 l 322 1028 l 451 1028 z "},"ļ":{"ha":378,"x_min":118,"x_max":335,"o":"m 335 0 l 236 0 q 149 33 179 0 q 118 115 118 65 l 118 1028 l 229 1028 l 229 97 l 335 97 l 335 0 m 228 -92 q 281 -109 263 -92 q 299 -157 299 -126 l 299 -172 q 274 -265 299 -221 q 215 -340 249 -308 l 135 -340 q 179 -287 163 -311 q 206 -232 196 -264 q 169 -210 182 -226 q 157 -171 157 -193 l 157 -157 q 175 -109 157 -126 q 228 -92 193 -92 z "},"ŀ":{"ha":497,"x_min":118,"x_max":493,"o":"m 335 0 l 236 0 q 149 33 179 0 q 118 115 118 65 l 118 1028 l 229 1028 l 229 97 l 335 97 l 335 0 m 422 351 q 369 369 388 351 q 351 415 351 386 l 351 431 q 369 477 351 460 q 422 494 388 494 q 476 477 458 494 q 493 431 493 460 l 493 415 q 476 369 493 386 q 422 351 458 351 z "},"ł":{"ha":386,"x_min":25,"x_max":376,"o":"m 339 97 l 339 0 l 240 0 q 153 33 183 0 q 122 115 122 65 l 122 451 l 25 419 l 25 514 l 122 546 l 122 1028 l 233 1028 l 233 583 l 376 631 l 376 536 l 233 489 l 233 97 l 339 97 z "},"ń":{"ha":789,"x_min":118,"x_max":678,"o":"m 229 0 l 118 0 l 118 717 l 229 717 l 229 600 l 235 600 q 309 697 261 661 q 438 733 357 733 q 613 662 549 733 q 678 460 678 590 l 678 0 l 567 0 l 567 440 q 526 585 567 536 q 404 633 485 633 q 319 619 360 633 q 254 574 279 604 q 229 497 229 543 l 229 0 m 557 1033 l 410 813 l 338 846 l 456 1082 l 557 1033 z "},"ň":{"ha":789,"x_min":118,"x_max":678,"o":"m 229 0 l 118 0 l 118 717 l 229 717 l 229 600 l 235 600 q 309 697 261 661 q 438 733 357 733 q 613 662 549 733 q 678 460 678 590 l 678 0 l 567 0 l 567 440 q 526 585 567 536 q 404 633 485 633 q 319 619 360 633 q 254 574 279 604 q 229 497 229 543 l 229 0 m 469 832 l 331 832 l 176 1031 l 238 1074 l 400 911 l 563 1074 l 624 1031 l 469 832 z "},"ņ":{"ha":789,"x_min":118,"x_max":678,"o":"m 229 0 l 118 0 l 118 717 l 229 717 l 229 600 l 235 600 q 309 697 261 661 q 438 733 357 733 q 613 662 549 733 q 678 460 678 590 l 678 0 l 567 0 l 567 440 q 526 585 567 536 q 404 633 485 633 q 319 619 360 633 q 254 574 279 604 q 229 497 229 543 l 229 0 m 399 -92 q 451 -109 433 -92 q 469 -157 469 -126 l 469 -172 q 444 -265 469 -221 q 386 -340 419 -308 l 306 -340 q 350 -287 333 -311 q 376 -232 367 -264 q 340 -210 353 -226 q 328 -171 328 -193 l 328 -157 q 346 -109 328 -126 q 399 -92 364 -92 z "},"ñ":{"ha":789,"x_min":118,"x_max":678,"o":"m 229 0 l 118 0 l 118 717 l 229 717 l 229 600 l 235 600 q 309 697 261 661 q 438 733 357 733 q 613 662 549 733 q 678 460 678 590 l 678 0 l 567 0 l 567 440 q 526 585 567 536 q 404 633 485 633 q 319 619 360 633 q 254 574 279 604 q 229 497 229 543 l 229 0 m 501 850 q 439 863 465 850 q 390 886 413 875 q 334 912 357 904 q 293 919 311 919 q 252 910 271 919 q 213 882 233 900 l 167 938 q 219 988 186 965 q 299 1011 251 1011 q 361 999 335 1011 q 410 975 388 986 q 466 949 443 957 q 507 942 489 942 q 549 951 531 942 q 588 979 567 961 l 633 924 q 583 873 615 896 q 501 850 550 850 z "},"ŉ":{"ha":1126,"x_min":61,"x_max":1015,"o":"m 196 1042 q 260 1019 240 1042 q 281 960 281 996 l 281 940 q 247 815 281 885 q 154 694 214 746 l 61 694 q 128 778 103 739 q 165 867 154 818 q 124 893 138 874 q 111 940 111 913 l 111 960 q 132 1019 111 996 q 196 1042 153 1042 m 567 0 l 456 0 l 456 717 l 567 717 l 567 600 l 572 600 q 647 697 599 661 q 775 733 694 733 q 951 662 886 733 q 1015 460 1015 590 l 1015 0 l 904 0 l 904 440 q 863 585 904 536 q 742 633 822 633 q 657 619 697 633 q 592 574 617 604 q 567 497 567 543 l 567 0 z "},"ŋ":{"ha":789,"x_min":118,"x_max":678,"o":"m 450 -278 l 450 -181 l 567 -181 l 567 440 q 526 585 567 536 q 404 633 485 633 q 319 619 360 633 q 254 574 279 604 q 229 497 229 543 l 229 0 l 118 0 l 118 717 l 229 717 l 229 600 l 235 600 q 309 697 261 661 q 438 733 357 733 q 613 662 549 733 q 678 460 678 590 l 678 -114 q 640 -233 678 -187 q 524 -278 603 -278 l 450 -278 z "},"ó":{"ha":778,"x_min":65,"x_max":713,"o":"m 389 -17 q 220 30 293 -17 q 106 160 147 76 q 65 358 65 244 q 106 556 65 472 q 220 687 147 640 q 389 733 293 733 q 558 687 485 733 q 672 556 631 640 q 713 358 713 472 q 672 160 713 244 q 558 30 631 76 q 389 -17 485 -17 m 389 82 q 536 138 479 82 q 593 307 593 193 l 593 410 q 536 579 593 524 q 389 635 479 635 q 242 579 300 635 q 185 410 185 524 l 185 307 q 242 138 185 193 q 389 82 300 82 m 546 1033 l 399 813 l 326 846 l 444 1082 l 546 1033 z "},"ŏ":{"ha":778,"x_min":65,"x_max":713,"o":"m 389 -17 q 220 30 293 -17 q 106 160 147 76 q 65 358 65 244 q 106 556 65 472 q 220 687 147 640 q 389 733 293 733 q 558 687 485 733 q 672 556 631 640 q 713 358 713 472 q 672 160 713 244 q 558 30 631 76 q 389 -17 485 -17 m 389 82 q 536 138 479 82 q 593 307 593 193 l 593 410 q 536 579 593 524 q 389 635 479 635 q 242 579 300 635 q 185 410 185 524 l 185 307 q 242 138 185 193 q 389 82 300 82 m 389 828 q 297 844 333 828 q 237 886 260 860 q 201 942 214 913 q 178 1001 188 972 l 240 1032 l 269 986 q 313 935 289 956 q 389 915 336 915 q 466 935 442 915 q 508 986 490 956 l 538 1032 l 600 1001 q 577 942 590 972 q 541 886 564 913 q 481 844 518 860 q 389 828 444 828 z "},"ǒ":{"ha":778,"x_min":65,"x_max":713,"o":"m 389 -17 q 220 30 293 -17 q 106 160 147 76 q 65 358 65 244 q 106 556 65 472 q 220 687 147 640 q 389 733 293 733 q 558 687 485 733 q 672 556 631 640 q 713 358 713 472 q 672 160 713 244 q 558 30 631 76 q 389 -17 485 -17 m 389 82 q 536 138 479 82 q 593 307 593 193 l 593 410 q 536 579 593 524 q 389 635 479 635 q 242 579 300 635 q 185 410 185 524 l 185 307 q 242 138 185 193 q 389 82 300 82 m 458 832 l 319 832 l 165 1031 l 226 1074 l 389 911 l 551 1074 l 613 1031 l 458 832 z "},"ô":{"ha":778,"x_min":65,"x_max":713,"o":"m 389 -17 q 220 30 293 -17 q 106 160 147 76 q 65 358 65 244 q 106 556 65 472 q 220 687 147 640 q 389 733 293 733 q 558 687 485 733 q 672 556 631 640 q 713 358 713 472 q 672 160 713 244 q 558 30 631 76 q 389 -17 485 -17 m 389 82 q 536 138 479 82 q 593 307 593 193 l 593 410 q 536 579 593 524 q 389 635 479 635 q 242 579 300 635 q 185 410 185 524 l 185 307 q 242 138 185 193 q 389 82 300 82 m 319 1063 l 458 1063 l 613 864 l 551 821 l 389 983 l 226 821 l 165 864 l 319 1063 z "},"ö":{"ha":778,"x_min":65,"x_max":713,"o":"m 389 -17 q 220 30 293 -17 q 106 160 147 76 q 65 358 65 244 q 106 556 65 472 q 220 687 147 640 q 389 733 293 733 q 558 687 485 733 q 672 556 631 640 q 713 358 713 472 q 672 160 713 244 q 558 30 631 76 q 389 -17 485 -17 m 389 82 q 536 138 479 82 q 593 307 593 193 l 593 410 q 536 579 593 524 q 389 635 479 635 q 242 579 300 635 q 185 410 185 524 l 185 307 q 242 138 185 193 q 389 82 300 82 m 260 858 q 208 876 225 858 q 192 922 192 893 l 192 938 q 208 984 192 967 q 260 1001 225 1001 q 312 984 296 1001 q 328 938 328 967 l 328 922 q 312 876 328 893 q 260 858 296 858 m 518 858 q 467 876 483 858 q 450 922 450 893 l 450 938 q 467 984 450 967 q 518 1001 483 1001 q 570 984 554 1001 q 586 938 586 967 l 586 922 q 570 876 586 893 q 518 858 554 858 z "},"ọ":{"ha":778,"x_min":65,"x_max":713,"o":"m 389 -17 q 220 30 293 -17 q 106 160 147 76 q 65 358 65 244 q 106 556 65 472 q 220 687 147 640 q 389 733 293 733 q 558 687 485 733 q 672 556 631 640 q 713 358 713 472 q 672 160 713 244 q 558 30 631 76 q 389 -17 485 -17 m 389 82 q 536 138 479 82 q 593 307 593 193 l 593 410 q 536 579 593 524 q 389 635 479 635 q 242 579 300 635 q 185 410 185 524 l 185 307 q 242 138 185 193 q 389 82 300 82 m 389 -235 q 336 -217 354 -235 q 318 -171 318 -200 l 318 -156 q 336 -109 318 -126 q 389 -92 354 -92 q 442 -109 425 -92 q 460 -156 460 -126 l 460 -171 q 442 -217 460 -200 q 389 -235 425 -235 z "},"ò":{"ha":778,"x_min":65,"x_max":713,"o":"m 389 -17 q 220 30 293 -17 q 106 160 147 76 q 65 358 65 244 q 106 556 65 472 q 220 687 147 640 q 389 733 293 733 q 558 687 485 733 q 672 556 631 640 q 713 358 713 472 q 672 160 713 244 q 558 30 631 76 q 389 -17 485 -17 m 389 82 q 536 138 479 82 q 593 307 593 193 l 593 410 q 536 579 593 524 q 389 635 479 635 q 242 579 300 635 q 185 410 185 524 l 185 307 q 242 138 185 193 q 389 82 300 82 m 379 813 l 232 1033 l 333 1082 l 451 846 l 379 813 z "},"ỏ":{"ha":778,"x_min":65,"x_max":713,"o":"m 389 -17 q 220 30 293 -17 q 106 160 147 76 q 65 358 65 244 q 106 556 65 472 q 220 687 147 640 q 389 733 293 733 q 558 687 485 733 q 672 556 631 640 q 713 358 713 472 q 672 160 713 244 q 558 30 631 76 q 389 -17 485 -17 m 389 82 q 536 138 479 82 q 593 307 593 193 l 593 410 q 536 579 593 524 q 389 635 479 635 q 242 579 300 635 q 185 410 185 524 l 185 307 q 242 138 185 193 q 389 82 300 82 m 272 978 l 272 1063 l 424 1063 q 499 1040 476 1063 q 521 986 521 1018 q 503 919 521 956 q 453 843 485 883 l 419 801 l 356 833 l 436 978 l 272 978 z "},"ő":{"ha":778,"x_min":65,"x_max":713,"o":"m 389 -17 q 220 30 293 -17 q 106 160 147 76 q 65 358 65 244 q 106 556 65 472 q 220 687 147 640 q 389 733 293 733 q 558 687 485 733 q 672 556 631 640 q 713 358 713 472 q 672 160 713 244 q 558 30 631 76 q 389 -17 485 -17 m 389 82 q 536 138 479 82 q 593 307 593 193 l 593 410 q 536 579 593 524 q 389 635 479 635 q 242 579 300 635 q 185 410 185 524 l 185 307 q 242 138 185 193 q 389 82 300 82 m 435 1035 l 288 814 l 221 844 l 339 1081 l 435 1035 m 657 1035 l 510 814 l 443 844 l 561 1081 l 657 1035 z "},"ō":{"ha":778,"x_min":65,"x_max":713,"o":"m 389 -17 q 220 30 293 -17 q 106 160 147 76 q 65 358 65 244 q 106 556 65 472 q 220 687 147 640 q 389 733 293 733 q 558 687 485 733 q 672 556 631 640 q 713 358 713 472 q 672 160 713 244 q 558 30 631 76 q 389 -17 485 -17 m 389 82 q 536 138 479 82 q 593 307 593 193 l 593 410 q 536 579 593 524 q 389 635 479 635 q 242 579 300 635 q 185 410 185 524 l 185 307 q 242 138 185 193 q 389 82 300 82 m 194 885 l 194 979 l 583 979 l 583 885 l 194 885 z "},"ø":{"ha":789,"x_min":49,"x_max":740,"o":"m 111 -56 l 49 -8 l 142 108 q 89 219 107 157 q 71 358 71 282 q 112 556 71 472 q 226 687 153 640 q 394 733 299 733 q 502 715 451 733 q 592 665 553 697 l 678 772 l 740 725 l 647 607 q 699 497 681 560 q 718 358 718 433 q 677 160 718 244 q 563 30 636 76 q 394 -17 490 -17 q 287 1 336 -17 q 197 50 238 18 l 111 -56 m 394 82 q 542 138 485 82 q 599 307 599 193 l 599 410 q 596 451 599 432 q 589 488 593 471 q 579 519 585 506 l 576 519 l 394 296 l 258 128 q 319 94 285 106 q 394 82 354 82 m 394 635 q 248 579 306 635 q 190 410 190 524 l 190 307 q 192 267 190 286 q 199 230 194 247 q 210 197 204 213 l 213 197 l 394 421 l 531 589 q 469 624 504 613 q 394 635 435 635 z "},"ǿ":{"ha":789,"x_min":49,"x_max":740,"o":"m 111 -56 l 49 -8 l 142 108 q 89 219 107 157 q 71 358 71 282 q 112 556 71 472 q 226 687 153 640 q 394 733 299 733 q 502 715 451 733 q 592 665 553 697 l 678 772 l 740 725 l 647 607 q 699 497 681 560 q 718 358 718 433 q 677 160 718 244 q 563 30 636 76 q 394 -17 490 -17 q 287 1 336 -17 q 197 50 238 18 l 111 -56 m 394 82 q 542 138 485 82 q 599 307 599 193 l 599 410 q 596 451 599 432 q 589 488 593 471 q 579 519 585 506 l 576 519 l 394 296 l 258 128 q 319 94 285 106 q 394 82 354 82 m 394 635 q 248 579 306 635 q 190 410 190 524 l 190 307 q 192 267 190 286 q 199 230 194 247 q 210 197 204 213 l 213 197 l 394 421 l 531 589 q 469 624 504 613 q 394 635 435 635 m 551 1033 l 404 813 l 332 846 l 450 1082 l 551 1033 z "},"õ":{"ha":778,"x_min":65,"x_max":713,"o":"m 389 -17 q 220 30 293 -17 q 106 160 147 76 q 65 358 65 244 q 106 556 65 472 q 220 687 147 640 q 389 733 293 733 q 558 687 485 733 q 672 556 631 640 q 713 358 713 472 q 672 160 713 244 q 558 30 631 76 q 389 -17 485 -17 m 389 82 q 536 138 479 82 q 593 307 593 193 l 593 410 q 536 579 593 524 q 389 635 479 635 q 242 579 300 635 q 185 410 185 524 l 185 307 q 242 138 185 193 q 389 82 300 82 m 490 850 q 428 863 454 850 q 379 886 401 875 q 323 912 346 904 q 282 919 300 919 q 241 910 260 919 q 201 882 222 900 l 156 938 q 208 988 175 965 q 288 1011 240 1011 q 350 999 324 1011 q 399 975 376 986 q 455 949 432 957 q 496 942 478 942 q 538 951 519 942 q 576 979 556 961 l 622 924 q 572 873 604 896 q 490 850 539 850 z "},"ơ":{"ha":778,"x_min":65,"x_max":721,"o":"m 622 872 l 721 872 l 721 736 q 703 674 721 699 q 635 649 686 649 l 606 649 l 606 646 q 668 564 644 610 q 702 466 692 518 q 713 358 713 414 q 672 160 713 244 q 558 30 631 76 q 389 -17 485 -17 q 220 30 293 -17 q 106 160 147 76 q 65 358 65 244 q 106 556 65 472 q 220 687 147 640 q 389 733 293 733 q 444 729 417 733 q 494 717 471 725 l 622 717 l 622 872 m 389 82 q 536 138 479 82 q 593 307 593 193 l 593 410 q 536 579 593 524 q 389 635 479 635 q 242 579 300 635 q 185 410 185 524 l 185 307 q 242 138 185 193 q 389 82 300 82 z "},"ớ":{"ha":778,"x_min":65,"x_max":721,"o":"m 622 872 l 721 872 l 721 736 q 703 674 721 699 q 635 649 686 649 l 606 649 l 606 646 q 668 564 644 610 q 702 466 692 518 q 713 358 713 414 q 672 160 713 244 q 558 30 631 76 q 389 -17 485 -17 q 220 30 293 -17 q 106 160 147 76 q 65 358 65 244 q 106 556 65 472 q 220 687 147 640 q 389 733 293 733 q 444 729 417 733 q 494 717 471 725 l 622 717 l 622 872 m 389 82 q 536 138 479 82 q 593 307 593 193 l 593 410 q 536 579 593 524 q 389 635 479 635 q 242 579 300 635 q 185 410 185 524 l 185 307 q 242 138 185 193 q 389 82 300 82 m 546 1033 l 399 813 l 326 846 l 444 1082 l 546 1033 z "},"ợ":{"ha":778,"x_min":65,"x_max":721,"o":"m 622 872 l 721 872 l 721 736 q 703 674 721 699 q 635 649 686 649 l 606 649 l 606 646 q 668 564 644 610 q 702 466 692 518 q 713 358 713 414 q 672 160 713 244 q 558 30 631 76 q 389 -17 485 -17 q 220 30 293 -17 q 106 160 147 76 q 65 358 65 244 q 106 556 65 472 q 220 687 147 640 q 389 733 293 733 q 444 729 417 733 q 494 717 471 725 l 622 717 l 622 872 m 389 82 q 536 138 479 82 q 593 307 593 193 l 593 410 q 536 579 593 524 q 389 635 479 635 q 242 579 300 635 q 185 410 185 524 l 185 307 q 242 138 185 193 q 389 82 300 82 m 389 -235 q 336 -217 354 -235 q 318 -171 318 -200 l 318 -156 q 336 -109 318 -126 q 389 -92 354 -92 q 442 -109 425 -92 q 460 -156 460 -126 l 460 -171 q 442 -217 460 -200 q 389 -235 425 -235 z "},"ờ":{"ha":778,"x_min":65,"x_max":721,"o":"m 622 872 l 721 872 l 721 736 q 703 674 721 699 q 635 649 686 649 l 606 649 l 606 646 q 668 564 644 610 q 702 466 692 518 q 713 358 713 414 q 672 160 713 244 q 558 30 631 76 q 389 -17 485 -17 q 220 30 293 -17 q 106 160 147 76 q 65 358 65 244 q 106 556 65 472 q 220 687 147 640 q 389 733 293 733 q 444 729 417 733 q 494 717 471 725 l 622 717 l 622 872 m 389 82 q 536 138 479 82 q 593 307 593 193 l 593 410 q 536 579 593 524 q 389 635 479 635 q 242 579 300 635 q 185 410 185 524 l 185 307 q 242 138 185 193 q 389 82 300 82 m 379 813 l 232 1033 l 333 1082 l 451 846 l 379 813 z "},"ở":{"ha":778,"x_min":65,"x_max":721,"o":"m 622 872 l 721 872 l 721 736 q 703 674 721 699 q 635 649 686 649 l 606 649 l 606 646 q 668 564 644 610 q 702 466 692 518 q 713 358 713 414 q 672 160 713 244 q 558 30 631 76 q 389 -17 485 -17 q 220 30 293 -17 q 106 160 147 76 q 65 358 65 244 q 106 556 65 472 q 220 687 147 640 q 389 733 293 733 q 444 729 417 733 q 494 717 471 725 l 622 717 l 622 872 m 389 82 q 536 138 479 82 q 593 307 593 193 l 593 410 q 536 579 593 524 q 389 635 479 635 q 242 579 300 635 q 185 410 185 524 l 185 307 q 242 138 185 193 q 389 82 300 82 m 272 978 l 272 1063 l 424 1063 q 499 1040 476 1063 q 521 986 521 1018 q 503 919 521 956 q 453 843 485 883 l 419 801 l 356 833 l 436 978 l 272 978 z "},"ỡ":{"ha":778,"x_min":65,"x_max":721,"o":"m 622 872 l 721 872 l 721 736 q 703 674 721 699 q 635 649 686 649 l 606 649 l 606 646 q 668 564 644 610 q 702 466 692 518 q 713 358 713 414 q 672 160 713 244 q 558 30 631 76 q 389 -17 485 -17 q 220 30 293 -17 q 106 160 147 76 q 65 358 65 244 q 106 556 65 472 q 220 687 147 640 q 389 733 293 733 q 444 729 417 733 q 494 717 471 725 l 622 717 l 622 872 m 389 82 q 536 138 479 82 q 593 307 593 193 l 593 410 q 536 579 593 524 q 389 635 479 635 q 242 579 300 635 q 185 410 185 524 l 185 307 q 242 138 185 193 q 389 82 300 82 m 476 856 q 422 866 444 856 q 379 886 399 876 q 336 907 353 900 q 300 914 319 914 q 259 904 278 914 q 221 876 240 894 l 175 932 q 226 983 194 960 q 301 1006 257 1006 q 357 995 333 1006 q 399 975 381 985 q 442 954 425 961 q 478 947 460 947 q 519 957 500 947 q 557 985 538 967 l 603 929 q 553 878 585 901 q 476 856 521 856 z "},"ố":{"ha":778,"x_min":65,"x_max":750,"o":"m 389 -17 q 220 30 293 -17 q 106 160 147 76 q 65 358 65 244 q 106 556 65 472 q 220 687 147 640 q 389 733 293 733 q 558 687 485 733 q 672 556 631 640 q 713 358 713 472 q 672 160 713 244 q 558 30 631 76 q 389 -17 485 -17 m 389 82 q 536 138 479 82 q 593 307 593 193 l 593 410 q 536 579 593 524 q 389 635 479 635 q 242 579 300 635 q 185 410 185 524 l 185 307 q 242 138 185 193 q 389 82 300 82 m 750 1190 l 603 969 l 535 1001 l 653 1238 l 750 1190 m 319 1035 l 458 1035 l 611 849 l 554 807 l 389 963 l 224 807 l 167 849 l 319 1035 z "},"ộ":{"ha":778,"x_min":65,"x_max":713,"o":"m 389 -17 q 220 30 293 -17 q 106 160 147 76 q 65 358 65 244 q 106 556 65 472 q 220 687 147 640 q 389 733 293 733 q 558 687 485 733 q 672 556 631 640 q 713 358 713 472 q 672 160 713 244 q 558 30 631 76 q 389 -17 485 -17 m 389 82 q 536 138 479 82 q 593 307 593 193 l 593 410 q 536 579 593 524 q 389 635 479 635 q 242 579 300 635 q 185 410 185 524 l 185 307 q 242 138 185 193 q 389 82 300 82 m 319 1063 l 458 1063 l 613 864 l 551 821 l 389 983 l 226 821 l 165 864 l 319 1063 m 389 -235 q 336 -217 354 -235 q 318 -171 318 -200 l 318 -156 q 336 -109 318 -126 q 389 -92 354 -92 q 442 -109 425 -92 q 460 -156 460 -126 l 460 -171 q 442 -217 460 -200 q 389 -235 425 -235 z "},"ồ":{"ha":778,"x_min":28,"x_max":713,"o":"m 389 -17 q 220 30 293 -17 q 106 160 147 76 q 65 358 65 244 q 106 556 65 472 q 220 687 147 640 q 389 733 293 733 q 558 687 485 733 q 672 556 631 640 q 713 358 713 472 q 672 160 713 244 q 558 30 631 76 q 389 -17 485 -17 m 389 82 q 536 138 479 82 q 593 307 593 193 l 593 410 q 536 579 593 524 q 389 635 479 635 q 242 579 300 635 q 185 410 185 524 l 185 307 q 242 138 185 193 q 389 82 300 82 m 175 969 l 28 1190 l 125 1238 l 243 1001 l 175 969 m 319 1035 l 458 1035 l 611 849 l 554 807 l 389 963 l 224 807 l 167 849 l 319 1035 z "},"ổ":{"ha":778,"x_min":65,"x_max":713,"o":"m 389 -17 q 220 30 293 -17 q 106 160 147 76 q 65 358 65 244 q 106 556 65 472 q 220 687 147 640 q 389 733 293 733 q 558 687 485 733 q 672 556 631 640 q 713 358 713 472 q 672 160 713 244 q 558 30 631 76 q 389 -17 485 -17 m 389 82 q 536 138 479 82 q 593 307 593 193 l 593 410 q 536 579 593 524 q 389 635 479 635 q 242 579 300 635 q 185 410 185 524 l 185 307 q 242 138 185 193 q 389 82 300 82 m 458 1142 l 458 1222 l 610 1222 q 685 1200 663 1222 q 707 1146 707 1178 q 689 1079 707 1115 q 639 1003 671 1043 l 606 961 l 544 993 l 628 1142 l 458 1142 m 319 1035 l 458 1035 l 611 849 l 554 807 l 389 963 l 224 807 l 167 849 l 319 1035 z "},"ỗ":{"ha":778,"x_min":65,"x_max":713,"o":"m 389 -17 q 220 30 293 -17 q 106 160 147 76 q 65 358 65 244 q 106 556 65 472 q 220 687 147 640 q 389 733 293 733 q 558 687 485 733 q 672 556 631 640 q 713 358 713 472 q 672 160 713 244 q 558 30 631 76 q 389 -17 485 -17 m 389 82 q 536 138 479 82 q 593 307 593 193 l 593 410 q 536 579 593 524 q 389 635 479 635 q 242 579 300 635 q 185 410 185 524 l 185 307 q 242 138 185 193 q 389 82 300 82 m 289 1228 q 351 1215 325 1228 q 400 1192 378 1203 q 456 1166 433 1174 q 497 1158 479 1158 q 539 1168 521 1158 q 578 1196 557 1178 l 621 1146 q 570 1095 603 1118 q 489 1072 538 1072 q 426 1085 453 1072 q 378 1108 400 1097 q 322 1134 344 1126 q 281 1142 299 1142 q 240 1132 258 1142 q 200 1104 221 1122 l 157 1154 q 209 1205 176 1182 q 289 1228 242 1228 m 319 1035 l 458 1035 l 611 849 l 554 807 l 389 963 l 224 807 l 167 849 l 319 1035 z "},"œ":{"ha":1293,"x_min":65,"x_max":1228,"o":"m 389 82 q 536 138 479 82 q 593 307 593 193 l 593 410 q 536 579 593 524 q 389 635 479 635 q 242 579 300 635 q 185 410 185 524 l 185 307 q 242 138 185 193 q 389 82 300 82 m 713 414 l 1108 414 l 1108 429 q 1085 540 1108 493 q 1018 614 1061 588 q 918 640 975 640 q 812 613 858 640 q 739 535 765 585 q 713 424 713 486 l 713 414 m 926 -17 q 804 6 857 -17 q 715 64 751 28 q 657 143 678 100 l 650 143 q 549 29 619 75 q 389 -17 479 -17 q 220 30 293 -17 q 106 160 147 76 q 65 358 65 244 q 106 556 65 472 q 220 687 147 640 q 389 733 293 733 q 549 692 481 733 q 650 574 617 651 l 658 574 q 756 690 689 647 q 918 733 824 733 q 1082 688 1013 733 q 1190 565 1151 643 q 1228 383 1228 486 l 1228 331 l 713 331 l 713 297 q 769 142 713 204 q 925 81 825 81 q 1044 113 994 81 q 1124 204 1094 144 l 1201 147 q 1096 29 1167 75 q 926 -17 1025 -17 z "},"ŕ":{"ha":510,"x_min":118,"x_max":486,"o":"m 229 0 l 118 0 l 118 717 l 229 717 l 229 585 l 236 585 q 275 649 249 619 q 343 698 301 679 q 443 717 385 717 l 486 717 l 486 606 l 421 606 q 318 590 361 606 q 252 547 275 574 q 229 486 229 521 l 229 0 m 461 1033 l 314 813 l 242 846 l 360 1082 l 461 1033 z "},"ř":{"ha":510,"x_min":81,"x_max":528,"o":"m 229 0 l 118 0 l 118 717 l 229 717 l 229 585 l 236 585 q 275 649 249 619 q 343 698 301 679 q 443 717 385 717 l 486 717 l 486 606 l 421 606 q 318 590 361 606 q 252 547 275 574 q 229 486 229 521 l 229 0 m 374 832 l 235 832 l 81 1031 l 142 1074 l 304 911 l 467 1074 l 528 1031 l 374 832 z "},"ŗ":{"ha":510,"x_min":83,"x_max":486,"o":"m 229 0 l 118 0 l 118 717 l 229 717 l 229 585 l 236 585 q 275 649 249 619 q 343 698 301 679 q 443 717 385 717 l 486 717 l 486 606 l 421 606 q 318 590 361 606 q 252 547 275 574 q 229 486 229 521 l 229 0 m 176 -92 q 229 -109 211 -92 q 247 -157 247 -126 l 247 -172 q 222 -265 247 -221 q 164 -340 197 -308 l 83 -340 q 128 -287 111 -311 q 154 -232 144 -264 q 118 -210 131 -226 q 106 -171 106 -193 l 106 -157 q 124 -109 106 -126 q 176 -92 142 -92 z "},"ś":{"ha":676,"x_min":50,"x_max":599,"o":"m 333 -17 q 167 22 235 -17 q 50 124 99 60 l 129 188 q 222 107 171 136 q 342 78 274 78 q 452 108 413 78 q 492 194 492 139 q 465 267 492 236 q 367 307 438 297 l 310 315 q 192 348 244 325 q 109 413 139 371 q 79 522 79 456 q 152 681 79 629 q 335 733 225 733 q 438 719 393 733 q 519 680 483 706 q 585 618 556 654 l 511 551 q 442 612 488 585 q 326 639 396 639 q 222 609 258 639 q 186 528 186 579 q 222 452 186 476 q 324 417 257 428 l 379 408 q 549 340 499 390 q 599 207 599 289 q 567 88 599 138 q 475 10 535 38 q 333 -17 415 -17 m 488 1033 l 340 813 l 268 846 l 386 1082 l 488 1033 z "},"š":{"ha":676,"x_min":50,"x_max":599,"o":"m 333 -17 q 167 22 235 -17 q 50 124 99 60 l 129 188 q 222 107 171 136 q 342 78 274 78 q 452 108 413 78 q 492 194 492 139 q 465 267 492 236 q 367 307 438 297 l 310 315 q 192 348 244 325 q 109 413 139 371 q 79 522 79 456 q 152 681 79 629 q 335 733 225 733 q 438 719 393 733 q 519 680 483 706 q 585 618 556 654 l 511 551 q 442 612 488 585 q 326 639 396 639 q 222 609 258 639 q 186 528 186 579 q 222 452 186 476 q 324 417 257 428 l 379 408 q 549 340 499 390 q 599 207 599 289 q 567 88 599 138 q 475 10 535 38 q 333 -17 415 -17 m 400 832 l 261 832 l 107 1031 l 168 1074 l 331 911 l 493 1074 l 554 1031 l 400 832 z "},"ş":{"ha":676,"x_min":50,"x_max":599,"o":"m 350 -287 q 261 -269 294 -287 q 213 -231 228 -250 l 265 -174 q 299 -201 278 -189 q 350 -212 319 -212 q 394 -202 376 -212 q 411 -169 411 -192 q 393 -135 411 -150 q 317 -112 375 -121 l 278 -107 l 296 -15 q 153 29 213 -8 q 50 124 93 67 l 129 188 q 222 107 171 136 q 342 78 274 78 q 452 108 413 78 q 492 194 492 139 q 465 267 492 236 q 367 307 438 297 l 310 315 q 192 348 244 325 q 109 413 139 371 q 79 522 79 456 q 152 681 79 629 q 335 733 225 733 q 438 719 393 733 q 519 680 483 706 q 585 618 556 654 l 511 551 q 442 612 488 585 q 326 639 396 639 q 222 609 258 639 q 186 528 186 579 q 222 452 186 476 q 324 417 257 428 l 379 408 q 549 340 499 390 q 599 207 599 289 q 536 51 599 110 q 365 -15 474 -8 l 351 -85 l 356 -89 q 383 -83 369 -85 q 410 -81 397 -81 q 477 -104 450 -81 q 504 -172 504 -128 q 483 -237 504 -211 q 426 -275 461 -262 q 350 -287 392 -287 z "},"ŝ":{"ha":676,"x_min":50,"x_max":599,"o":"m 333 -17 q 167 22 235 -17 q 50 124 99 60 l 129 188 q 222 107 171 136 q 342 78 274 78 q 452 108 413 78 q 492 194 492 139 q 465 267 492 236 q 367 307 438 297 l 310 315 q 192 348 244 325 q 109 413 139 371 q 79 522 79 456 q 152 681 79 629 q 335 733 225 733 q 438 719 393 733 q 519 680 483 706 q 585 618 556 654 l 511 551 q 442 612 488 585 q 326 639 396 639 q 222 609 258 639 q 186 528 186 579 q 222 452 186 476 q 324 417 257 428 l 379 408 q 549 340 499 390 q 599 207 599 289 q 567 88 599 138 q 475 10 535 38 q 333 -17 415 -17 m 261 1063 l 400 1063 l 554 864 l 493 821 l 331 983 l 168 821 l 107 864 l 261 1063 z "},"ș":{"ha":676,"x_min":50,"x_max":599,"o":"m 333 -17 q 167 22 235 -17 q 50 124 99 60 l 129 188 q 222 107 171 136 q 342 78 274 78 q 452 108 413 78 q 492 194 492 139 q 465 267 492 236 q 367 307 438 297 l 310 315 q 192 348 244 325 q 109 413 139 371 q 79 522 79 456 q 152 681 79 629 q 335 733 225 733 q 438 719 393 733 q 519 680 483 706 q 585 618 556 654 l 511 551 q 442 612 488 585 q 326 639 396 639 q 222 609 258 639 q 186 528 186 579 q 222 452 186 476 q 324 417 257 428 l 379 408 q 549 340 499 390 q 599 207 599 289 q 567 88 599 138 q 475 10 535 38 q 333 -17 415 -17 m 333 -92 q 386 -109 368 -92 q 404 -157 404 -126 l 404 -172 q 379 -265 404 -221 q 321 -340 354 -308 l 240 -340 q 285 -287 268 -311 q 311 -232 301 -264 q 275 -210 288 -226 q 263 -171 263 -193 l 263 -157 q 281 -109 263 -126 q 333 -92 299 -92 z "},"ſ":{"ha":386,"x_min":40,"x_max":422,"o":"m 157 0 l 157 619 l 40 619 l 40 717 l 157 717 l 157 861 q 196 981 157 935 q 314 1028 235 1028 l 422 1028 l 422 931 l 268 931 l 268 0 l 157 0 z "},"ß":{"ha":889,"x_min":40,"x_max":851,"o":"m 851 207 q 784 43 851 103 q 600 -17 717 -17 q 457 14 517 -17 q 354 100 397 44 l 429 167 q 509 100 465 122 q 608 78 553 78 q 709 108 674 78 q 744 194 744 139 q 724 265 744 236 q 647 307 704 294 l 604 317 q 501 353 547 331 q 428 415 456 375 q 401 522 401 456 q 468 670 401 617 q 649 725 535 724 l 649 732 q 602 897 649 843 q 457 950 556 950 q 314 897 360 950 q 268 732 268 843 l 268 0 l 157 0 l 157 619 l 40 619 l 40 717 l 157 717 l 157 724 q 192 893 157 821 q 294 1005 228 965 q 457 1044 361 1044 q 619 1005 553 1044 q 722 893 686 965 q 757 724 757 821 l 757 639 l 692 639 q 592 628 633 639 q 530 592 551 617 q 508 528 508 568 q 538 452 508 476 q 618 415 567 428 l 660 406 q 807 335 763 382 q 851 207 851 288 z "},"ŧ":{"ha":496,"x_min":44,"x_max":431,"o":"m 419 97 l 419 0 l 281 0 q 193 33 224 0 q 163 117 163 65 l 163 344 l 74 344 l 74 431 l 163 431 l 163 619 l 44 619 l 44 717 l 111 717 q 160 731 147 717 q 174 782 174 746 l 174 915 l 274 915 l 274 717 l 431 717 l 431 619 l 274 619 l 274 431 l 400 431 l 400 344 l 274 344 l 274 97 l 419 97 z "},"ť":{"ha":488,"x_min":40,"x_max":511,"o":"m 415 0 l 276 0 q 189 33 219 0 q 158 118 158 67 l 158 619 l 40 619 l 40 717 l 107 717 q 156 731 143 717 q 169 782 169 746 l 169 915 l 269 915 l 269 717 l 426 717 l 426 619 l 269 619 l 269 97 l 415 97 l 415 0 m 511 1043 l 439 786 l 365 786 l 382 1043 l 511 1043 z "},"ț":{"ha":488,"x_min":40,"x_max":426,"o":"m 415 0 l 276 0 q 189 33 219 0 q 158 118 158 67 l 158 619 l 40 619 l 40 717 l 107 717 q 156 731 143 717 q 169 782 169 746 l 169 915 l 269 915 l 269 717 l 426 717 l 426 619 l 269 619 l 269 97 l 415 97 l 415 0 m 296 -92 q 349 -109 331 -92 q 367 -157 367 -126 l 367 -172 q 342 -265 367 -221 q 283 -340 317 -308 l 203 -340 q 247 -287 231 -311 q 274 -232 264 -264 q 238 -210 250 -226 q 225 -171 225 -193 l 225 -157 q 243 -109 225 -126 q 296 -92 261 -92 z "},"ţ":{"ha":488,"x_min":40,"x_max":467,"o":"m 313 -287 q 224 -269 257 -287 q 175 -231 190 -250 l 228 -174 q 261 -201 240 -189 q 313 -212 282 -212 q 356 -202 339 -212 q 374 -169 374 -192 q 356 -135 374 -150 q 279 -112 338 -121 l 240 -107 l 269 44 l 299 0 l 276 0 q 189 33 219 0 q 158 118 158 67 l 158 619 l 40 619 l 40 717 l 107 717 q 156 731 143 717 q 169 782 169 746 l 169 915 l 269 915 l 269 717 l 426 717 l 426 619 l 269 619 l 269 97 l 415 97 l 415 0 l 331 0 l 314 -85 l 318 -89 q 346 -83 332 -85 q 372 -81 360 -81 q 440 -104 413 -81 q 467 -172 467 -128 q 445 -237 467 -211 q 389 -275 424 -262 q 313 -287 354 -287 z "},"þ":{"ha":806,"x_min":118,"x_max":736,"o":"m 118 -278 l 118 1028 l 229 1028 l 229 600 l 235 600 q 317 701 263 668 q 444 733 371 733 q 600 688 535 733 q 701 558 665 642 q 736 358 736 474 q 701 160 736 244 q 600 29 665 75 q 444 -17 535 -17 q 319 17 371 -17 q 235 117 267 50 l 229 117 l 229 -278 l 118 -278 m 414 83 q 563 142 508 83 q 617 297 617 201 l 617 419 q 563 574 617 515 q 414 633 508 633 q 322 615 364 633 q 254 567 279 597 q 229 496 229 536 l 229 229 q 254 151 229 183 q 322 101 279 118 q 414 83 364 83 z "},"ú":{"ha":789,"x_min":111,"x_max":671,"o":"m 560 0 l 560 117 l 554 117 q 488 24 533 65 q 353 -17 443 -17 q 177 55 243 -17 q 111 257 111 126 l 111 717 l 222 717 l 222 276 q 264 132 222 181 q 386 83 306 83 q 470 98 431 83 q 535 143 510 113 q 560 221 560 174 l 560 717 l 671 717 l 671 0 l 560 0 m 549 1033 l 401 813 l 329 846 l 447 1082 l 549 1033 z "},"ŭ":{"ha":789,"x_min":111,"x_max":671,"o":"m 560 0 l 560 117 l 554 117 q 488 24 533 65 q 353 -17 443 -17 q 177 55 243 -17 q 111 257 111 126 l 111 717 l 222 717 l 222 276 q 264 132 222 181 q 386 83 306 83 q 470 98 431 83 q 535 143 510 113 q 560 221 560 174 l 560 717 l 671 717 l 671 0 l 560 0 m 392 828 q 299 844 336 828 q 240 886 263 860 q 203 942 217 913 q 181 1001 190 972 l 243 1032 l 272 986 q 315 935 292 956 q 392 915 339 915 q 469 935 444 915 q 511 986 493 956 l 540 1032 l 603 1001 q 580 942 593 972 q 544 886 567 913 q 484 844 521 860 q 392 828 447 828 z "},"ǔ":{"ha":789,"x_min":111,"x_max":671,"o":"m 560 0 l 560 117 l 554 117 q 488 24 533 65 q 353 -17 443 -17 q 177 55 243 -17 q 111 257 111 126 l 111 717 l 222 717 l 222 276 q 264 132 222 181 q 386 83 306 83 q 470 98 431 83 q 535 143 510 113 q 560 221 560 174 l 560 717 l 671 717 l 671 0 l 560 0 m 461 832 l 322 832 l 168 1031 l 229 1074 l 392 911 l 554 1074 l 615 1031 l 461 832 z "},"û":{"ha":789,"x_min":111,"x_max":671,"o":"m 560 0 l 560 117 l 554 117 q 488 24 533 65 q 353 -17 443 -17 q 177 55 243 -17 q 111 257 111 126 l 111 717 l 222 717 l 222 276 q 264 132 222 181 q 386 83 306 83 q 470 98 431 83 q 535 143 510 113 q 560 221 560 174 l 560 717 l 671 717 l 671 0 l 560 0 m 322 1063 l 461 1063 l 615 864 l 554 821 l 392 983 l 229 821 l 168 864 l 322 1063 z "},"ü":{"ha":789,"x_min":111,"x_max":671,"o":"m 560 0 l 560 117 l 554 117 q 488 24 533 65 q 353 -17 443 -17 q 177 55 243 -17 q 111 257 111 126 l 111 717 l 222 717 l 222 276 q 264 132 222 181 q 386 83 306 83 q 470 98 431 83 q 535 143 510 113 q 560 221 560 174 l 560 717 l 671 717 l 671 0 l 560 0 m 263 858 q 211 876 228 858 q 194 922 194 893 l 194 938 q 211 984 194 967 q 263 1001 228 1001 q 315 984 299 1001 q 331 938 331 967 l 331 922 q 315 876 331 893 q 263 858 299 858 m 521 858 q 469 876 486 858 q 453 922 453 893 l 453 938 q 469 984 453 967 q 521 1001 486 1001 q 573 984 557 1001 q 589 938 589 967 l 589 922 q 573 876 589 893 q 521 858 557 858 z "},"ụ":{"ha":789,"x_min":111,"x_max":671,"o":"m 560 0 l 560 117 l 554 117 q 488 24 533 65 q 353 -17 443 -17 q 177 55 243 -17 q 111 257 111 126 l 111 717 l 222 717 l 222 276 q 264 132 222 181 q 386 83 306 83 q 470 98 431 83 q 535 143 510 113 q 560 221 560 174 l 560 717 l 671 717 l 671 0 l 560 0 m 386 -235 q 333 -217 351 -235 q 315 -171 315 -200 l 315 -156 q 333 -109 315 -126 q 386 -92 351 -92 q 440 -109 422 -92 q 457 -156 457 -126 l 457 -171 q 440 -217 457 -200 q 386 -235 422 -235 z "},"ù":{"ha":789,"x_min":111,"x_max":671,"o":"m 560 0 l 560 117 l 554 117 q 488 24 533 65 q 353 -17 443 -17 q 177 55 243 -17 q 111 257 111 126 l 111 717 l 222 717 l 222 276 q 264 132 222 181 q 386 83 306 83 q 470 98 431 83 q 535 143 510 113 q 560 221 560 174 l 560 717 l 671 717 l 671 0 l 560 0 m 382 813 l 235 1033 l 336 1082 l 454 846 l 382 813 z "},"ủ":{"ha":789,"x_min":111,"x_max":671,"o":"m 560 0 l 560 117 l 554 117 q 488 24 533 65 q 353 -17 443 -17 q 177 55 243 -17 q 111 257 111 126 l 111 717 l 222 717 l 222 276 q 264 132 222 181 q 386 83 306 83 q 470 98 431 83 q 535 143 510 113 q 560 221 560 174 l 560 717 l 671 717 l 671 0 l 560 0 m 275 978 l 275 1063 l 426 1063 q 501 1040 479 1063 q 524 986 524 1018 q 506 919 524 956 q 456 843 488 883 l 422 801 l 358 833 l 439 978 l 275 978 z "},"ű":{"ha":789,"x_min":111,"x_max":671,"o":"m 560 0 l 560 117 l 554 117 q 488 24 533 65 q 353 -17 443 -17 q 177 55 243 -17 q 111 257 111 126 l 111 717 l 222 717 l 222 276 q 264 132 222 181 q 386 83 306 83 q 470 98 431 83 q 535 143 510 113 q 560 221 560 174 l 560 717 l 671 717 l 671 0 l 560 0 m 438 1035 l 290 814 l 224 844 l 342 1081 l 438 1035 m 660 1035 l 513 814 l 446 844 l 564 1081 l 660 1035 z "},"ū":{"ha":789,"x_min":111,"x_max":671,"o":"m 560 0 l 560 117 l 554 117 q 488 24 533 65 q 353 -17 443 -17 q 177 55 243 -17 q 111 257 111 126 l 111 717 l 222 717 l 222 276 q 264 132 222 181 q 386 83 306 83 q 470 98 431 83 q 535 143 510 113 q 560 221 560 174 l 560 717 l 671 717 l 671 0 l 560 0 m 197 885 l 197 979 l 586 979 l 586 885 l 197 885 z "},"ų":{"ha":789,"x_min":111,"x_max":700,"o":"m 671 717 l 671 0 q 583 -86 613 -54 q 544 -137 554 -118 q 535 -171 535 -156 q 547 -203 535 -193 q 578 -212 560 -212 q 615 -203 597 -212 q 644 -179 632 -194 l 700 -233 q 657 -272 688 -256 q 578 -287 626 -287 q 512 -276 542 -287 q 464 -242 482 -265 q 446 -182 446 -218 q 488 -87 446 -129 q 586 -4 529 -44 l 586 0 l 560 0 l 560 117 l 554 117 q 488 24 533 65 q 353 -17 443 -17 q 177 55 243 -17 q 111 257 111 126 l 111 717 l 222 717 l 222 276 q 264 132 222 181 q 386 83 306 83 q 470 98 431 83 q 535 143 510 113 q 560 221 560 174 l 560 717 l 671 717 z "},"ů":{"ha":789,"x_min":111,"x_max":671,"o":"m 560 0 l 560 117 l 554 117 q 488 24 533 65 q 353 -17 443 -17 q 177 55 243 -17 q 111 257 111 126 l 111 717 l 222 717 l 222 276 q 264 132 222 181 q 386 83 306 83 q 470 98 431 83 q 535 143 510 113 q 560 221 560 174 l 560 717 l 671 717 l 671 0 l 560 0 m 392 800 q 310 821 347 800 q 252 878 274 842 q 231 960 231 914 q 252 1042 231 1006 q 310 1099 274 1078 q 392 1119 347 1119 q 474 1099 438 1119 q 531 1042 510 1078 q 553 960 553 1006 q 531 878 553 914 q 474 821 510 842 q 392 800 438 800 m 392 868 q 451 888 429 868 q 472 944 472 908 l 472 975 q 451 1031 472 1011 q 392 1051 429 1051 q 333 1031 354 1051 q 311 975 311 1011 l 311 944 q 333 888 311 908 q 392 868 354 868 z "},"ũ":{"ha":789,"x_min":111,"x_max":671,"o":"m 560 0 l 560 117 l 554 117 q 488 24 533 65 q 353 -17 443 -17 q 177 55 243 -17 q 111 257 111 126 l 111 717 l 222 717 l 222 276 q 264 132 222 181 q 386 83 306 83 q 470 98 431 83 q 535 143 510 113 q 560 221 560 174 l 560 717 l 671 717 l 671 0 l 560 0 m 493 850 q 431 863 457 850 q 382 886 404 875 q 326 912 349 904 q 285 919 303 919 q 244 910 263 919 q 204 882 225 900 l 158 938 q 210 988 178 965 q 290 1011 243 1011 q 353 999 326 1011 q 401 975 379 986 q 458 949 435 957 q 499 942 481 942 q 540 951 522 942 q 579 979 558 961 l 625 924 q 574 873 607 896 q 493 850 542 850 z "},"ư":{"ha":789,"x_min":111,"x_max":786,"o":"m 671 0 l 560 0 l 560 117 l 554 117 q 488 24 533 65 q 353 -17 443 -17 q 177 55 243 -17 q 111 257 111 126 l 111 717 l 222 717 l 222 276 q 264 132 222 181 q 386 83 306 83 q 470 98 431 83 q 535 143 510 113 q 560 221 560 174 l 560 717 l 688 717 l 688 872 l 786 872 l 786 731 q 778 687 786 707 q 752 655 771 667 q 699 643 733 643 l 629 643 l 671 685 l 671 0 z "},"ứ":{"ha":789,"x_min":111,"x_max":786,"o":"m 671 0 l 560 0 l 560 117 l 554 117 q 488 24 533 65 q 353 -17 443 -17 q 177 55 243 -17 q 111 257 111 126 l 111 717 l 222 717 l 222 276 q 264 132 222 181 q 386 83 306 83 q 470 98 431 83 q 535 143 510 113 q 560 221 560 174 l 560 717 l 688 717 l 688 872 l 786 872 l 786 731 q 778 687 786 707 q 752 655 771 667 q 699 643 733 643 l 629 643 l 671 685 l 671 0 m 549 1033 l 401 813 l 329 846 l 447 1082 l 549 1033 z "},"ự":{"ha":789,"x_min":111,"x_max":786,"o":"m 671 0 l 560 0 l 560 117 l 554 117 q 488 24 533 65 q 353 -17 443 -17 q 177 55 243 -17 q 111 257 111 126 l 111 717 l 222 717 l 222 276 q 264 132 222 181 q 386 83 306 83 q 470 98 431 83 q 535 143 510 113 q 560 221 560 174 l 560 717 l 688 717 l 688 872 l 786 872 l 786 731 q 778 687 786 707 q 752 655 771 667 q 699 643 733 643 l 629 643 l 671 685 l 671 0 m 386 -235 q 333 -217 351 -235 q 315 -171 315 -200 l 315 -156 q 333 -109 315 -126 q 386 -92 351 -92 q 440 -109 422 -92 q 457 -156 457 -126 l 457 -171 q 440 -217 457 -200 q 386 -235 422 -235 z "},"ừ":{"ha":789,"x_min":111,"x_max":786,"o":"m 671 0 l 560 0 l 560 117 l 554 117 q 488 24 533 65 q 353 -17 443 -17 q 177 55 243 -17 q 111 257 111 126 l 111 717 l 222 717 l 222 276 q 264 132 222 181 q 386 83 306 83 q 470 98 431 83 q 535 143 510 113 q 560 221 560 174 l 560 717 l 688 717 l 688 872 l 786 872 l 786 731 q 778 687 786 707 q 752 655 771 667 q 699 643 733 643 l 629 643 l 671 685 l 671 0 m 382 813 l 235 1033 l 336 1082 l 454 846 l 382 813 z "},"ử":{"ha":789,"x_min":111,"x_max":786,"o":"m 671 0 l 560 0 l 560 117 l 554 117 q 488 24 533 65 q 353 -17 443 -17 q 177 55 243 -17 q 111 257 111 126 l 111 717 l 222 717 l 222 276 q 264 132 222 181 q 386 83 306 83 q 470 98 431 83 q 535 143 510 113 q 560 221 560 174 l 560 717 l 688 717 l 688 872 l 786 872 l 786 731 q 778 687 786 707 q 752 655 771 667 q 699 643 733 643 l 629 643 l 671 685 l 671 0 m 275 978 l 275 1063 l 426 1063 q 501 1040 479 1063 q 524 986 524 1018 q 506 919 524 956 q 456 843 488 883 l 422 801 l 358 833 l 439 978 l 275 978 z "},"ữ":{"ha":789,"x_min":111,"x_max":786,"o":"m 671 0 l 560 0 l 560 117 l 554 117 q 488 24 533 65 q 353 -17 443 -17 q 177 55 243 -17 q 111 257 111 126 l 111 717 l 222 717 l 222 276 q 264 132 222 181 q 386 83 306 83 q 470 98 431 83 q 535 143 510 113 q 560 221 560 174 l 560 717 l 688 717 l 688 872 l 786 872 l 786 731 q 778 687 786 707 q 752 655 771 667 q 699 643 733 643 l 629 643 l 671 685 l 671 0 m 479 856 q 424 866 447 856 q 382 886 401 876 q 339 907 356 900 q 303 914 322 914 q 262 904 281 914 q 224 876 243 894 l 178 932 q 228 983 197 960 q 304 1006 260 1006 q 360 995 336 1006 q 401 975 383 985 q 445 954 428 961 q 481 947 463 947 q 522 957 503 947 q 560 985 540 967 l 606 929 q 556 878 588 901 q 479 856 524 856 z "},"ǖ":{"ha":789,"x_min":111,"x_max":671,"o":"m 560 0 l 560 117 l 554 117 q 488 24 533 65 q 353 -17 443 -17 q 177 55 243 -17 q 111 257 111 126 l 111 717 l 222 717 l 222 276 q 264 132 222 181 q 386 83 306 83 q 470 98 431 83 q 535 143 510 113 q 560 221 560 174 l 560 717 l 671 717 l 671 0 l 560 0 m 197 1040 l 197 1135 l 586 1135 l 586 1040 l 197 1040 m 254 829 q 203 847 219 829 q 186 893 186 864 l 186 908 q 203 955 186 938 q 254 972 219 972 q 306 955 290 972 q 322 908 322 938 l 322 893 q 306 847 322 864 q 254 829 290 829 m 529 829 q 478 847 494 829 q 461 893 461 864 l 461 908 q 478 955 461 938 q 529 972 494 972 q 581 955 565 972 q 597 908 597 938 l 597 893 q 581 847 597 864 q 529 829 565 829 z "},"ǘ":{"ha":789,"x_min":111,"x_max":671,"o":"m 560 0 l 560 117 l 554 117 q 488 24 533 65 q 353 -17 443 -17 q 177 55 243 -17 q 111 257 111 126 l 111 717 l 222 717 l 222 276 q 264 132 222 181 q 386 83 306 83 q 470 98 431 83 q 535 143 510 113 q 560 221 560 174 l 560 717 l 671 717 l 671 0 l 560 0 m 556 1190 l 408 969 l 340 1001 l 458 1238 l 556 1190 m 254 829 q 203 847 219 829 q 186 893 186 864 l 186 908 q 203 955 186 938 q 254 972 219 972 q 306 955 290 972 q 322 908 322 938 l 322 893 q 306 847 322 864 q 254 829 290 829 m 529 829 q 478 847 494 829 q 461 893 461 864 l 461 908 q 478 955 461 938 q 529 972 494 972 q 581 955 565 972 q 597 908 597 938 l 597 893 q 581 847 597 864 q 529 829 565 829 z "},"ǜ":{"ha":789,"x_min":111,"x_max":671,"o":"m 560 0 l 560 117 l 554 117 q 488 24 533 65 q 353 -17 443 -17 q 177 55 243 -17 q 111 257 111 126 l 111 717 l 222 717 l 222 276 q 264 132 222 181 q 386 83 306 83 q 470 98 431 83 q 535 143 510 113 q 560 221 560 174 l 560 717 l 671 717 l 671 0 l 560 0 m 375 969 l 228 1190 l 325 1238 l 443 1001 l 375 969 m 254 829 q 203 847 219 829 q 186 893 186 864 l 186 908 q 203 955 186 938 q 254 972 219 972 q 306 955 290 972 q 322 908 322 938 l 322 893 q 306 847 322 864 q 254 829 290 829 m 529 829 q 478 847 494 829 q 461 893 461 864 l 461 908 q 478 955 461 938 q 529 972 494 972 q 581 955 565 972 q 597 908 597 938 l 597 893 q 581 847 597 864 q 529 829 565 829 z "},"ǚ":{"ha":789,"x_min":111,"x_max":671,"o":"m 560 0 l 560 117 l 554 117 q 488 24 533 65 q 353 -17 443 -17 q 177 55 243 -17 q 111 257 111 126 l 111 717 l 222 717 l 222 276 q 264 132 222 181 q 386 83 306 83 q 470 98 431 83 q 535 143 510 113 q 560 221 560 174 l 560 717 l 671 717 l 671 0 l 560 0 m 461 1007 l 322 1007 l 169 1193 l 226 1235 l 392 1079 l 557 1235 l 614 1193 l 461 1007 m 254 829 q 203 847 219 829 q 186 893 186 864 l 186 908 q 203 955 186 938 q 254 972 219 972 q 306 955 290 972 q 322 908 322 938 l 322 893 q 306 847 322 864 q 254 829 290 829 m 529 829 q 478 847 494 829 q 461 893 461 864 l 461 908 q 478 955 461 938 q 529 972 494 972 q 581 955 565 972 q 597 908 597 938 l 597 893 q 581 847 597 864 q 529 829 565 829 z "},"ẃ":{"ha":1067,"x_min":43,"x_max":1024,"o":"m 235 0 l 43 717 l 151 717 l 228 407 l 304 93 l 307 93 l 394 407 l 485 717 l 583 717 l 676 407 l 765 93 l 768 93 l 842 407 l 919 717 l 1024 717 l 833 0 l 696 0 l 596 344 l 533 563 l 531 563 l 469 344 l 369 0 l 235 0 m 690 1033 l 543 813 l 471 846 l 589 1082 l 690 1033 z "},"ŵ":{"ha":1067,"x_min":43,"x_max":1024,"o":"m 235 0 l 43 717 l 151 717 l 228 407 l 304 93 l 307 93 l 394 407 l 485 717 l 583 717 l 676 407 l 765 93 l 768 93 l 842 407 l 919 717 l 1024 717 l 833 0 l 696 0 l 596 344 l 533 563 l 531 563 l 469 344 l 369 0 l 235 0 m 464 1063 l 603 1063 l 757 864 l 696 821 l 533 983 l 371 821 l 310 864 l 464 1063 z "},"ẅ":{"ha":1067,"x_min":43,"x_max":1024,"o":"m 235 0 l 43 717 l 151 717 l 228 407 l 304 93 l 307 93 l 394 407 l 485 717 l 583 717 l 676 407 l 765 93 l 768 93 l 842 407 l 919 717 l 1024 717 l 833 0 l 696 0 l 596 344 l 533 563 l 531 563 l 469 344 l 369 0 l 235 0 m 404 858 q 353 876 369 858 q 336 922 336 893 l 336 938 q 353 984 336 967 q 404 1001 369 1001 q 456 984 440 1001 q 472 938 472 967 l 472 922 q 456 876 472 893 q 404 858 440 858 m 663 858 q 611 876 628 858 q 594 922 594 893 l 594 938 q 611 984 594 967 q 663 1001 628 1001 q 715 984 699 1001 q 731 938 731 967 l 731 922 q 715 876 731 893 q 663 858 699 858 z "},"ẁ":{"ha":1067,"x_min":43,"x_max":1024,"o":"m 235 0 l 43 717 l 151 717 l 228 407 l 304 93 l 307 93 l 394 407 l 485 717 l 583 717 l 676 407 l 765 93 l 768 93 l 842 407 l 919 717 l 1024 717 l 833 0 l 696 0 l 596 344 l 533 563 l 531 563 l 469 344 l 369 0 l 235 0 m 524 813 l 376 1033 l 478 1082 l 596 846 l 524 813 z "},"ý":{"ha":693,"x_min":24,"x_max":669,"o":"m 386 229 l 560 717 l 669 717 l 349 -167 q 315 -234 333 -210 q 265 -268 296 -258 q 182 -278 235 -278 l 125 -278 l 125 -181 l 238 -181 l 292 -28 l 24 717 l 135 717 l 307 229 l 340 113 l 347 113 l 386 229 m 504 1033 l 357 813 l 285 846 l 403 1082 l 504 1033 z "},"ŷ":{"ha":693,"x_min":24,"x_max":669,"o":"m 386 229 l 560 717 l 669 717 l 349 -167 q 315 -234 333 -210 q 265 -268 296 -258 q 182 -278 235 -278 l 125 -278 l 125 -181 l 238 -181 l 292 -28 l 24 717 l 135 717 l 307 229 l 340 113 l 347 113 l 386 229 m 278 1063 l 417 1063 l 571 864 l 510 821 l 347 983 l 185 821 l 124 864 l 278 1063 z "},"ÿ":{"ha":693,"x_min":24,"x_max":669,"o":"m 386 229 l 560 717 l 669 717 l 349 -167 q 315 -234 333 -210 q 265 -268 296 -258 q 182 -278 235 -278 l 125 -278 l 125 -181 l 238 -181 l 292 -28 l 24 717 l 135 717 l 307 229 l 340 113 l 347 113 l 386 229 m 218 858 q 167 876 183 858 q 150 922 150 893 l 150 938 q 167 984 150 967 q 218 1001 183 1001 q 270 984 254 1001 q 286 938 286 967 l 286 922 q 270 876 286 893 q 218 858 254 858 m 476 858 q 425 876 442 858 q 408 922 408 893 l 408 938 q 425 984 408 967 q 476 1001 442 1001 q 528 984 513 1001 q 544 938 544 967 l 544 922 q 528 876 544 893 q 476 858 513 858 z "},"ỵ":{"ha":693,"x_min":24,"x_max":669,"o":"m 386 229 l 560 717 l 669 717 l 349 -167 q 315 -234 333 -210 q 265 -268 296 -258 q 182 -278 235 -278 l 125 -278 l 125 -181 l 238 -181 l 292 -28 l 24 717 l 135 717 l 307 229 l 340 113 l 347 113 l 386 229 m 544 -235 q 492 -217 510 -235 q 474 -171 474 -200 l 474 -156 q 492 -109 474 -126 q 544 -92 510 -92 q 598 -109 581 -92 q 615 -156 615 -126 l 615 -171 q 598 -217 615 -200 q 544 -235 581 -235 z "},"ỳ":{"ha":693,"x_min":24,"x_max":669,"o":"m 386 229 l 560 717 l 669 717 l 349 -167 q 315 -234 333 -210 q 265 -268 296 -258 q 182 -278 235 -278 l 125 -278 l 125 -181 l 238 -181 l 292 -28 l 24 717 l 135 717 l 307 229 l 340 113 l 347 113 l 386 229 m 338 813 l 190 1033 l 292 1082 l 410 846 l 338 813 z "},"ỷ":{"ha":693,"x_min":24,"x_max":669,"o":"m 386 229 l 560 717 l 669 717 l 349 -167 q 315 -234 333 -210 q 265 -268 296 -258 q 182 -278 235 -278 l 125 -278 l 125 -181 l 238 -181 l 292 -28 l 24 717 l 135 717 l 307 229 l 340 113 l 347 113 l 386 229 m 231 978 l 231 1063 l 382 1063 q 457 1040 435 1063 q 479 986 479 1018 q 461 919 479 956 q 411 843 443 883 l 378 801 l 314 833 l 394 978 l 231 978 z "},"ỹ":{"ha":693,"x_min":24,"x_max":669,"o":"m 386 229 l 560 717 l 669 717 l 349 -167 q 315 -234 333 -210 q 265 -268 296 -258 q 182 -278 235 -278 l 125 -278 l 125 -181 l 238 -181 l 292 -28 l 24 717 l 135 717 l 307 229 l 340 113 l 347 113 l 386 229 m 449 850 q 386 863 413 850 q 338 886 360 875 q 281 912 304 904 q 240 919 258 919 q 199 910 218 919 q 160 882 181 900 l 114 938 q 166 988 133 965 q 246 1011 199 1011 q 308 999 282 1011 q 357 975 335 986 q 413 949 390 957 q 454 942 436 942 q 496 951 478 942 q 535 979 514 961 l 581 924 q 530 873 563 896 q 449 850 497 850 z "},"ź":{"ha":644,"x_min":46,"x_max":599,"o":"m 599 0 l 46 0 l 46 93 l 453 619 l 58 619 l 58 717 l 588 717 l 588 633 l 172 97 l 599 97 l 599 0 m 479 1033 l 332 813 l 260 846 l 378 1082 l 479 1033 z "},"ž":{"ha":644,"x_min":46,"x_max":599,"o":"m 599 0 l 46 0 l 46 93 l 453 619 l 58 619 l 58 717 l 588 717 l 588 633 l 172 97 l 599 97 l 599 0 m 392 832 l 253 832 l 99 1031 l 160 1074 l 322 911 l 485 1074 l 546 1031 l 392 832 z "},"ż":{"ha":644,"x_min":46,"x_max":599,"o":"m 599 0 l 46 0 l 46 93 l 453 619 l 58 619 l 58 717 l 588 717 l 588 633 l 172 97 l 599 97 l 599 0 m 322 856 q 269 873 288 856 q 251 919 251 890 l 251 935 q 269 981 251 964 q 322 999 288 999 q 376 981 358 999 q 393 935 393 964 l 393 919 q 376 873 393 890 q 322 856 358 856 z "},"Á":{"ha":890,"x_min":32,"x_max":858,"o":"m 858 0 l 736 0 l 639 286 l 247 286 l 150 0 l 32 0 l 371 969 l 519 969 l 858 0 m 610 389 l 488 740 l 446 861 l 439 861 l 397 740 l 275 389 l 610 389 m 604 1269 l 457 1049 l 385 1082 l 503 1318 l 604 1269 z "},"Ă":{"ha":890,"x_min":32,"x_max":858,"o":"m 858 0 l 736 0 l 639 286 l 247 286 l 150 0 l 32 0 l 371 969 l 519 969 l 858 0 m 610 389 l 488 740 l 446 861 l 439 861 l 397 740 l 275 389 l 610 389 m 447 1064 q 355 1080 392 1064 q 295 1122 318 1096 q 259 1178 272 1149 q 236 1238 246 1208 l 299 1268 l 328 1222 q 371 1172 347 1192 q 447 1151 394 1151 q 524 1172 500 1151 q 567 1222 549 1192 l 596 1268 l 658 1238 q 625 1160 646 1200 q 563 1092 604 1119 q 447 1064 522 1064 z "},"Ǎ":{"ha":890,"x_min":32,"x_max":858,"o":"m 858 0 l 736 0 l 639 286 l 247 286 l 150 0 l 32 0 l 371 969 l 519 969 l 858 0 m 610 389 l 488 740 l 446 861 l 439 861 l 397 740 l 275 389 l 610 389 m 517 1068 l 378 1068 l 224 1267 l 285 1310 l 447 1147 l 610 1310 l 671 1267 l 517 1068 z "},"Â":{"ha":890,"x_min":32,"x_max":858,"o":"m 858 0 l 736 0 l 639 286 l 247 286 l 150 0 l 32 0 l 371 969 l 519 969 l 858 0 m 610 389 l 488 740 l 446 861 l 439 861 l 397 740 l 275 389 l 610 389 m 378 1299 l 517 1299 l 671 1100 l 610 1057 l 447 1219 l 285 1057 l 224 1100 l 378 1299 z "},"Ä":{"ha":890,"x_min":32,"x_max":858,"o":"m 858 0 l 736 0 l 639 286 l 247 286 l 150 0 l 32 0 l 371 969 l 519 969 l 858 0 m 610 389 l 488 740 l 446 861 l 439 861 l 397 740 l 275 389 l 610 389 m 318 1094 q 266 1113 283 1094 q 249 1160 249 1131 l 249 1176 q 266 1224 249 1206 q 318 1242 283 1242 q 371 1224 354 1242 q 388 1176 388 1206 l 388 1160 q 371 1113 388 1131 q 318 1094 354 1094 m 576 1094 q 524 1113 542 1094 q 507 1160 507 1131 l 507 1176 q 524 1224 507 1206 q 576 1242 542 1242 q 629 1224 613 1242 q 646 1176 646 1206 l 646 1160 q 629 1113 646 1131 q 576 1094 613 1094 z "},"Ạ":{"ha":890,"x_min":32,"x_max":858,"o":"m 858 0 l 736 0 l 639 286 l 247 286 l 150 0 l 32 0 l 371 969 l 519 969 l 858 0 m 610 389 l 488 740 l 446 861 l 439 861 l 397 740 l 275 389 l 610 389 m 447 -235 q 394 -217 413 -235 q 376 -171 376 -200 l 376 -156 q 394 -109 376 -126 q 447 -92 413 -92 q 501 -109 483 -92 q 518 -156 518 -126 l 518 -171 q 501 -217 518 -200 q 447 -235 483 -235 z "},"À":{"ha":890,"x_min":32,"x_max":858,"o":"m 858 0 l 736 0 l 639 286 l 247 286 l 150 0 l 32 0 l 371 969 l 519 969 l 858 0 m 610 389 l 488 740 l 446 861 l 439 861 l 397 740 l 275 389 l 610 389 m 438 1049 l 290 1269 l 392 1318 l 510 1082 l 438 1049 z "},"Ả":{"ha":890,"x_min":32,"x_max":858,"o":"m 858 0 l 736 0 l 639 286 l 247 286 l 150 0 l 32 0 l 371 969 l 519 969 l 858 0 m 610 389 l 488 740 l 446 861 l 439 861 l 397 740 l 275 389 l 610 389 m 331 1214 l 331 1299 l 482 1299 q 557 1276 535 1299 q 579 1222 579 1254 q 561 1156 579 1192 q 511 1079 543 1119 l 478 1038 l 414 1069 l 494 1214 l 331 1214 z "},"Ā":{"ha":890,"x_min":32,"x_max":858,"o":"m 858 0 l 736 0 l 639 286 l 247 286 l 150 0 l 32 0 l 371 969 l 519 969 l 858 0 m 610 389 l 488 740 l 446 861 l 439 861 l 397 740 l 275 389 l 610 389 m 253 1121 l 253 1215 l 642 1215 l 642 1121 l 253 1121 z "},"Ą":{"ha":890,"x_min":32,"x_max":888,"o":"m 32 0 l 371 969 l 519 969 l 858 0 q 771 -86 800 -54 q 732 -137 742 -118 q 722 -171 722 -156 q 735 -203 722 -193 q 765 -212 747 -212 q 802 -203 785 -212 q 832 -179 819 -194 l 888 -233 q 844 -272 875 -256 q 765 -287 814 -287 q 699 -276 729 -287 q 651 -242 669 -265 q 633 -182 633 -218 q 653 -116 633 -146 q 704 -59 672 -86 q 774 -6 736 -32 l 774 0 l 736 0 l 639 286 l 247 286 l 150 0 l 32 0 m 610 389 l 488 740 l 446 861 l 439 861 l 397 740 l 275 389 l 610 389 z "},"Å":{"ha":890,"x_min":32,"x_max":858,"o":"m 858 0 l 736 0 l 639 286 l 247 286 l 150 0 l 32 0 l 371 969 l 519 969 l 858 0 m 610 389 l 488 740 l 446 861 l 439 861 l 397 740 l 275 389 l 610 389 m 447 1036 q 366 1057 403 1036 q 308 1114 329 1078 q 286 1196 286 1150 q 308 1278 286 1242 q 366 1335 329 1314 q 447 1356 403 1356 q 529 1335 493 1356 q 587 1278 565 1314 q 608 1196 608 1242 q 587 1114 608 1150 q 529 1057 565 1078 q 447 1036 493 1036 m 447 1104 q 506 1124 485 1104 q 528 1181 528 1144 l 528 1211 q 506 1267 528 1247 q 447 1288 485 1288 q 388 1267 410 1288 q 367 1211 367 1247 l 367 1181 q 388 1124 367 1144 q 447 1104 410 1104 z "},"Ǻ":{"ha":890,"x_min":32,"x_max":858,"o":"m 858 0 l 736 0 l 639 286 l 247 286 l 150 0 l 32 0 l 371 969 l 519 969 l 858 0 m 610 389 l 488 740 l 446 861 l 439 861 l 397 740 l 275 389 l 610 389 m 600 1519 l 467 1371 l 401 1397 l 503 1554 l 600 1519 m 447 1022 q 333 1068 379 1022 q 286 1182 286 1114 q 333 1297 286 1251 q 447 1342 379 1342 q 562 1297 515 1342 q 608 1182 608 1251 q 562 1068 608 1114 q 447 1022 515 1022 m 447 1090 q 506 1110 485 1090 q 528 1167 528 1131 l 528 1197 q 506 1253 528 1233 q 447 1274 485 1274 q 388 1253 410 1274 q 367 1197 367 1233 l 367 1167 q 388 1110 367 1131 q 447 1090 410 1090 z "},"Ã":{"ha":890,"x_min":32,"x_max":858,"o":"m 858 0 l 736 0 l 639 286 l 247 286 l 150 0 l 32 0 l 371 969 l 519 969 l 858 0 m 610 389 l 488 740 l 446 861 l 439 861 l 397 740 l 275 389 l 610 389 m 549 1086 q 486 1099 513 1086 q 438 1122 460 1111 q 381 1148 404 1140 q 340 1156 358 1156 q 299 1146 318 1156 q 260 1118 281 1136 l 214 1174 q 266 1224 233 1201 q 346 1247 299 1247 q 408 1235 382 1247 q 457 1211 435 1222 q 513 1185 490 1193 q 554 1178 536 1178 q 596 1188 578 1178 q 635 1215 614 1197 l 681 1160 q 630 1109 663 1132 q 549 1086 597 1086 z "},"Ắ":{"ha":890,"x_min":32,"x_max":858,"o":"m 858 0 l 736 0 l 639 286 l 247 286 l 150 0 l 32 0 l 371 969 l 519 969 l 858 0 m 610 389 l 488 740 l 446 861 l 439 861 l 397 740 l 275 389 l 610 389 m 447 1050 q 332 1078 374 1050 q 269 1146 290 1106 q 236 1224 249 1186 l 299 1254 l 328 1201 q 369 1151 344 1171 q 447 1131 394 1131 q 525 1151 500 1131 q 567 1201 550 1171 l 596 1254 l 658 1224 q 625 1146 646 1186 q 563 1078 604 1106 q 447 1050 522 1050 m 600 1426 l 453 1206 l 385 1238 l 503 1474 l 600 1426 z "},"Ặ":{"ha":890,"x_min":32,"x_max":858,"o":"m 858 0 l 736 0 l 639 286 l 247 286 l 150 0 l 32 0 l 371 969 l 519 969 l 858 0 m 610 389 l 488 740 l 446 861 l 439 861 l 397 740 l 275 389 l 610 389 m 447 1064 q 355 1080 392 1064 q 295 1122 318 1096 q 259 1178 272 1149 q 236 1238 246 1208 l 299 1268 l 328 1222 q 371 1172 347 1192 q 447 1151 394 1151 q 524 1172 500 1151 q 567 1222 549 1192 l 596 1268 l 658 1238 q 625 1160 646 1200 q 563 1092 604 1119 q 447 1064 522 1064 m 447 -235 q 394 -217 413 -235 q 376 -171 376 -200 l 376 -156 q 394 -109 376 -126 q 447 -92 413 -92 q 501 -109 483 -92 q 518 -156 518 -126 l 518 -171 q 501 -217 518 -200 q 447 -235 483 -235 z "},"Ằ":{"ha":890,"x_min":32,"x_max":858,"o":"m 858 0 l 736 0 l 639 286 l 247 286 l 150 0 l 32 0 l 371 969 l 519 969 l 858 0 m 610 389 l 488 740 l 446 861 l 439 861 l 397 740 l 275 389 l 610 389 m 447 1050 q 332 1078 374 1050 q 269 1146 290 1106 q 236 1224 249 1186 l 299 1254 l 328 1201 q 369 1151 344 1171 q 447 1131 394 1131 q 525 1151 500 1131 q 567 1201 550 1171 l 596 1254 l 658 1224 q 625 1146 646 1186 q 563 1078 604 1106 q 447 1050 522 1050 m 442 1206 l 294 1426 l 392 1474 l 510 1238 l 442 1206 z "},"Ẳ":{"ha":890,"x_min":32,"x_max":858,"o":"m 858 0 l 736 0 l 639 286 l 247 286 l 150 0 l 32 0 l 371 969 l 519 969 l 858 0 m 610 389 l 488 740 l 446 861 l 439 861 l 397 740 l 275 389 l 610 389 m 324 1378 l 324 1458 l 454 1458 q 529 1436 507 1458 q 551 1382 551 1414 q 533 1315 551 1351 q 483 1239 515 1279 l 450 1197 l 389 1229 l 472 1378 l 324 1378 m 447 1050 q 332 1078 374 1050 q 269 1146 290 1106 q 236 1224 249 1186 l 299 1254 l 328 1201 q 369 1151 344 1171 q 447 1131 394 1131 q 525 1151 500 1131 q 567 1201 550 1171 l 596 1254 l 658 1224 q 625 1146 646 1186 q 563 1078 604 1106 q 447 1050 522 1050 z "},"Ẵ":{"ha":890,"x_min":32,"x_max":858,"o":"m 858 0 l 736 0 l 639 286 l 247 286 l 150 0 l 32 0 l 371 969 l 519 969 l 858 0 m 610 389 l 488 740 l 446 861 l 439 861 l 397 740 l 275 389 l 610 389 m 547 1308 q 485 1321 511 1308 q 436 1344 458 1333 q 380 1370 403 1363 q 339 1378 357 1378 q 298 1368 317 1378 q 258 1340 279 1358 l 215 1390 q 267 1441 235 1418 q 347 1464 300 1464 q 410 1451 383 1464 q 458 1428 436 1439 q 515 1402 492 1410 q 556 1394 538 1394 q 597 1404 579 1394 q 636 1432 615 1414 l 679 1382 q 628 1331 661 1354 q 547 1308 596 1308 m 447 1050 q 332 1078 374 1050 q 269 1146 290 1106 q 236 1224 249 1186 l 299 1254 l 328 1201 q 369 1151 344 1171 q 447 1131 394 1131 q 525 1151 500 1131 q 567 1201 550 1171 l 596 1254 l 658 1224 q 625 1146 646 1186 q 563 1078 604 1106 q 447 1050 522 1050 z "},"Ấ":{"ha":890,"x_min":32,"x_max":858,"o":"m 858 0 l 736 0 l 639 286 l 247 286 l 150 0 l 32 0 l 371 969 l 519 969 l 858 0 m 610 389 l 488 740 l 446 861 l 439 861 l 397 740 l 275 389 l 610 389 m 808 1426 l 661 1206 l 593 1238 l 711 1474 l 808 1426 m 378 1271 l 517 1271 l 669 1085 l 613 1043 l 447 1199 l 282 1043 l 225 1085 l 378 1271 z "},"Ậ":{"ha":890,"x_min":32,"x_max":858,"o":"m 858 0 l 736 0 l 639 286 l 247 286 l 150 0 l 32 0 l 371 969 l 519 969 l 858 0 m 610 389 l 488 740 l 446 861 l 439 861 l 397 740 l 275 389 l 610 389 m 378 1299 l 517 1299 l 671 1100 l 610 1057 l 447 1219 l 285 1057 l 224 1100 l 378 1299 m 447 -235 q 394 -217 413 -235 q 376 -171 376 -200 l 376 -156 q 394 -109 376 -126 q 447 -92 413 -92 q 501 -109 483 -92 q 518 -156 518 -126 l 518 -171 q 501 -217 518 -200 q 447 -235 483 -235 z "},"Ầ":{"ha":890,"x_min":32,"x_max":858,"o":"m 858 0 l 736 0 l 639 286 l 247 286 l 150 0 l 32 0 l 371 969 l 519 969 l 858 0 m 610 389 l 488 740 l 446 861 l 439 861 l 397 740 l 275 389 l 610 389 m 233 1206 l 86 1426 l 183 1474 l 301 1238 l 233 1206 m 378 1271 l 517 1271 l 669 1085 l 613 1043 l 447 1199 l 282 1043 l 225 1085 l 378 1271 z "},"Ẩ":{"ha":890,"x_min":32,"x_max":858,"o":"m 858 0 l 736 0 l 639 286 l 247 286 l 150 0 l 32 0 l 371 969 l 519 969 l 858 0 m 610 389 l 488 740 l 446 861 l 439 861 l 397 740 l 275 389 l 610 389 m 517 1378 l 517 1458 l 668 1458 q 743 1436 721 1458 q 765 1382 765 1414 q 747 1315 765 1351 q 697 1239 729 1279 l 664 1197 l 603 1229 l 686 1378 l 517 1378 m 378 1271 l 517 1271 l 669 1085 l 613 1043 l 447 1199 l 282 1043 l 225 1085 l 378 1271 z "},"Ẫ":{"ha":890,"x_min":32,"x_max":858,"o":"m 858 0 l 736 0 l 639 286 l 247 286 l 150 0 l 32 0 l 371 969 l 519 969 l 858 0 m 610 389 l 488 740 l 446 861 l 439 861 l 397 740 l 275 389 l 610 389 m 347 1464 q 410 1451 383 1464 q 458 1428 436 1439 q 515 1402 492 1410 q 556 1394 538 1394 q 597 1404 579 1394 q 636 1432 615 1414 l 679 1382 q 628 1331 661 1354 q 547 1308 596 1308 q 485 1321 511 1308 q 436 1344 458 1333 q 380 1370 403 1363 q 339 1378 357 1378 q 298 1368 317 1378 q 258 1340 279 1358 l 215 1390 q 267 1441 235 1418 q 347 1464 300 1464 m 378 1271 l 517 1271 l 669 1085 l 613 1043 l 447 1199 l 282 1043 l 225 1085 l 378 1271 z "},"Æ":{"ha":1260,"x_min":6,"x_max":1171,"o":"m 579 0 l 579 285 l 267 285 l 125 0 l 6 0 l 501 969 l 1171 969 l 1171 867 l 694 867 l 694 542 l 1143 542 l 1143 439 l 694 439 l 694 103 l 1171 103 l 1171 0 l 579 0 m 579 867 l 561 867 l 315 388 l 579 388 l 579 867 z "},"Ǽ":{"ha":1260,"x_min":6,"x_max":1171,"o":"m 579 0 l 579 285 l 267 285 l 125 0 l 6 0 l 501 969 l 1171 969 l 1171 867 l 694 867 l 694 542 l 1143 542 l 1143 439 l 694 439 l 694 103 l 1171 103 l 1171 0 l 579 0 m 579 867 l 561 867 l 315 388 l 579 388 l 579 867 m 978 1269 l 831 1049 l 758 1082 l 876 1318 l 978 1269 z "},"Ć":{"ha":863,"x_min":81,"x_max":811,"o":"m 471 -17 q 261 40 349 -17 q 127 206 174 96 q 81 479 81 317 q 127 755 81 642 q 261 927 174 868 q 471 986 349 986 q 675 931 592 986 q 804 774 758 875 l 710 717 q 621 837 681 792 q 471 882 561 882 q 276 791 346 882 q 206 551 206 700 l 206 407 q 276 173 206 258 q 471 88 346 88 q 626 135 564 88 q 718 263 689 183 l 811 204 q 678 43 765 103 q 471 -17 592 -17 m 626 1269 l 479 1049 l 407 1082 l 525 1318 l 626 1269 z "},"Č":{"ha":863,"x_min":81,"x_max":811,"o":"m 471 -17 q 261 40 349 -17 q 127 206 174 96 q 81 479 81 317 q 127 755 81 642 q 261 927 174 868 q 471 986 349 986 q 675 931 592 986 q 804 774 758 875 l 710 717 q 621 837 681 792 q 471 882 561 882 q 276 791 346 882 q 206 551 206 700 l 206 407 q 276 173 206 258 q 471 88 346 88 q 626 135 564 88 q 718 263 689 183 l 811 204 q 678 43 765 103 q 471 -17 592 -17 m 539 1068 l 400 1068 l 246 1267 l 307 1310 l 469 1147 l 632 1310 l 693 1267 l 539 1068 z "},"Ç":{"ha":863,"x_min":81,"x_max":811,"o":"m 471 882 q 276 791 346 882 q 206 551 206 700 l 206 407 q 276 173 206 258 q 471 88 346 88 q 626 135 564 88 q 718 263 689 183 l 811 204 q 690 50 768 108 q 501 -15 611 -8 l 488 -85 l 492 -89 q 519 -83 506 -85 q 546 -81 533 -81 q 613 -104 586 -81 q 640 -172 640 -128 q 619 -237 640 -211 q 563 -275 597 -262 q 486 -287 528 -287 q 397 -269 431 -287 q 349 -231 364 -250 l 401 -174 q 435 -201 414 -189 q 486 -212 456 -212 q 530 -202 513 -212 q 547 -169 547 -192 q 529 -135 547 -150 q 453 -112 511 -121 l 414 -107 l 432 -15 q 243 52 322 -7 q 122 218 164 111 q 81 479 81 325 q 127 755 81 642 q 261 927 174 868 q 471 986 349 986 q 675 931 592 986 q 804 774 758 875 l 710 717 q 621 837 681 792 q 471 882 561 882 z "},"Ĉ":{"ha":863,"x_min":81,"x_max":811,"o":"m 471 -17 q 261 40 349 -17 q 127 206 174 96 q 81 479 81 317 q 127 755 81 642 q 261 927 174 868 q 471 986 349 986 q 675 931 592 986 q 804 774 758 875 l 710 717 q 621 837 681 792 q 471 882 561 882 q 276 791 346 882 q 206 551 206 700 l 206 407 q 276 173 206 258 q 471 88 346 88 q 626 135 564 88 q 718 263 689 183 l 811 204 q 678 43 765 103 q 471 -17 592 -17 m 400 1299 l 539 1299 l 693 1100 l 632 1057 l 469 1219 l 307 1057 l 246 1100 l 400 1299 z "},"Ċ":{"ha":863,"x_min":81,"x_max":811,"o":"m 471 -17 q 261 40 349 -17 q 127 206 174 96 q 81 479 81 317 q 127 755 81 642 q 261 927 174 868 q 471 986 349 986 q 675 931 592 986 q 804 774 758 875 l 710 717 q 621 837 681 792 q 471 882 561 882 q 276 791 346 882 q 206 551 206 700 l 206 407 q 276 173 206 258 q 471 88 346 88 q 626 135 564 88 q 718 263 689 183 l 811 204 q 678 43 765 103 q 471 -17 592 -17 m 469 1083 q 411 1103 431 1083 q 392 1157 392 1124 l 392 1176 q 411 1230 392 1210 q 469 1250 431 1250 q 528 1230 510 1250 q 547 1176 547 1210 l 547 1157 q 528 1103 547 1124 q 469 1083 510 1083 z "},"Ď":{"ha":932,"x_min":129,"x_max":851,"o":"m 129 0 l 129 969 l 454 969 q 665 916 575 969 q 803 755 754 863 q 851 485 851 647 q 803 215 851 322 q 665 53 754 107 q 454 0 575 0 l 129 0 m 246 103 l 454 103 q 596 139 535 103 q 692 242 657 175 q 726 406 726 310 l 726 564 q 692 728 726 660 q 596 831 657 796 q 454 867 535 867 l 246 867 l 246 103 m 496 1068 l 357 1068 l 203 1267 l 264 1310 l 426 1147 l 589 1310 l 650 1267 l 496 1068 z "},"Đ":{"ha":936,"x_min":24,"x_max":856,"o":"m 133 0 l 133 468 l 24 468 l 24 557 l 133 557 l 133 969 l 458 969 q 669 916 579 969 q 807 755 758 863 q 856 485 856 647 q 807 215 856 322 q 669 53 758 107 q 458 0 579 0 l 133 0 m 250 103 l 458 103 q 600 139 539 103 q 696 242 661 175 q 731 406 731 310 l 731 564 q 696 728 731 660 q 600 831 661 796 q 458 867 539 867 l 250 867 l 250 557 l 440 557 l 440 468 l 250 468 l 250 103 z "},"Ð":{"ha":936,"x_min":24,"x_max":856,"o":"m 133 0 l 133 468 l 24 468 l 24 557 l 133 557 l 133 969 l 458 969 q 669 916 579 969 q 807 755 758 863 q 856 485 856 647 q 807 215 856 322 q 669 53 758 107 q 458 0 579 0 l 133 0 m 250 103 l 458 103 q 600 139 539 103 q 696 242 661 175 q 731 406 731 310 l 731 564 q 696 728 731 660 q 600 831 661 796 q 458 867 539 867 l 250 867 l 250 557 l 440 557 l 440 468 l 250 468 l 250 103 z "},"É":{"ha":810,"x_min":129,"x_max":721,"o":"m 721 0 l 129 0 l 129 969 l 721 969 l 721 867 l 246 867 l 246 542 l 693 542 l 693 439 l 246 439 l 246 103 l 721 103 l 721 0 m 579 1269 l 432 1049 l 360 1082 l 478 1318 l 579 1269 z "},"Ĕ":{"ha":810,"x_min":129,"x_max":721,"o":"m 721 0 l 129 0 l 129 969 l 721 969 l 721 867 l 246 867 l 246 542 l 693 542 l 693 439 l 246 439 l 246 103 l 721 103 l 721 0 m 422 1064 q 330 1080 367 1064 q 270 1122 293 1096 q 234 1178 247 1149 q 211 1238 221 1208 l 274 1268 l 303 1222 q 346 1172 322 1192 q 422 1151 369 1151 q 499 1172 475 1151 q 542 1222 524 1192 l 571 1268 l 633 1238 q 600 1160 621 1200 q 538 1092 579 1119 q 422 1064 497 1064 z "},"Ě":{"ha":810,"x_min":129,"x_max":721,"o":"m 721 0 l 129 0 l 129 969 l 721 969 l 721 867 l 246 867 l 246 542 l 693 542 l 693 439 l 246 439 l 246 103 l 721 103 l 721 0 m 492 1068 l 353 1068 l 199 1267 l 260 1310 l 422 1147 l 585 1310 l 646 1267 l 492 1068 z "},"Ê":{"ha":810,"x_min":129,"x_max":721,"o":"m 721 0 l 129 0 l 129 969 l 721 969 l 721 867 l 246 867 l 246 542 l 693 542 l 693 439 l 246 439 l 246 103 l 721 103 l 721 0 m 353 1299 l 492 1299 l 646 1100 l 585 1057 l 422 1219 l 260 1057 l 199 1100 l 353 1299 z "},"Ë":{"ha":810,"x_min":129,"x_max":721,"o":"m 721 0 l 129 0 l 129 969 l 721 969 l 721 867 l 246 867 l 246 542 l 693 542 l 693 439 l 246 439 l 246 103 l 721 103 l 721 0 m 293 1094 q 241 1113 258 1094 q 224 1160 224 1131 l 224 1176 q 241 1224 224 1206 q 293 1242 258 1242 q 346 1224 329 1242 q 363 1176 363 1206 l 363 1160 q 346 1113 363 1131 q 293 1094 329 1094 m 551 1094 q 499 1113 517 1094 q 482 1160 482 1131 l 482 1176 q 499 1224 482 1206 q 551 1242 517 1242 q 604 1224 588 1242 q 621 1176 621 1206 l 621 1160 q 604 1113 621 1131 q 551 1094 588 1094 z "},"Ė":{"ha":810,"x_min":129,"x_max":721,"o":"m 721 0 l 129 0 l 129 969 l 721 969 l 721 867 l 246 867 l 246 542 l 693 542 l 693 439 l 246 439 l 246 103 l 721 103 l 721 0 m 422 1083 q 364 1103 383 1083 q 344 1157 344 1124 l 344 1176 q 364 1230 344 1210 q 422 1250 383 1250 q 481 1230 463 1250 q 500 1176 500 1210 l 500 1157 q 481 1103 500 1124 q 422 1083 463 1083 z "},"Ẹ":{"ha":810,"x_min":129,"x_max":721,"o":"m 721 0 l 129 0 l 129 969 l 721 969 l 721 867 l 246 867 l 246 542 l 693 542 l 693 439 l 246 439 l 246 103 l 721 103 l 721 0 m 422 -235 q 369 -217 388 -235 q 351 -171 351 -200 l 351 -156 q 369 -109 351 -126 q 422 -92 388 -92 q 476 -109 458 -92 q 493 -156 493 -126 l 493 -171 q 476 -217 493 -200 q 422 -235 458 -235 z "},"È":{"ha":810,"x_min":129,"x_max":721,"o":"m 721 0 l 129 0 l 129 969 l 721 969 l 721 867 l 246 867 l 246 542 l 693 542 l 693 439 l 246 439 l 246 103 l 721 103 l 721 0 m 413 1049 l 265 1269 l 367 1318 l 485 1082 l 413 1049 z "},"Ẻ":{"ha":810,"x_min":129,"x_max":721,"o":"m 721 0 l 129 0 l 129 969 l 721 969 l 721 867 l 246 867 l 246 542 l 693 542 l 693 439 l 246 439 l 246 103 l 721 103 l 721 0 m 306 1214 l 306 1299 l 457 1299 q 532 1276 510 1299 q 554 1222 554 1254 q 536 1156 554 1192 q 486 1079 518 1119 l 453 1038 l 389 1069 l 469 1214 l 306 1214 z "},"Ē":{"ha":810,"x_min":129,"x_max":721,"o":"m 721 0 l 129 0 l 129 969 l 721 969 l 721 867 l 246 867 l 246 542 l 693 542 l 693 439 l 246 439 l 246 103 l 721 103 l 721 0 m 228 1121 l 228 1215 l 617 1215 l 617 1121 l 228 1121 z "},"Ę":{"ha":810,"x_min":129,"x_max":750,"o":"m 129 0 l 129 969 l 721 969 l 721 867 l 246 867 l 246 542 l 693 542 l 693 439 l 246 439 l 246 103 l 721 103 l 721 0 q 633 -86 663 -54 q 594 -137 604 -118 q 585 -171 585 -156 q 597 -203 585 -193 q 628 -212 610 -212 q 665 -203 647 -212 q 694 -179 682 -194 l 750 -233 q 707 -272 738 -256 q 628 -287 676 -287 q 562 -276 592 -287 q 514 -242 532 -265 q 496 -182 496 -218 q 538 -87 496 -129 q 636 -7 579 -46 l 635 0 l 129 0 z "},"Ẽ":{"ha":810,"x_min":129,"x_max":721,"o":"m 721 0 l 129 0 l 129 969 l 721 969 l 721 867 l 246 867 l 246 542 l 693 542 l 693 439 l 246 439 l 246 103 l 721 103 l 721 0 m 524 1086 q 461 1099 488 1086 q 413 1122 435 1111 q 356 1148 379 1140 q 315 1156 333 1156 q 274 1146 293 1156 q 235 1118 256 1136 l 189 1174 q 241 1224 208 1201 q 321 1247 274 1247 q 383 1235 357 1247 q 432 1211 410 1222 q 488 1185 465 1193 q 529 1178 511 1178 q 571 1188 553 1178 q 610 1215 589 1197 l 656 1160 q 605 1109 638 1132 q 524 1086 572 1086 z "},"Ế":{"ha":810,"x_min":129,"x_max":783,"o":"m 721 0 l 129 0 l 129 969 l 721 969 l 721 867 l 246 867 l 246 542 l 693 542 l 693 439 l 246 439 l 246 103 l 721 103 l 721 0 m 783 1426 l 636 1206 l 568 1238 l 686 1474 l 783 1426 m 353 1271 l 492 1271 l 644 1085 l 588 1043 l 422 1199 l 257 1043 l 200 1085 l 353 1271 z "},"Ệ":{"ha":810,"x_min":129,"x_max":721,"o":"m 721 0 l 129 0 l 129 969 l 721 969 l 721 867 l 246 867 l 246 542 l 693 542 l 693 439 l 246 439 l 246 103 l 721 103 l 721 0 m 353 1299 l 492 1299 l 646 1100 l 585 1057 l 422 1219 l 260 1057 l 199 1100 l 353 1299 m 422 -235 q 369 -217 388 -235 q 351 -171 351 -200 l 351 -156 q 369 -109 351 -126 q 422 -92 388 -92 q 476 -109 458 -92 q 493 -156 493 -126 l 493 -171 q 476 -217 493 -200 q 422 -235 458 -235 z "},"Ề":{"ha":810,"x_min":61,"x_max":721,"o":"m 721 0 l 129 0 l 129 969 l 721 969 l 721 867 l 246 867 l 246 542 l 693 542 l 693 439 l 246 439 l 246 103 l 721 103 l 721 0 m 208 1206 l 61 1426 l 158 1474 l 276 1238 l 208 1206 m 353 1271 l 492 1271 l 644 1085 l 588 1043 l 422 1199 l 257 1043 l 200 1085 l 353 1271 z "},"Ể":{"ha":810,"x_min":129,"x_max":740,"o":"m 721 0 l 129 0 l 129 969 l 721 969 l 721 867 l 246 867 l 246 542 l 693 542 l 693 439 l 246 439 l 246 103 l 721 103 l 721 0 m 492 1378 l 492 1458 l 643 1458 q 718 1436 696 1458 q 740 1382 740 1414 q 722 1315 740 1351 q 672 1239 704 1279 l 639 1197 l 578 1229 l 661 1378 l 492 1378 m 353 1271 l 492 1271 l 644 1085 l 588 1043 l 422 1199 l 257 1043 l 200 1085 l 353 1271 z "},"Ễ":{"ha":810,"x_min":129,"x_max":721,"o":"m 721 0 l 129 0 l 129 969 l 721 969 l 721 867 l 246 867 l 246 542 l 693 542 l 693 439 l 246 439 l 246 103 l 721 103 l 721 0 m 322 1464 q 385 1451 358 1464 q 433 1428 411 1439 q 490 1402 467 1410 q 531 1394 513 1394 q 572 1404 554 1394 q 611 1432 590 1414 l 654 1382 q 603 1331 636 1354 q 522 1308 571 1308 q 460 1321 486 1308 q 411 1344 433 1333 q 355 1370 378 1363 q 314 1378 332 1378 q 273 1368 292 1378 q 233 1340 254 1358 l 190 1390 q 242 1441 210 1418 q 322 1464 275 1464 m 353 1271 l 492 1271 l 644 1085 l 588 1043 l 422 1199 l 257 1043 l 200 1085 l 353 1271 z "},"Ə":{"ha":983,"x_min":81,"x_max":903,"o":"m 81 515 l 779 515 l 779 557 q 703 796 779 710 q 499 882 626 882 q 331 831 406 882 q 221 692 257 779 l 124 739 q 206 865 151 810 q 335 953 260 921 q 500 986 410 986 q 719 926 629 986 q 856 753 810 865 q 903 485 903 642 q 853 215 903 328 q 710 43 803 103 q 490 -17 618 -17 q 271 40 363 -17 q 130 207 179 96 q 81 485 81 318 l 81 515 m 201 419 l 201 413 q 240 242 201 315 q 344 128 279 168 q 490 88 410 88 q 636 128 571 88 q 740 242 701 168 q 779 413 779 315 l 779 419 l 201 419 z "},"Ğ":{"ha":965,"x_min":81,"x_max":865,"o":"m 757 0 l 757 142 l 753 142 q 665 28 735 74 q 483 -17 594 -17 q 274 41 365 -17 q 132 210 183 99 q 81 485 81 322 q 132 758 81 646 q 276 928 183 869 q 493 986 369 986 q 711 927 624 986 q 846 774 799 868 l 750 715 q 651 838 717 793 q 493 882 585 882 q 343 842 408 882 q 242 731 278 803 q 206 564 206 660 l 206 407 q 242 240 206 311 q 345 128 278 168 q 504 88 413 88 q 628 111 572 88 q 717 182 683 135 q 751 300 751 229 l 751 396 l 538 396 l 538 499 l 865 499 l 865 0 l 757 0 m 493 1064 q 401 1080 438 1064 q 341 1122 364 1096 q 305 1178 318 1149 q 282 1238 292 1208 l 344 1268 l 374 1222 q 417 1172 393 1192 q 493 1151 440 1151 q 570 1172 546 1151 q 613 1222 594 1192 l 642 1268 l 704 1238 q 671 1160 692 1200 q 609 1092 650 1119 q 493 1064 568 1064 z "},"Ĝ":{"ha":965,"x_min":81,"x_max":865,"o":"m 757 0 l 757 142 l 753 142 q 665 28 735 74 q 483 -17 594 -17 q 274 41 365 -17 q 132 210 183 99 q 81 485 81 322 q 132 758 81 646 q 276 928 183 869 q 493 986 369 986 q 711 927 624 986 q 846 774 799 868 l 750 715 q 651 838 717 793 q 493 882 585 882 q 343 842 408 882 q 242 731 278 803 q 206 564 206 660 l 206 407 q 242 240 206 311 q 345 128 278 168 q 504 88 413 88 q 628 111 572 88 q 717 182 683 135 q 751 300 751 229 l 751 396 l 538 396 l 538 499 l 865 499 l 865 0 l 757 0 m 424 1299 l 563 1299 l 717 1100 l 656 1057 l 493 1219 l 331 1057 l 269 1100 l 424 1299 z "},"Ģ":{"ha":965,"x_min":81,"x_max":865,"o":"m 757 0 l 757 142 l 753 142 q 665 28 735 74 q 483 -17 594 -17 q 274 41 365 -17 q 132 210 183 99 q 81 485 81 322 q 132 758 81 646 q 276 928 183 869 q 493 986 369 986 q 711 927 624 986 q 846 774 799 868 l 750 715 q 651 838 717 793 q 493 882 585 882 q 343 842 408 882 q 242 731 278 803 q 206 564 206 660 l 206 407 q 242 240 206 311 q 345 128 278 168 q 504 88 413 88 q 628 111 572 88 q 717 182 683 135 q 751 300 751 229 l 751 396 l 538 396 l 538 499 l 865 499 l 865 0 l 757 0 m 483 -92 q 536 -109 518 -92 q 554 -157 554 -126 l 554 -172 q 529 -265 554 -221 q 471 -340 504 -308 l 390 -340 q 435 -287 418 -311 q 461 -232 451 -264 q 425 -210 438 -226 q 413 -171 413 -193 l 413 -157 q 431 -109 413 -126 q 483 -92 449 -92 z "},"Ġ":{"ha":965,"x_min":81,"x_max":865,"o":"m 757 0 l 757 142 l 753 142 q 665 28 735 74 q 483 -17 594 -17 q 274 41 365 -17 q 132 210 183 99 q 81 485 81 322 q 132 758 81 646 q 276 928 183 869 q 493 986 369 986 q 711 927 624 986 q 846 774 799 868 l 750 715 q 651 838 717 793 q 493 882 585 882 q 343 842 408 882 q 242 731 278 803 q 206 564 206 660 l 206 407 q 242 240 206 311 q 345 128 278 168 q 504 88 413 88 q 628 111 572 88 q 717 182 683 135 q 751 300 751 229 l 751 396 l 538 396 l 538 499 l 865 499 l 865 0 l 757 0 m 493 1083 q 435 1103 454 1083 q 415 1157 415 1124 l 415 1176 q 435 1230 415 1210 q 493 1250 454 1250 q 552 1230 533 1250 q 571 1176 571 1210 l 571 1157 q 552 1103 571 1124 q 493 1083 533 1083 z "},"Ħ":{"ha":990,"x_min":38,"x_max":953,"o":"m 740 0 l 740 439 l 250 439 l 250 0 l 133 0 l 133 719 l 38 719 l 38 808 l 133 808 l 133 969 l 250 969 l 250 808 l 740 808 l 740 969 l 857 969 l 857 808 l 953 808 l 953 719 l 857 719 l 857 0 l 740 0 m 250 542 l 740 542 l 740 719 l 250 719 l 250 542 z "},"Ĥ":{"ha":982,"x_min":129,"x_max":853,"o":"m 736 0 l 736 439 l 246 439 l 246 0 l 129 0 l 129 969 l 246 969 l 246 542 l 736 542 l 736 969 l 853 969 l 853 0 l 736 0 m 422 1299 l 561 1299 l 715 1100 l 654 1057 l 492 1219 l 329 1057 l 268 1100 l 422 1299 z "},"Í":{"ha":556,"x_min":83,"x_max":472,"o":"m 472 0 l 83 0 l 83 97 l 219 97 l 219 872 l 83 872 l 83 969 l 472 969 l 472 872 l 336 872 l 336 97 l 472 97 l 472 0 m 435 1269 l 288 1049 l 215 1082 l 333 1318 l 435 1269 z "},"Ĭ":{"ha":556,"x_min":67,"x_max":489,"o":"m 472 0 l 83 0 l 83 97 l 219 97 l 219 872 l 83 872 l 83 969 l 472 969 l 472 872 l 336 872 l 336 97 l 472 97 l 472 0 m 278 1064 q 185 1080 222 1064 q 126 1122 149 1096 q 90 1178 103 1149 q 67 1238 76 1208 l 129 1268 l 158 1222 q 201 1172 178 1192 q 278 1151 225 1151 q 355 1172 331 1151 q 397 1222 379 1192 l 426 1268 l 489 1238 q 456 1160 476 1200 q 394 1092 435 1119 q 278 1064 353 1064 z "},"Ǐ":{"ha":556,"x_min":54,"x_max":501,"o":"m 472 0 l 83 0 l 83 97 l 219 97 l 219 872 l 83 872 l 83 969 l 472 969 l 472 872 l 336 872 l 336 97 l 472 97 l 472 0 m 347 1068 l 208 1068 l 54 1267 l 115 1310 l 278 1147 l 440 1310 l 501 1267 l 347 1068 z "},"Î":{"ha":556,"x_min":54,"x_max":501,"o":"m 472 0 l 83 0 l 83 97 l 219 97 l 219 872 l 83 872 l 83 969 l 472 969 l 472 872 l 336 872 l 336 97 l 472 97 l 472 0 m 208 1299 l 347 1299 l 501 1100 l 440 1057 l 278 1219 l 115 1057 l 54 1100 l 208 1299 z "},"Ï":{"ha":556,"x_min":79,"x_max":476,"o":"m 472 0 l 83 0 l 83 97 l 219 97 l 219 872 l 83 872 l 83 969 l 472 969 l 472 872 l 336 872 l 336 97 l 472 97 l 472 0 m 149 1094 q 97 1113 114 1094 q 79 1160 79 1131 l 79 1176 q 97 1224 79 1206 q 149 1242 114 1242 q 201 1224 185 1242 q 218 1176 218 1206 l 218 1160 q 201 1113 218 1131 q 149 1094 185 1094 m 407 1094 q 355 1113 372 1094 q 338 1160 338 1131 l 338 1176 q 355 1224 338 1206 q 407 1242 372 1242 q 460 1224 443 1242 q 476 1176 476 1206 l 476 1160 q 460 1113 476 1131 q 407 1094 443 1094 z "},"İ":{"ha":556,"x_min":83,"x_max":472,"o":"m 472 0 l 83 0 l 83 97 l 219 97 l 219 872 l 83 872 l 83 969 l 472 969 l 472 872 l 336 872 l 336 97 l 472 97 l 472 0 m 278 1083 q 219 1103 239 1083 q 200 1157 200 1124 l 200 1176 q 219 1230 200 1210 q 278 1250 239 1250 q 337 1230 318 1250 q 356 1176 356 1210 l 356 1157 q 337 1103 356 1124 q 278 1083 318 1083 z "},"Ị":{"ha":556,"x_min":83,"x_max":472,"o":"m 472 0 l 83 0 l 83 97 l 219 97 l 219 872 l 83 872 l 83 969 l 472 969 l 472 872 l 336 872 l 336 97 l 472 97 l 472 0 m 278 -235 q 225 -217 243 -235 q 207 -171 207 -200 l 207 -156 q 225 -109 207 -126 q 278 -92 243 -92 q 331 -109 314 -92 q 349 -156 349 -126 l 349 -171 q 331 -217 349 -200 q 278 -235 314 -235 z "},"Ì":{"ha":556,"x_min":83,"x_max":472,"o":"m 472 0 l 83 0 l 83 97 l 219 97 l 219 872 l 83 872 l 83 969 l 472 969 l 472 872 l 336 872 l 336 97 l 472 97 l 472 0 m 268 1049 l 121 1269 l 222 1318 l 340 1082 l 268 1049 z "},"Ỉ":{"ha":556,"x_min":83,"x_max":472,"o":"m 472 0 l 83 0 l 83 97 l 219 97 l 219 872 l 83 872 l 83 969 l 472 969 l 472 872 l 336 872 l 336 97 l 472 97 l 472 0 m 161 1214 l 161 1299 l 313 1299 q 388 1276 365 1299 q 410 1222 410 1254 q 392 1156 410 1192 q 342 1079 374 1119 l 308 1038 l 244 1069 l 325 1214 l 161 1214 z "},"Ī":{"ha":556,"x_min":83,"x_max":472,"o":"m 472 0 l 83 0 l 83 97 l 219 97 l 219 872 l 83 872 l 83 969 l 472 969 l 472 872 l 336 872 l 336 97 l 472 97 l 472 0 m 83 1121 l 83 1215 l 472 1215 l 472 1121 l 83 1121 z "},"Į":{"ha":556,"x_min":83,"x_max":501,"o":"m 83 0 l 83 97 l 219 97 l 219 872 l 83 872 l 83 969 l 472 969 l 472 872 l 336 872 l 336 97 l 472 97 l 472 0 q 385 -86 414 -54 q 346 -137 356 -118 q 336 -171 336 -156 q 349 -203 336 -193 q 379 -212 361 -212 q 416 -203 399 -212 q 446 -179 433 -194 l 501 -233 q 458 -272 489 -256 q 379 -287 428 -287 q 313 -276 343 -287 q 265 -242 283 -265 q 247 -182 247 -218 q 285 -90 247 -129 q 388 -7 322 -50 l 386 0 l 83 0 z "},"Ĩ":{"ha":556,"x_min":44,"x_max":511,"o":"m 472 0 l 83 0 l 83 97 l 219 97 l 219 872 l 83 872 l 83 969 l 472 969 l 472 872 l 336 872 l 336 97 l 472 97 l 472 0 m 379 1086 q 317 1099 343 1086 q 268 1122 290 1111 q 212 1148 235 1140 q 171 1156 189 1156 q 130 1146 149 1156 q 90 1118 111 1136 l 44 1174 q 97 1224 64 1201 q 176 1247 129 1247 q 239 1235 213 1247 q 288 1211 265 1222 q 344 1185 321 1193 q 385 1178 367 1178 q 426 1188 408 1178 q 465 1215 444 1197 l 511 1160 q 460 1109 493 1132 q 379 1086 428 1086 z "},"Ĳ":{"ha":896,"x_min":122,"x_max":774,"o":"m 444 -17 q 228 49 306 -17 q 129 214 150 115 l 235 239 q 301 131 250 175 q 449 88 351 88 q 601 137 546 88 q 657 289 657 186 l 657 865 l 446 865 l 446 969 l 774 969 l 774 313 q 734 137 774 211 q 621 23 694 63 q 444 -17 547 -17 m 122 403 l 122 969 l 239 969 l 239 403 l 122 403 z "},"Ĵ":{"ha":708,"x_min":39,"x_max":589,"o":"m 136 969 l 586 969 l 586 251 q 551 109 586 169 q 453 16 515 49 q 308 -17 390 -17 q 127 44 196 -17 q 39 204 58 106 l 144 229 q 198 127 158 167 q 311 88 238 88 q 428 133 386 88 q 469 272 469 179 l 469 867 l 136 867 l 136 969 m 296 1299 l 435 1299 l 589 1100 l 528 1057 l 365 1219 l 203 1057 l 142 1100 l 296 1299 z "},"Ķ":{"ha":881,"x_min":129,"x_max":850,"o":"m 706 0 l 383 476 l 246 324 l 246 0 l 129 0 l 129 969 l 246 969 l 246 622 l 246 454 l 250 454 l 389 622 l 682 969 l 825 969 l 464 554 l 850 0 l 706 0 m 467 -92 q 519 -109 501 -92 q 538 -157 538 -126 l 538 -172 q 513 -265 538 -221 q 454 -340 488 -308 l 374 -340 q 418 -287 401 -311 q 444 -232 435 -264 q 408 -210 421 -226 q 396 -171 396 -193 l 396 -157 q 414 -109 396 -126 q 467 -92 432 -92 z "},"Ĺ":{"ha":696,"x_min":125,"x_max":658,"o":"m 658 0 l 129 0 l 129 969 l 246 969 l 246 103 l 658 103 l 658 0 m 344 1269 l 197 1049 l 125 1082 l 243 1318 l 344 1269 z "},"Ľ":{"ha":696,"x_min":129,"x_max":658,"o":"m 658 0 l 129 0 l 129 969 l 246 969 l 246 103 l 658 103 l 658 0 m 500 1028 l 428 771 l 354 771 l 371 1028 l 500 1028 z "},"Ļ":{"ha":696,"x_min":129,"x_max":658,"o":"m 658 0 l 129 0 l 129 969 l 246 969 l 246 103 l 658 103 l 658 0 m 414 -92 q 467 -109 449 -92 q 485 -157 485 -126 l 485 -172 q 460 -265 485 -221 q 401 -340 435 -308 l 321 -340 q 365 -287 349 -311 q 392 -232 382 -264 q 356 -210 368 -226 q 343 -171 343 -193 l 343 -157 q 361 -109 343 -126 q 414 -92 379 -92 z "},"Ŀ":{"ha":696,"x_min":129,"x_max":658,"o":"m 658 0 l 129 0 l 129 969 l 246 969 l 246 103 l 658 103 l 658 0 m 535 406 q 482 423 500 406 q 464 469 464 440 l 464 485 q 482 531 464 514 q 535 549 500 549 q 588 531 571 549 q 606 485 606 514 l 606 469 q 588 423 606 440 q 535 406 571 406 z "},"Ł":{"ha":706,"x_min":-10,"x_max":663,"o":"m 663 104 l 663 0 l 133 0 l 133 376 l -10 329 l -10 422 l 133 471 l 133 969 l 250 969 l 250 510 l 501 594 l 501 496 l 250 414 l 250 104 l 663 104 z "},"Ń":{"ha":982,"x_min":129,"x_max":853,"o":"m 718 0 l 364 592 l 247 807 l 243 807 l 243 592 l 243 0 l 129 0 l 129 969 l 264 969 l 618 378 l 735 163 l 739 163 l 739 378 l 739 969 l 853 969 l 853 0 l 718 0 m 647 1269 l 500 1049 l 428 1082 l 546 1318 l 647 1269 z "},"Ň":{"ha":982,"x_min":129,"x_max":853,"o":"m 718 0 l 364 592 l 247 807 l 243 807 l 243 592 l 243 0 l 129 0 l 129 969 l 264 969 l 618 378 l 735 163 l 739 163 l 739 378 l 739 969 l 853 969 l 853 0 l 718 0 m 560 1068 l 421 1068 l 267 1267 l 328 1310 l 490 1147 l 653 1310 l 714 1267 l 560 1068 z "},"Ņ":{"ha":982,"x_min":129,"x_max":853,"o":"m 718 0 l 364 592 l 247 807 l 243 807 l 243 592 l 243 0 l 129 0 l 129 969 l 264 969 l 618 378 l 735 163 l 739 163 l 739 378 l 739 969 l 853 969 l 853 0 l 718 0 m 490 -92 q 543 -109 525 -92 q 561 -157 561 -126 l 561 -172 q 536 -265 561 -221 q 478 -340 511 -308 l 397 -340 q 442 -287 425 -311 q 468 -232 458 -264 q 432 -210 444 -226 q 419 -171 419 -193 l 419 -157 q 438 -109 419 -126 q 490 -92 456 -92 z "},"Ñ":{"ha":982,"x_min":129,"x_max":853,"o":"m 718 0 l 364 592 l 247 807 l 243 807 l 243 592 l 243 0 l 129 0 l 129 969 l 264 969 l 618 378 l 735 163 l 739 163 l 739 378 l 739 969 l 853 969 l 853 0 l 718 0 m 592 1086 q 529 1099 556 1086 q 481 1122 503 1111 q 424 1148 447 1140 q 383 1156 401 1156 q 342 1146 361 1156 q 303 1118 324 1136 l 257 1174 q 309 1224 276 1201 q 389 1247 342 1247 q 451 1235 425 1247 q 500 1211 478 1222 q 556 1185 533 1193 q 597 1178 579 1178 q 639 1188 621 1178 q 678 1215 657 1197 l 724 1160 q 673 1109 706 1132 q 592 1086 640 1086 z "},"Ŋ":{"ha":982,"x_min":129,"x_max":853,"o":"m 243 0 l 129 0 l 129 969 l 264 969 l 618 378 l 735 163 l 739 163 l 739 378 l 739 969 l 853 969 l 853 -104 q 814 -229 853 -181 q 694 -278 775 -278 l 619 -278 l 619 -175 l 739 -175 l 739 0 l 718 0 l 364 592 l 247 807 l 243 807 l 243 592 l 243 0 z "},"Ó":{"ha":983,"x_min":81,"x_max":903,"o":"m 492 -17 q 274 41 367 -17 q 131 210 182 99 q 81 485 81 322 q 131 759 81 647 q 274 928 182 871 q 492 986 367 986 q 709 928 617 986 q 852 759 801 871 q 903 485 903 647 q 852 210 903 322 q 709 41 801 99 q 492 -17 617 -17 m 492 88 q 640 127 576 88 q 741 238 704 167 q 778 404 778 308 l 778 565 q 741 733 778 661 q 640 843 704 804 q 492 882 576 882 q 344 843 408 882 q 242 733 279 804 q 206 565 206 661 l 206 404 q 242 238 206 308 q 344 127 279 167 q 492 88 408 88 m 649 1269 l 501 1049 l 429 1082 l 547 1318 l 649 1269 z "},"Ŏ":{"ha":983,"x_min":81,"x_max":903,"o":"m 492 -17 q 274 41 367 -17 q 131 210 182 99 q 81 485 81 322 q 131 759 81 647 q 274 928 182 871 q 492 986 367 986 q 709 928 617 986 q 852 759 801 871 q 903 485 903 647 q 852 210 903 322 q 709 41 801 99 q 492 -17 617 -17 m 492 88 q 640 127 576 88 q 741 238 704 167 q 778 404 778 308 l 778 565 q 741 733 778 661 q 640 843 704 804 q 492 882 576 882 q 344 843 408 882 q 242 733 279 804 q 206 565 206 661 l 206 404 q 242 238 206 308 q 344 127 279 167 q 492 88 408 88 m 492 1064 q 399 1080 436 1064 q 340 1122 363 1096 q 303 1178 317 1149 q 281 1238 290 1208 l 343 1268 l 372 1222 q 415 1172 392 1192 q 492 1151 439 1151 q 569 1172 544 1151 q 611 1222 593 1192 l 640 1268 l 703 1238 q 669 1160 690 1200 q 608 1092 649 1119 q 492 1064 567 1064 z "},"Ǒ":{"ha":983,"x_min":81,"x_max":903,"o":"m 492 -17 q 274 41 367 -17 q 131 210 182 99 q 81 485 81 322 q 131 759 81 647 q 274 928 182 871 q 492 986 367 986 q 709 928 617 986 q 852 759 801 871 q 903 485 903 647 q 852 210 903 322 q 709 41 801 99 q 492 -17 617 -17 m 492 88 q 640 127 576 88 q 741 238 704 167 q 778 404 778 308 l 778 565 q 741 733 778 661 q 640 843 704 804 q 492 882 576 882 q 344 843 408 882 q 242 733 279 804 q 206 565 206 661 l 206 404 q 242 238 206 308 q 344 127 279 167 q 492 88 408 88 m 561 1068 l 422 1068 l 268 1267 l 329 1310 l 492 1147 l 654 1310 l 715 1267 l 561 1068 z "},"Ô":{"ha":983,"x_min":81,"x_max":903,"o":"m 492 -17 q 274 41 367 -17 q 131 210 182 99 q 81 485 81 322 q 131 759 81 647 q 274 928 182 871 q 492 986 367 986 q 709 928 617 986 q 852 759 801 871 q 903 485 903 647 q 852 210 903 322 q 709 41 801 99 q 492 -17 617 -17 m 492 88 q 640 127 576 88 q 741 238 704 167 q 778 404 778 308 l 778 565 q 741 733 778 661 q 640 843 704 804 q 492 882 576 882 q 344 843 408 882 q 242 733 279 804 q 206 565 206 661 l 206 404 q 242 238 206 308 q 344 127 279 167 q 492 88 408 88 m 422 1299 l 561 1299 l 715 1100 l 654 1057 l 492 1219 l 329 1057 l 268 1100 l 422 1299 z "},"Ö":{"ha":983,"x_min":81,"x_max":903,"o":"m 492 -17 q 274 41 367 -17 q 131 210 182 99 q 81 485 81 322 q 131 759 81 647 q 274 928 182 871 q 492 986 367 986 q 709 928 617 986 q 852 759 801 871 q 903 485 903 647 q 852 210 903 322 q 709 41 801 99 q 492 -17 617 -17 m 492 88 q 640 127 576 88 q 741 238 704 167 q 778 404 778 308 l 778 565 q 741 733 778 661 q 640 843 704 804 q 492 882 576 882 q 344 843 408 882 q 242 733 279 804 q 206 565 206 661 l 206 404 q 242 238 206 308 q 344 127 279 167 q 492 88 408 88 m 363 1094 q 310 1113 328 1094 q 293 1160 293 1131 l 293 1176 q 310 1224 293 1206 q 363 1242 328 1242 q 415 1224 399 1242 q 432 1176 432 1206 l 432 1160 q 415 1113 432 1131 q 363 1094 399 1094 m 621 1094 q 569 1113 586 1094 q 551 1160 551 1131 l 551 1176 q 569 1224 551 1206 q 621 1242 586 1242 q 674 1224 657 1242 q 690 1176 690 1206 l 690 1160 q 674 1113 690 1131 q 621 1094 657 1094 z "}}}
